<svg width="375" height="401" viewBox="0 0 375 401" fill="none" xmlns="http://www.w3.org/2000/svg">
<path d="M323.589 161.166C324.135 161.866 324.603 162.489 325.071 163.189C325.773 163.967 326.397 164.746 327.021 165.602C325.851 164.123 324.759 162.645 323.589 161.166Z" fill="#FFB3BD"/>
<path d="M318.83 156.652C316.256 154.706 317.972 156.029 318.83 156.808C319.844 157.508 321.248 158.519 318.83 156.652Z" fill="#FFB3BD"/>
<path d="M334.117 177.973C334.429 178.751 334.741 179.529 335.053 180.307C335.521 181.319 335.989 182.33 336.379 183.342C335.677 181.552 334.897 179.762 334.117 177.973Z" fill="#FFB3BD"/>
<path d="M340.122 197.115C340.278 198.127 340.356 199.061 340.434 200.072C340.59 201.006 340.746 201.94 340.902 202.874C340.59 200.928 340.356 199.061 340.122 197.115Z" fill="#FFB3BD"/>
<path d="M340.043 224.354C339.887 225.443 339.809 226.533 339.653 227.545C339.887 225.677 340.199 223.809 340.433 222.02C340.277 222.798 340.199 223.576 340.043 224.354Z" fill="#FFB3BD"/>
<path d="M305.65 313.375C304.168 322.091 308.146 331.896 316.101 336.098C326.708 341.623 339.343 338.51 345.661 328.16C348.624 323.336 351.432 318.433 354.162 313.375H305.65Z" fill="#090E1D"/>
<path d="M379.82 246.065C380.834 241.552 381.77 236.96 382.472 232.369C367.653 233.614 352.756 234.47 337.86 235.248C335.286 246.454 331.698 257.504 327.565 268.243C326.941 269.877 326.239 271.511 325.615 273.145C327.799 267.153 325.615 273.223 324.913 274.702C324.523 275.558 324.133 276.414 323.743 277.348C322.495 280.071 321.247 282.717 319.921 285.441C316.334 292.678 312.356 299.759 308.144 306.685C306.818 308.786 306.039 311.12 305.571 313.533H354.16C365.625 292.211 374.516 269.332 379.82 246.065Z" fill="#FFB3BD"/>
<path d="M297.621 225.987C297.699 225.909 297.699 225.909 297.777 225.831C300.116 222.796 295.281 229.1 297.621 225.987Z" fill="#FFB3BD"/>
<path d="M383.646 199.296C381.853 182.954 377.563 167.702 369.842 153.072C362.12 138.521 350.343 123.191 334.901 116.343C329.441 113.93 324.45 112.608 318.444 114.164C313.297 115.565 307.759 119.455 305.263 124.202C301.598 131.128 301.676 141.089 306.277 147.859C304.094 148.87 302.144 150.193 300.74 152.061C284.127 173.149 267.515 194.238 251.448 215.793C261.587 226.065 272.662 235.325 283.893 244.352C284.907 243.029 285.843 241.706 286.857 240.383C290.445 235.559 294.111 230.734 297.776 225.909C297.776 225.909 297.776 225.909 297.776 225.832C297.698 225.909 297.698 225.909 297.62 225.987C295.202 229.1 300.038 222.797 297.776 225.832C298.712 224.664 299.57 223.419 300.506 222.252C302.456 219.762 304.328 217.272 306.277 214.782C314.623 203.965 323.124 193.226 331.547 182.487C332.561 181.242 333.497 179.919 334.277 178.674C334.511 179.219 334.823 179.764 335.057 180.309C334.823 179.686 334.589 179.141 334.355 178.519C335.057 180.153 335.681 181.709 336.383 183.343C335.993 182.332 335.525 181.32 335.057 180.309C337.475 186.69 339.268 193.304 340.36 200.074C340.282 199.063 340.204 198.129 340.048 197.117C340.282 199.063 340.516 200.93 340.828 202.876C340.672 201.942 340.516 201.008 340.36 200.074C341.14 208.167 340.906 216.26 339.97 224.353C340.126 223.575 340.204 222.797 340.36 222.019C340.126 223.886 339.814 225.754 339.58 227.544C339.736 226.454 339.892 225.365 339.97 224.353C339.346 228.011 338.644 231.668 337.865 235.248C352.761 234.469 367.58 233.613 382.476 232.368C384.192 221.396 384.894 210.19 383.646 199.296Z" fill="#FA4D5E"/>
<path d="M197.399 338.198C207.772 343.568 221.031 340.766 226.958 330.261C230.234 324.58 233.51 318.9 236.941 313.297H187.494C184.92 322.635 188.508 333.607 197.399 338.198Z" fill="#090E1D"/>
<path d="M283.891 244.352C272.66 235.325 261.585 226.065 251.446 215.793C237.407 234.547 223.837 253.612 211.124 273.222C203.558 284.895 196.305 296.723 189.442 308.707C188.584 310.185 187.96 311.742 187.492 313.376H236.939C246.064 298.357 255.814 283.65 265.875 269.176C271.802 260.849 277.808 252.523 283.891 244.352Z" fill="#FFB3BD"/>
<path d="M155.67 340.848C155.514 325.285 167.992 312.6 183.591 312.445C199.19 312.289 211.902 324.74 212.058 340.303L155.67 340.848Z" fill="white"/>
<path d="M323.902 338.825C323.746 323.261 336.225 310.577 351.823 310.421C367.422 310.266 380.135 322.717 380.291 338.28L323.902 338.825Z" fill="white"/>
<path d="M275.235 135.798C274.845 135.254 274.455 134.709 274.065 134.164C264.628 138.989 255.425 144.358 247.469 151.128C243.57 154.397 239.982 158.054 236.784 162.178C228.127 173.151 221.966 187.158 223.915 201.476C225.943 216.417 234.834 230.191 249.341 235.949C265.408 242.33 283.97 240.618 299.647 233.848C304.404 231.825 308.382 228.79 310.644 223.965C312.593 219.841 313.139 214.005 311.423 209.647C307.836 200.698 296.917 193.616 287.168 197.896C280.694 200.698 255.737 207.701 262.522 191.36C263.536 188.87 265.408 186.846 267.279 184.979C268.761 183.5 270.243 182.1 271.803 180.777C276.405 176.808 281.396 173.462 286.622 170.349C287.012 158.365 281.786 146.226 275.235 135.798Z" fill="#FFB3BD"/>
<path d="M301.126 92.6891C301.75 86.8528 299.02 82.4173 293.171 80.7831C287.321 79.1489 280.926 80.8609 275.466 83.3511C270.007 85.8412 265.093 89.1874 259.478 91.2884C246.375 96.1909 228.905 94.7902 220.715 105.14C219.467 106.696 218.454 109.031 219.233 110.976C220.403 113.855 222.977 112.999 225.395 114.4C227.579 115.645 227.423 118.68 225.863 120.47C224.303 122.26 221.729 123.194 219.389 124.049C209.796 127.707 200.593 132.298 192.248 137.823C187.412 141.014 182.343 145.449 183.201 150.741C183.591 153.387 188.582 153.62 188.426 156.266C188.036 162.88 172.984 168.016 173.53 174.631C173.764 177.743 177.117 180.078 180.549 180.623C183.981 181.09 187.49 180.156 190.688 178.833C198.877 175.565 211.59 160.312 219.623 156.655C232.102 150.896 226.565 164.048 235.456 165.37C243.801 166.616 249.807 155.565 253.316 150.507C259.01 142.259 264.937 133.232 274.53 128.174C276.246 127.24 278.352 126.462 280.302 127.007C281.862 127.396 283.032 128.641 284.514 129.185C289.271 130.897 293.249 125.528 294.731 121.17C297.772 111.677 299.956 102.261 301.126 92.6891Z" fill="#FA4D5E"/>
<path d="M237.279 105.779C245.259 104.172 250.422 96.4153 248.812 88.4535C247.202 80.4916 239.427 75.3397 231.447 76.9463C223.468 78.553 218.304 86.3098 219.914 94.2717C221.525 102.234 229.299 107.386 237.279 105.779Z" fill="#090E1D"/>
<path d="M229.337 40.4065C237.091 37.9331 241.368 29.6561 238.889 21.9192C236.41 14.1823 228.114 9.9154 220.36 12.3888C212.606 14.8621 208.329 23.1392 210.808 30.8761C213.287 38.6129 221.583 42.8799 229.337 40.4065Z" fill="#090E1D"/>
<path d="M222.431 31.4509L229.987 83.041L236.238 82.1296L228.682 30.5394L222.431 31.4509Z" fill="#090E1D"/>
<path d="M324.431 246.814C325.541 238.766 319.902 231.345 311.837 230.238C303.772 229.131 296.334 234.757 295.224 242.804C294.115 250.851 299.753 258.273 307.819 259.38C315.884 260.487 323.322 254.861 324.431 246.814Z" fill="#090E1D"/>
<path d="M304.249 164.591C312.36 164.046 319.457 170.116 320.003 178.286C320.549 186.379 314.466 193.461 306.276 194.006C298.165 194.55 291.068 188.481 290.522 180.31C289.976 172.217 296.137 165.213 304.249 164.591Z" fill="#090E1D"/>
<path d="M319.067 108.717C313.451 114.475 305.808 118.755 299.022 122.101C290.833 126.148 282.332 129.883 274.143 134.085C274.533 134.552 274.923 135.097 275.313 135.719C281.864 146.147 287.09 158.364 286.622 170.27C304.872 159.531 325.774 152.761 342.153 138.988C330.766 132.218 322.186 121.712 319.067 108.717Z" fill="white"/>
<path d="M364.381 99.3014C366.175 85.839 363.601 71.7541 356.192 59.9259C345.429 42.8061 325.697 32.1451 305.887 29.7327C289.508 27.7095 273.442 29.6549 257.453 33.5458C249.888 35.3356 242.244 37.5923 235.069 40.7828C230.311 42.8061 226.334 45.7631 223.994 50.5878C222.044 54.7121 221.498 60.5484 223.214 64.9062C226.802 73.8551 237.721 80.9365 247.47 76.6566C255.347 73.2326 263.692 70.8203 272.038 68.9527C283.815 66.7738 297.073 65.2952 308.616 69.1083C319.379 72.6879 327.959 82.4929 326.633 93.6986C326.477 95.1771 326.165 96.6556 325.619 98.1341C324.215 102.181 321.875 105.605 318.911 108.717C322.031 121.713 330.61 132.218 341.997 138.988C343.791 137.51 345.429 135.953 347.145 134.319C356.738 124.748 362.587 112.297 364.381 99.3014Z" fill="#FFB3BD"/>
<path d="M238.11 77.8241L230.467 85.8393C228.439 88.096 224.072 89.2633 221.03 87.0066C218.066 84.8277 218.768 80.859 221.342 78.0576L226.178 72.9216L223.916 73.0773L212.373 74.2445C204.886 74.8671 202 71.5988 201.688 68.7973C201.688 63.8948 206.991 63.817 206.991 63.817H210.579C205.431 64.0505 200.986 63.3501 200.908 59.7705L200.83 59.3814C200.362 56.9691 202.546 55.6462 205.509 54.479C202.858 53.8564 201.142 52.4557 200.752 50.6659C199.894 45.919 203.872 43.2733 209.955 42.6507L246.534 39.7715L247.86 76.7347L238.11 77.8241Z" fill="#FFB3BD"/>
<path d="M206.133 65.3724C211.671 64.8277 217.208 65.4503 222.746 64.9055C223.838 64.8277 223.838 63.0379 222.746 63.1157C217.208 63.6605 211.671 63.0379 206.133 63.5826C205.041 63.7383 205.041 65.4503 206.133 65.3724Z" fill="#090E1D"/>
<path d="M205.119 55.8025C210.422 55.3356 215.726 55.4135 221.029 54.9466C222.121 54.8687 222.121 53.0789 221.029 53.1568C215.726 53.6237 210.422 53.5458 205.119 54.0128C203.949 54.1684 203.949 55.9582 205.119 55.8025Z" fill="#090E1D"/>
<path d="M220.718 82.5712C223.994 83.9719 227.27 85.4504 230.545 86.8512C231.559 87.3181 232.495 85.7617 231.403 85.3726C228.128 83.9719 224.852 82.4934 221.576 81.0927C220.562 80.548 219.626 82.1043 220.718 82.5712Z" fill="#090E1D"/>
<path d="M225.396 74.1681C227.97 70.8998 227.658 66.1529 223.525 64.2853C222.511 63.8184 221.575 65.297 222.667 65.7639C225.63 67.0868 226.098 70.4329 224.149 72.923C223.525 73.779 224.772 75.0241 225.396 74.1681Z" fill="#090E1D"/>
<path d="M223.212 64.7516C228.204 61.4832 226.566 55.0244 221.263 53.2346C221.341 53.7793 221.419 54.324 221.497 54.8688C227.19 51.9895 227.034 43.5853 220.639 41.7955C219.547 41.4842 219.079 43.1962 220.171 43.5074C225.24 44.9082 224.928 51.2114 220.639 53.3902C219.937 53.7793 220.171 54.7909 220.873 55.0244C224.304 56.2695 226.254 60.8607 222.432 63.3508C221.341 63.8956 222.198 65.3741 223.212 64.7516Z" fill="#090E1D"/>
<path d="M224.696 73.3875C223.292 68.0181 222.356 62.4931 222.122 56.8902C221.888 52.1434 222.044 47.4743 221.342 42.7275C221.186 41.6381 219.47 42.105 219.626 43.1944C220.484 48.7194 220.094 54.2445 220.562 59.8473C220.952 64.5941 221.81 69.2632 222.98 73.8544C223.292 74.9438 225.008 74.4769 224.696 73.3875Z" fill="#090E1D"/>
<path d="M230.546 71.5985C231.872 65.84 234.992 61.0154 239.594 57.2801C240.452 56.5798 239.204 55.3347 238.346 56.0351C233.51 59.9259 230.235 65.1397 228.831 71.1316C228.597 72.2211 230.235 72.688 230.546 71.5985Z" fill="#090E1D"/>
<path d="M229.296 33.3105L232.572 64.5931L227.113 72.4526L223.057 33.9331L229.296 33.3105Z" fill="#090E1D"/>
<path d="M309.552 189.492L314.075 232.836L307.758 243.497L302.22 190.27L309.552 189.492Z" fill="#090E1D"/>
<path d="M287.323 199.452L292.314 189.725C293.64 187.079 297.384 184.745 300.893 185.912C304.325 187.079 304.715 190.97 303.077 194.394L299.957 200.542L302.063 199.764L312.67 195.328C319.612 192.604 323.199 194.861 324.291 197.351C325.617 201.942 320.625 203.499 320.625 203.499L317.272 204.51C322.107 202.798 326.475 202.176 327.567 205.522L327.723 205.911C328.815 208.012 327.177 209.88 324.681 211.825C327.333 211.592 329.361 212.448 330.219 214.082C332.324 218.284 328.035 221.552 322.497 223.887L289.974 237.505L275.936 204.277L287.323 199.452Z" fill="#FFB3BD"/>
<path d="M301.126 198.44C298.084 199.685 295.042 201.008 291.923 202.253C290.519 202.797 291.143 205.054 292.546 204.509C295.588 203.264 298.63 201.941 301.75 200.696C303.076 200.152 302.53 197.895 301.126 198.44Z" fill="#090E1D"/>
<path d="M322.183 201.475C321.013 202.019 319.765 202.486 318.595 203.031C318.829 203.809 318.985 204.51 319.219 205.288C319.375 205.21 319.453 205.21 319.609 205.132C321.013 204.587 320.389 202.331 318.985 202.875C317.815 203.42 316.568 203.887 315.398 204.432C313.994 204.977 314.618 207.233 316.022 206.688C317.191 206.144 318.439 205.677 319.609 205.132C319.375 204.354 319.219 203.654 318.985 202.875C318.829 202.953 318.751 202.953 318.595 203.031C317.191 203.576 317.815 205.832 319.219 205.288C320.389 204.743 321.637 204.276 322.807 203.731C324.211 203.109 323.587 200.852 322.183 201.475Z" fill="#090E1D"/>
<path d="M325.852 210.035C323.591 210.969 321.251 211.981 318.989 212.915C317.585 213.459 318.209 215.716 319.613 215.171C321.875 214.237 324.215 213.226 326.476 212.292C327.802 211.747 327.178 209.491 325.852 210.035Z" fill="#090E1D"/>
<path d="M303.624 189.569C300.115 189.18 296.605 188.791 293.173 188.402C291.692 188.246 291.692 190.581 293.173 190.736C296.683 191.126 300.193 191.515 303.624 191.904C305.106 192.059 305.106 189.725 303.624 189.569Z" fill="#090E1D"/>
<path d="M230.622 204.745C231.012 206.691 231.792 208.481 232.806 210.115C233.586 211.36 235.613 210.193 234.833 208.947C233.898 207.469 233.196 205.913 232.884 204.123C232.572 202.644 230.31 203.267 230.622 204.745Z" fill="#090E1D"/>
<path d="M348.78 60.3929C350.106 62.3383 351.042 64.4394 351.276 66.7739C351.432 68.2525 353.772 68.2525 353.616 66.7739C353.304 64.0503 352.368 61.4824 350.808 59.2257C349.95 57.9806 347.922 59.1478 348.78 60.3929Z" fill="#090E1D"/>
<path d="M247.702 52.454C248.794 52.0649 249.886 51.6758 250.978 51.2867C252.382 50.8198 251.758 48.5631 250.354 49.03C249.262 49.4191 248.17 49.8082 247.078 50.1973C245.674 50.6642 246.298 52.9209 247.702 52.454Z" fill="#090E1D"/>
<path d="M247.156 48.0191C248.17 47.8635 249.106 47.7079 250.12 47.4744C250.744 47.3966 251.056 46.6184 250.9 46.0737C250.744 45.4512 250.12 45.1399 249.496 45.2955C248.482 45.4512 247.546 45.6068 246.532 45.8402C245.908 45.9181 245.596 46.6962 245.752 47.241C245.908 47.8635 246.532 48.0969 247.156 48.0191Z" fill="#090E1D"/>
<path d="M311.111 118.368L303.312 102.026C305.028 102.182 306.743 101.481 307.991 100.081C309.863 97.8238 309.551 94.3999 307.211 92.5323C304.95 90.6646 301.518 90.9759 299.646 93.3104C299.568 93.4661 299.412 93.6217 299.334 93.6995L295.98 86.6181C295.59 85.7622 294.577 85.2952 293.641 85.6065C289.039 86.9294 276.326 92.0654 277.418 107.084C277.496 108.251 278.51 109.03 279.68 108.874L285.529 108.018L285.919 124.36C286.075 130.507 290.443 135.876 296.526 137.044C296.838 137.122 297.072 137.122 297.384 137.199C307.835 138.756 315.635 127.861 311.111 118.368Z" fill="#FFB3BD"/>
<path d="M288.729 94.0882C289.898 93.31 291.38 93.2322 292.628 93.8547C293.954 94.4773 295.202 92.5318 293.798 91.8315C291.77 90.8199 289.508 90.8977 287.559 92.0649C286.311 92.8431 287.481 94.8664 288.729 94.0882Z" fill="#090E1D"/>
<path d="M283.891 90.5878C281.786 92.8445 279.758 95.1012 277.652 97.4357C277.028 98.1361 277.34 99.0699 278.198 99.3811C279.602 99.9259 281.006 100.237 282.566 100.393C284.047 100.548 284.047 98.2139 282.566 98.0583C281.24 97.9026 280.07 97.5914 278.822 97.1244C278.978 97.747 279.134 98.4473 279.368 99.0699C281.474 96.8132 283.501 94.5565 285.607 92.222C286.621 91.1325 284.983 89.4984 283.891 90.5878Z" fill="#090E1D"/>
<path d="M285.999 102.881C288.105 103.581 290.367 101.325 289.665 99.2236C289.431 98.6011 288.885 98.212 288.261 98.4454C287.715 98.6011 287.247 99.3014 287.481 99.8461C287.481 99.924 287.559 100.002 287.559 100.08C287.559 99.924 287.559 99.924 287.559 100.08C287.559 100.235 287.559 100.235 287.559 100.157C287.559 100.08 287.559 100.08 287.559 100.235C287.481 100.391 287.481 100.391 287.559 100.235C287.559 100.313 287.481 100.313 287.481 100.391C287.481 100.469 287.403 100.469 287.403 100.546C287.481 100.469 287.481 100.469 287.403 100.546C287.325 100.546 287.169 100.702 287.325 100.624C287.247 100.702 287.169 100.702 287.169 100.702C287.247 100.624 287.325 100.624 287.169 100.702H287.091C287.247 100.702 287.247 100.702 287.091 100.702C286.935 100.702 286.935 100.702 287.091 100.702C287.013 100.702 286.935 100.702 286.857 100.624C286.233 100.391 285.61 100.858 285.454 101.402C284.986 102.103 285.376 102.725 285.999 102.881Z" fill="#090E1D"/>
<path d="M154.111 341.624C173.454 341.624 192.874 341.624 212.216 341.624C213.698 341.624 213.698 339.289 212.216 339.289C192.874 339.289 173.454 339.289 154.111 339.289C152.63 339.289 152.63 341.624 154.111 341.624Z" fill="#090E1D"/>
<path d="M323.9 340.067C342.541 340.067 361.103 340.067 379.743 340.067C381.225 340.067 381.225 337.732 379.743 337.732C361.103 337.732 342.541 337.732 323.9 337.732C322.419 337.732 322.341 340.067 323.9 340.067Z" fill="#090E1D"/>
<path d="M190.768 310.964C188.506 309.797 186.478 308.396 184.685 306.529C184.061 305.906 179.537 300.848 180.239 299.759C181.175 298.28 182.891 301.315 183.125 301.782C183.671 302.871 184.139 303.883 184.685 304.972C186.01 307.852 187.258 310.887 188.428 313.844C188.818 314.777 190.456 315.089 190.69 313.844C191.938 306.684 196.539 300.848 203.325 298.202C202.857 297.813 202.311 297.424 201.843 297.113C202.311 304.35 196.305 308.786 190.924 312.443C189.676 313.299 190.846 315.322 192.094 314.466C198.177 310.342 204.729 305.206 204.183 297.113C204.105 296.413 203.481 295.712 202.701 296.024C195.136 298.903 189.754 305.284 188.428 313.299C189.208 313.299 189.91 313.299 190.69 313.299C189.598 310.575 183.359 291.277 178.523 296.802C176.573 299.058 178.991 302.871 180.239 304.739C182.657 308.319 185.854 311.042 189.676 313.065C190.924 313.688 192.094 311.665 190.768 310.964Z" fill="#090E1D"/>
<path d="M357.44 310.107C354.086 306.839 349.874 302.325 348.47 297.734C346.833 292.365 351.902 298.59 352.76 300.069C354.398 302.87 355.256 305.905 355.568 309.095C355.646 310.185 357.128 310.73 357.752 309.718C359.077 307.539 366.721 294.621 370.308 297.189C370.152 296.645 369.996 296.1 369.918 295.555C366.409 301.002 362.041 305.516 356.66 309.173C355.412 310.029 356.582 312.052 357.83 311.196C363.523 307.383 368.203 302.559 371.868 296.722C372.258 296.178 371.946 295.477 371.478 295.088C368.983 293.299 366.487 295.088 364.615 296.878C361.105 300.224 358.219 304.271 355.724 308.473C356.426 308.706 357.206 308.862 357.908 309.095C357.44 304.582 356.036 300.302 353.306 296.645C351.98 294.855 349.328 291.82 346.677 293.065C340.827 295.711 353.54 309.562 355.802 311.819C356.816 312.831 358.453 311.196 357.44 310.107Z" fill="#090E1D"/>
<path d="M199.424 192.761C199.112 205.057 202.934 216.885 210.343 226.768C211.201 227.935 213.307 226.768 212.371 225.6C205.196 216.107 201.452 204.745 201.764 192.839C201.764 191.283 199.424 191.283 199.424 192.761Z" fill="#3D4966"/>
<path d="M191.238 216.962C194.045 227.623 199.427 237.116 207.226 244.976C208.318 246.065 209.956 244.431 208.864 243.342C201.377 235.793 196.151 226.611 193.499 216.339C193.109 214.938 190.848 215.483 191.238 216.962Z" fill="#3D4966"/>
<path d="M277.104 16.5022C301.203 8.02008 328.189 10.2768 350.495 22.7275C351.821 23.4279 352.991 21.4825 351.665 20.7043C328.813 7.94226 301.125 5.52993 276.48 14.2455C275.076 14.7902 275.7 17.0469 277.104 16.5022Z" fill="#3D4966"/>
<path d="M326.239 2.34036C343.242 2.10691 359.62 8.56574 371.865 20.394C372.957 21.4056 374.595 19.7714 373.503 18.7598C360.868 6.54249 343.866 -0.227608 326.239 0.00584352C324.68 0.00584352 324.68 2.34036 326.239 2.34036Z" fill="#3D4966"/>
<path d="M148.95 212.303C138.635 211.246 128.123 211.643 117.808 213.559C115.626 213.955 113.511 214.418 111.461 214.947C105.841 208.008 99.1629 201.863 91.6255 197.237C89.7742 196.114 87.7906 195.056 85.8071 194.197C85.8732 207.479 82.7656 220.696 75.8232 231.136C77.8068 232.722 79.7242 234.639 81.5755 236.621C91.1626 246.863 100.75 261.732 116.486 252.546C117.345 252.084 118.205 251.555 119.064 251.159C122.436 250.101 125.941 249.441 129.445 248.912C134.999 248.119 140.421 248.119 145.776 248.78C141.743 237.48 145.181 224.462 148.95 212.303Z" fill="white"/>
<path d="M73.904 331.116C74.6974 326.292 75.5569 321.336 77.0115 316.645H29.4065C26.0345 334.552 25.175 353.121 26.4973 371.227H72.9122C71.9866 357.879 72.3172 344.464 73.904 331.116Z" fill="#A6CBFF"/>
<path d="M72.9151 371.229H26.5002C26.6324 372.881 26.7647 374.599 26.8969 376.251C27.492 382.66 29.0788 388.277 33.7732 392.903C37.7403 396.802 44.2859 399.841 49.906 399.643C55.9888 399.445 62.3362 397.396 66.5677 392.771C70.4026 388.542 73.8407 382.528 73.3118 376.647C73.1796 374.797 73.0473 373.013 72.9151 371.229Z" fill="#090E1D"/>
<path d="M174.671 277.921C162.241 269.925 149.943 261.731 137.248 254.132C114.438 240.454 83.6926 243.625 62.7993 259.551C54.2701 266.093 47.2615 273.229 41.5754 282.415C36.2198 291.071 32.6495 301.115 30.5337 311.028C30.137 312.878 29.7403 314.728 29.4097 316.578H77.0147C78.7337 310.895 81.3124 305.543 85.4117 301.115C97.379 288.032 111.661 291.732 124.884 300.719C133.81 306.732 142.736 312.547 151.728 318.296C153.381 319.354 155.034 320.411 156.687 321.468C164.687 308.186 173.481 295.499 182.473 282.943C179.828 281.291 177.25 279.639 174.671 277.921Z" fill="#0F67FE"/>
<mask id="mask0_1666_11059" style="mask-type:luminance" maskUnits="userSpaceOnUse" x="29" y="245" width="154" height="77">
<path d="M174.673 277.921C162.243 269.925 149.945 261.731 137.25 254.132C114.44 240.454 83.6947 243.625 62.8014 259.551C54.2721 266.093 47.2636 273.229 41.5775 282.415C36.2219 291.071 32.6515 301.115 30.5358 311.028C30.139 312.878 29.7423 314.728 29.4117 316.578H77.0168C78.7358 310.895 81.3144 305.543 85.4137 301.115C97.3811 288.032 111.663 291.732 124.886 300.719C133.812 306.732 142.738 312.547 151.73 318.296C153.383 319.354 155.036 320.411 156.689 321.468C164.689 308.186 173.483 295.499 182.475 282.943C179.83 281.291 177.252 279.639 174.673 277.921Z" fill="white"/>
</mask>
<g mask="url(#mask0_1666_11059)">
<path d="M93.6111 300.058C95.9914 297.547 98.57 295.301 101.215 293.12C102.471 292.063 103.727 290.741 105.314 290.08C107.364 289.287 109.81 289.486 111.926 289.882C118.67 291.005 125.149 294.177 131.166 297.349C144.919 304.618 157.746 313.605 170.176 322.988C173.019 325.103 175.796 327.284 178.507 329.464C180.821 331.315 184.127 328.077 181.747 326.226C173.482 319.486 164.82 313.208 155.96 307.195C148.621 302.173 141.018 297.415 133.15 293.252C126.802 289.948 119.992 286.644 112.918 285.389C110.008 284.926 106.901 284.728 104.058 285.653C102.537 286.181 101.347 286.974 100.091 288.032C96.7187 290.807 93.2806 293.649 90.2391 296.82C88.2556 298.935 91.5615 302.239 93.6111 300.058Z" fill="white"/>
</g>
<path d="M182.405 282.943C173.479 295.565 164.62 308.186 156.619 321.468C180.29 336.733 203.96 352.13 227.564 367.526C238.341 374.531 249.118 381.536 259.896 388.54C268.16 375.456 276.359 362.372 284.293 349.156C250.375 327.085 216.456 304.948 182.405 282.943Z" fill="#A6CBFF"/>
<path d="M288.391 351.731C287.068 350.872 285.746 350.013 284.423 349.154C276.489 362.436 268.291 375.52 260.026 388.538C261.745 389.662 263.464 390.785 265.249 391.908C275.431 398.516 291.366 394.155 296.986 383.384C302.937 371.82 299.3 358.802 288.391 351.731Z" fill="#090E1D"/>
<path d="M215.267 245.277C198.01 226.18 174.141 214.88 148.95 212.303C145.181 224.462 141.809 237.479 145.776 248.845C177.249 252.942 203.894 281.225 207.597 312.811C208.126 317.305 208.192 321.864 209.316 326.226C211.366 334.42 218.176 341.16 227.036 340.829C236.821 340.433 246.012 332.768 245.747 322.393C244.954 293.978 234.375 266.489 215.267 245.277ZM179.629 262.524C179.893 262.722 180.092 262.854 180.092 262.987C180.092 262.987 179.893 262.788 179.629 262.524Z" fill="#A6CBFF"/>
<path d="M85.8076 194.196C74.6336 189.239 61.6745 188.446 49.8393 191.684C22.7309 199.152 5.93691 225.452 5.34185 252.743C5.01126 268.602 10.1024 284.528 18.1026 298.074C22.9954 306.466 35.095 310.167 43.5581 304.682C52.0212 299.198 55.4594 288.228 50.1699 279.241C48.7153 276.796 47.3929 274.219 46.2028 271.642C43.0292 263.118 41.3101 253.734 43.7565 244.813C46.0045 236.751 52.8807 228.888 61.6083 227.17C67.4267 226.046 71.9228 227.897 75.8898 231.068C82.7661 220.694 85.8737 207.478 85.8076 194.196ZM44.2193 242.765C44.1532 242.633 44.4176 241.972 44.8143 241.245C44.5499 241.972 44.2193 242.831 44.2193 242.765ZM48.8475 234.439C49.112 234.042 49.3765 233.646 49.4426 233.646C49.5087 233.712 49.1781 234.042 48.8475 234.439ZM66.6333 226.773C66.0382 226.707 65.4432 226.641 64.8481 226.509C65.3109 226.575 65.9721 226.707 66.6333 226.773Z" fill="#A6CBFF"/>
<path d="M99.5601 196.113C102.073 194.461 103.064 191.024 102.469 188.051C101.874 185.077 99.9568 182.566 97.7749 180.452C95.7913 178.601 93.4772 176.949 91.8904 174.769C90.2374 172.588 89.3118 169.548 90.5019 167.103C91.9565 163.997 96.717 163.204 99.0972 165.649C100.882 167.5 101.61 170.738 104.122 171.266C104.982 171.465 105.907 171.2 106.701 170.87C110.007 169.284 111.329 165.253 111.726 161.552C112.056 157.918 111.792 154.019 113.313 150.715C114.833 147.345 118.999 144.768 122.239 146.618C124.949 148.204 125.412 151.773 126.14 154.746C126.933 157.72 129.379 161.156 132.355 160.297C133.611 159.967 134.537 158.909 135.528 158.05C137.909 155.936 141.281 154.614 144.388 155.341C147.496 156.068 150.074 159.372 149.281 162.478C148.487 165.716 144.917 167.235 141.743 168.359C138.834 169.35 135.925 170.407 133.016 171.398C130.371 172.324 127.131 174.438 128.057 177.081C128.85 179.394 132.421 179.791 133.346 182.104C134.338 184.615 131.495 186.927 128.983 187.853C125.677 189.042 121.71 189.835 119.924 192.875C119.263 193.998 118.999 195.452 118.073 196.443C117.214 197.368 115.891 197.831 114.635 198.095C108.883 199.284 102.535 197.566 98.2377 193.602L99.5601 196.113Z" fill="#090E1D"/>
<path d="M206.338 313.206L207.727 323.316C208.057 326.091 211.165 329.329 214.471 328.404C217.71 327.545 218.901 323.712 218.504 320.21L218.107 314.197L219.297 314.792L235.761 326.884C239.595 329.726 244.158 330.122 245.877 327.876L246.141 327.545C247.728 325.431 246.273 321.664 243.034 318.889C246.67 321.201 250.703 321.4 252.29 319.285L252.555 318.955C253.679 317.435 253.282 315.056 251.695 312.809C253.943 313.338 256.059 312.875 257.183 311.355C259.233 308.58 257.58 303.822 253.48 300.782L220.421 276.465L205.346 296.95L206.338 313.206Z" fill="#A6CBFF"/>
<path d="M204.224 297.014C204.753 305.208 205.348 313.336 206.472 321.53C206.803 323.711 207.067 325.627 208.654 327.345C210.638 329.526 213.877 330.385 216.456 328.667C220.952 325.693 219.431 318.821 219.101 314.327C218.572 314.592 218.109 314.922 217.58 315.186C223.597 318.358 228.952 323.38 234.506 327.345C237.482 329.526 242.507 332.103 245.945 329.327C249.912 326.156 246.54 320.869 243.697 318.292C243.3 318.821 242.903 319.349 242.507 319.878C245.283 321.464 249.647 323.116 252.424 320.605C255.003 318.358 254.011 314.922 252.424 312.411C252.028 312.873 251.697 313.402 251.3 313.865C254.738 314.459 258.243 313.402 258.838 309.569C259.433 305.671 256.656 302.301 253.879 300.054C249.78 296.75 245.548 293.512 241.449 290.274C240.457 289.481 239.068 290.869 240.06 291.662C243.168 294.107 246.275 296.485 249.317 298.93C250.441 299.789 251.565 300.649 252.689 301.574C254.276 302.895 255.73 304.283 256.524 306.265C257.912 309.768 255.995 312.675 251.961 311.948C251.168 311.816 250.375 312.609 250.837 313.402C251.895 315.186 252.887 318.094 250.705 319.481C248.589 320.803 245.35 319.217 243.564 318.16C242.639 317.631 241.515 318.953 242.374 319.746C244.159 321.398 247.201 324.834 245.217 327.411C243.102 330.12 238.473 327.742 236.358 326.222C234.705 325.098 233.118 323.843 231.465 322.653C227.365 319.614 223.266 315.913 218.704 313.534C218.109 313.204 217.183 313.6 217.183 314.393C217.448 318.292 219.299 328.27 212.952 327.411C207.861 326.75 208.191 319.085 207.662 315.12C206.935 309.768 206.737 303.094 206.34 297.146C206.142 295.759 204.158 295.759 204.224 297.014Z" fill="#090E1D"/>
<path d="M219.1 314.132C216.852 312.48 214.604 310.828 212.29 309.176C211.232 308.449 210.24 310.167 211.298 310.894C213.546 312.546 215.794 314.198 218.108 315.85C219.166 316.643 220.158 314.925 219.1 314.132Z" fill="#090E1D"/>
<path d="M246.075 320.144C240.125 315.783 234.174 311.421 228.157 306.994C227.099 306.267 226.108 307.985 227.165 308.712C233.116 313.073 239.067 317.435 245.083 321.862C246.075 322.589 247.067 320.871 246.075 320.144Z" fill="#090E1D"/>
<path d="M252.16 311.818C246.408 307.589 240.655 303.36 234.837 299.131C233.779 298.404 232.787 300.122 233.845 300.849C239.597 305.078 245.35 309.307 251.168 313.536C252.226 314.263 253.218 312.545 252.16 311.818Z" fill="#090E1D"/>
<path d="M255.994 305.079C250.242 312.876 244.556 320.674 238.803 328.538C238.076 329.595 239.795 330.586 240.522 329.529C246.275 321.731 251.961 313.934 257.713 306.07C258.506 305.013 256.787 304.022 255.994 305.079Z" fill="#090E1D"/>
<path d="M218.043 322.987C214.869 322.392 211.63 322.061 208.39 322.127C207.134 322.127 207.134 324.11 208.39 324.11C211.497 324.044 214.539 324.308 217.514 324.837C218.77 325.101 219.299 323.251 218.043 322.987Z" fill="#090E1D"/>
<path d="M54.463 300.323L55.6531 310.499C56.0499 313.274 53.868 317.173 50.3637 317.107C46.9917 317.107 44.8759 313.671 44.4131 310.169L43.2891 304.287L42.2973 305.146L29.3382 321.006C26.2967 324.706 21.9991 326.292 19.8172 324.442L19.4866 324.178C17.4369 322.526 17.8336 318.495 20.3461 314.992C17.3708 318.098 13.5359 319.354 11.4863 317.636L11.1557 317.371C9.70109 316.182 9.50273 313.737 10.4284 311.16C8.37873 312.283 6.19683 312.349 4.74223 311.16C2.03139 308.979 2.49422 303.957 5.734 299.992L31.7845 268.273L51.4877 284.331L54.463 300.323Z" fill="#A6CBFF"/>
<path d="M43.7531 305.808C45.5383 303.627 47.3235 301.446 49.1087 299.266C49.9021 298.275 48.5136 296.887 47.7202 297.878C45.935 300.059 44.1498 302.239 42.3646 304.42C41.5051 305.411 42.9597 306.799 43.7531 305.808Z" fill="#090E1D"/>
<path d="M19.1541 318.365C23.8485 312.616 28.5428 306.933 33.1711 301.184C33.9645 300.193 32.576 298.805 31.7826 299.796C27.0882 305.545 22.3939 311.228 17.7656 316.977C16.9722 317.902 18.3607 319.356 19.1541 318.365Z" fill="#090E1D"/>
<path d="M11.1552 311.823C15.6512 306.272 20.2133 300.721 24.7094 295.237C25.5028 294.245 24.1143 292.858 23.3209 293.849C18.8249 299.4 14.2627 304.95 9.76669 310.435C8.97327 311.426 10.3618 312.814 11.1552 311.823Z" fill="#090E1D"/>
<path d="M2.95551 306.273C10.493 312.419 17.9643 318.498 25.5018 324.644C26.4935 325.437 27.882 324.049 26.8903 323.256C19.3528 317.11 11.8815 311.031 4.34399 304.886C3.35222 304.026 1.96374 305.414 2.95551 306.273Z" fill="#090E1D"/>
<path d="M46.5927 314.399C49.3696 313.077 52.2788 312.086 55.2541 311.359C56.5104 311.095 55.9814 309.179 54.7252 309.443C51.5515 310.17 48.5101 311.293 45.6009 312.681C44.4108 313.276 45.4025 314.928 46.5927 314.399Z" fill="#090E1D"/>
<path d="M-2.59491 399.51C-2.59491 383.783 10.1659 371.029 25.902 371.029C41.6381 371.029 54.3989 383.783 54.3989 399.51H-2.59491Z" fill="#DCE1E8"/>
<path d="M295.535 385.895C281.584 378.56 276.295 361.313 283.634 347.37C290.973 333.427 308.23 328.141 322.181 335.475L295.535 385.895Z" fill="#DCE1E8"/>
<path d="M98.3028 217.456L102.997 200.011C101.344 200.474 99.4929 200.143 98.1044 198.954C95.8564 197.038 95.592 193.667 97.5094 191.487C99.4268 189.306 102.799 188.976 104.981 190.892C105.113 191.024 105.245 191.09 105.377 191.222L107.361 183.689C107.625 182.764 108.485 182.169 109.477 182.235C114.237 182.764 127.593 185.473 129.18 200.408C129.312 201.531 128.453 202.522 127.329 202.588L121.51 202.853L124.023 218.91C124.948 224.99 121.709 231.003 115.956 233.25C115.692 233.382 115.427 233.448 115.163 233.514C105.245 236.818 95.592 227.567 98.3028 217.456Z" fill="#A6CBFF"/>
<path d="M116.485 187.589C114.568 186.862 112.386 187.126 110.733 188.316C109.741 189.042 110.733 190.761 111.725 190.034C112.981 189.109 114.502 188.91 115.956 189.505C117.147 189.968 117.675 188.051 116.485 187.589Z" fill="#090E1D"/>
<path d="M118.731 187.192C121.177 189.042 123.624 190.892 126.07 192.743C126.07 192.148 126.07 191.619 126.07 191.024C124.946 191.685 123.822 192.214 122.566 192.61C121.309 192.941 121.838 194.857 123.095 194.527C124.483 194.13 125.872 193.536 127.128 192.743C127.789 192.346 127.723 191.487 127.128 191.024C124.681 189.174 122.235 187.324 119.789 185.474C118.731 184.681 117.739 186.399 118.731 187.192Z" fill="#090E1D"/>
<path d="M119.13 195.913C118.998 195.979 118.932 195.979 118.866 195.979C118.668 195.979 118.535 195.913 118.403 195.781C118.337 195.715 118.205 195.583 118.139 195.517C118.073 195.385 118.073 195.319 118.073 195.252C118.139 194.724 117.94 194.195 117.411 194.063C116.949 193.931 116.287 194.195 116.221 194.724C116.023 195.847 116.486 196.772 117.411 197.433C118.271 198.028 119.329 198.094 120.254 197.631C121.246 196.971 120.188 195.252 119.13 195.913Z" fill="#090E1D"/>
<path d="M282.839 347.703C280.856 345.787 278.476 343.54 277.748 340.764C276.955 337.659 278.806 335.676 280.79 333.694C282.641 331.844 284.823 329.729 284.559 326.821C284.426 325.169 283.501 323.914 282.575 322.658C281.715 321.535 280.393 320.478 280.129 319.024C279.534 315.984 281.451 315.984 282.972 315.125C286.344 313.275 285.947 309.971 284.691 306.733C284.228 305.544 282.311 306.072 282.773 307.262C283.633 309.508 284.492 311.491 281.98 313.407C281.253 313.936 280.261 314.068 279.534 314.663C278.343 315.654 277.881 316.909 278.013 318.429C278.476 323.187 285.286 325.566 281.054 330.588C279.005 332.967 276.162 334.883 275.699 338.187C275.038 342.549 278.542 346.315 281.451 349.091C282.377 350.016 283.765 348.562 282.839 347.703Z" fill="#090E1D"/>
<path d="M284.225 347.503C281.845 343.803 283.366 340.102 286.738 337.723C288.523 336.468 289.911 335.344 290.11 333.098C290.308 330.983 289.383 329.067 290.969 327.15C291.763 326.225 293.085 325.696 293.945 324.837C295.399 323.516 296.193 321.864 295.531 319.881C295.135 318.692 293.217 319.221 293.614 320.41C294.54 323.318 289.316 325.102 288.325 327.481C287.862 328.67 287.994 329.926 288.06 331.115C288.192 333.89 286.539 335.278 284.556 336.798C280.787 339.573 279.994 344.662 282.506 348.494C283.234 349.552 284.953 348.56 284.225 347.503Z" fill="#090E1D"/>
<path d="M25.8393 369.838C21.0127 368.384 17.3101 365.146 15.0621 360.653C14.9299 361.115 14.7976 361.578 14.7315 362.04C18.6986 359.265 25.112 368.054 26.765 370.631C27.0956 371.159 28.1535 371.358 28.4841 370.631C29.6742 367.855 31.3933 365.476 33.8396 363.758C35.4265 362.635 39.9225 359.86 42.0383 360.785C45.4764 362.238 40.8481 364.155 39.9886 364.617C38.534 365.344 37.0794 366.005 35.6248 366.666C32.385 368.054 29.0791 369.309 25.7071 370.432C24.517 370.829 25.0459 372.745 26.2361 372.349C29.0791 371.424 50.1047 365.41 44.683 359.727C42.5672 357.547 37.4761 359.529 35.2281 360.653C31.3933 362.569 28.4179 365.807 26.765 369.706C27.3601 369.706 27.889 369.706 28.4841 369.706C26.1038 366.005 19.0292 356.688 13.7397 360.388C13.2769 360.719 13.1447 361.247 13.4091 361.776C15.8555 366.732 20.0871 370.234 25.3765 371.886C26.5005 372.084 27.0295 370.168 25.8393 369.838Z" fill="#090E1D"/>
<path d="M-3.05745 400.037C16.3151 400.037 35.7539 400.037 55.1265 400.037C56.3827 400.037 56.3827 398.055 55.1265 398.055C35.7539 398.055 16.3151 398.055 -3.05745 398.055C-4.31369 398.055 -4.31369 400.037 -3.05745 400.037Z" fill="#090E1D"/>
<path d="M295.465 386.556C303.466 371.82 311.532 357.018 319.532 342.282C320.656 340.168 321.847 338.053 322.971 335.938C323.566 334.815 321.847 333.824 321.252 334.947C313.251 349.683 305.185 364.485 297.185 379.221C296.061 381.336 294.87 383.45 293.746 385.565C293.151 386.688 294.87 387.68 295.465 386.556Z" fill="#090E1D"/>
<path d="M18.8923 185.209C31.3225 174.239 48.2488 169.151 64.7122 171.398C65.9684 171.596 66.4974 169.68 65.2411 169.482C47.9843 167.103 30.5291 172.323 17.4377 183.821C16.5121 184.68 17.9006 186.068 18.8923 185.209Z" fill="#3D4966"/>
<path d="M39.3906 163.204C47.7215 159.768 56.5813 158.38 65.5733 159.239C66.8296 159.372 66.8296 157.389 65.5733 157.257C56.3829 156.398 47.3248 157.786 38.8616 161.288C37.7376 161.817 38.2666 163.733 39.3906 163.204Z" fill="#3D4966"/>
<path d="M15.0613 231.996C15.7886 229.22 17.4415 226.907 19.8218 225.321C20.8797 224.595 19.8879 222.876 18.83 223.603C15.9869 225.454 14.0034 228.163 13.1439 231.467C12.8133 232.722 14.7307 233.251 15.0613 231.996Z" fill="#090E1D"/>
<path d="M202.045 243.03C204.888 244.219 207.136 246.334 208.524 249.109C209.119 250.232 210.838 249.241 210.243 248.118C208.59 244.88 205.879 242.567 202.574 241.179C201.383 240.651 200.855 242.567 202.045 243.03Z" fill="#090E1D"/>
<path d="M283.962 349.022C290.111 334.22 307.765 328.405 321.649 336.334C322.773 336.995 323.765 335.277 322.641 334.616C307.566 325.96 288.723 332.502 282.045 348.493C281.582 349.682 283.499 350.145 283.962 349.022Z" fill="#090E1D"/>
</svg>
