<svg width="375" height="477" viewBox="0 0 375 477" fill="none" xmlns="http://www.w3.org/2000/svg">
<path d="M-229.585 264.394C-225.653 240.399 -222.538 218.217 -232.671 195.854C-243.318 172.372 -247.552 148.286 -244.497 124.835C-234.576 48.3164 -154.572 1.74637 -78.7426 0.0540089C-36.9713 -0.882832 5.1933 10.3895 40.1591 32.2088C69.3778 43.3602 112.571 50.7341 136.073 40.3381C158.426 30.4258 183.319 17.2798 208.273 24.2608C233.59 31.3626 252.01 53.6655 258.332 78.5975C261.931 92.7408 261.841 107.579 264.623 121.934C270.37 151.701 288.882 178.779 314.592 194.977C321.942 199.601 329.806 203.379 337.217 207.912C344.234 212.203 361.203 227.676 376.024 242.121C381.075 246.262 385.915 250.734 390.452 255.57C415.254 281.983 428.593 317.824 426.779 353.062C421.455 455.207 324.059 517.069 227.601 497.426C106.188 472.7 56.7217 551.602 -13.1127 551.602C-82.9471 551.602 -123.418 508.124 -180.918 497.637C-212.586 491.865 -242.41 475.637 -259.107 448.71C-298.337 385.307 -239.748 326.377 -229.585 264.394Z" fill="#EDF5FF"/>
<path d="M326.528 64.6442C318.899 62.4998 311.298 60.2966 303.698 58.5047C275.565 51.7778 244.338 50.5734 217.324 62.3529C202.065 68.9917 189.339 80.36 177.967 92.5214C141.645 131.297 115.574 180.765 71.4442 210.258C53.1797 222.478 32.588 230.674 13.6459 241.836C-19.1123 261.165 -46.8626 289.865 -62.3579 324.704C-77.8533 359.573 -80.4751 400.61 -66.7178 436.184C-60.2958 452.781 -50.1914 468.32 -35.9039 478.807C-20.2023 490.323 -0.582703 495.023 18.7128 497.343C45.3437 500.545 72.4753 499.664 98.8704 494.729C118.843 490.998 138.316 484.976 158.318 481.392C270.056 461.417 387.214 518.905 496.535 488.296C515.743 482.92 534.802 474.489 548.353 459.772C571.655 434.539 574.101 395.088 562.788 362.569C553.921 337.042 540.9 313.542 522.783 293.39C502.368 270.654 498.156 234.933 504.283 205.499C510.293 176.564 526.613 148.276 518.217 117.96C511 91.9045 480.657 66.2598 453.614 64.2035C431.166 62.4998 409.661 70.1961 387.626 72.9574C366.799 75.5718 346.56 70.2549 326.528 64.6442Z" fill="#D0E4FF"/>
<path d="M-60.6201 260.46C-58.3812 260.343 -56.1129 259.99 -54.0213 259.461C-23.7081 251.618 3.30562 233.171 20.6863 207.056C23.5733 202.708 26.3719 196.569 22.6601 191.81C21.1282 189.842 18.8304 188.608 16.5326 187.609C-0.37674 180.265 -20.2909 183.673 -35.8452 192.75C-51.5173 201.886 -63.4481 216.368 -72.7571 231.937C-75.703 236.931 -78.5311 242.453 -77.9124 248.211C-76.8519 257.905 -68.7507 260.842 -60.6201 260.46Z" fill="#D0E4FF"/>
<mask id="mask0_1666_11604" style="mask-type:luminance" maskUnits="userSpaceOnUse" x="-76" y="15" width="649" height="485">
<path d="M13.6462 241.807C-19.1121 261.136 -46.8623 289.836 -62.3577 324.675C-77.853 359.544 -80.4749 400.581 -66.7176 436.155C-60.2955 452.752 -50.1912 468.291 -35.9036 478.778C-20.2021 490.293 -0.582458 494.994 18.7131 497.314C45.3439 500.516 72.4755 499.635 98.8706 494.7C118.844 490.969 138.316 484.947 158.319 481.363C270.056 461.388 387.214 518.876 496.536 488.267C515.743 482.891 534.803 474.46 548.354 459.743C571.656 434.51 574.101 395.059 562.789 362.54C553.921 337.013 540.901 313.512 522.784 293.361L572.481 59.3568L409.043 15L53.9164 53.4524L13.6462 241.807Z" fill="white"/>
</mask>
<g mask="url(#mask0_1666_11604)">
<path d="M250.141 178.27C221.301 168.429 206.748 179.21 180.294 197.452C164.534 208.321 150.894 220.247 130.656 219.425C118.99 218.955 110.506 213.667 111.302 201.065C112.038 189.197 118.607 178.27 127.327 170.28C141.526 157.237 161.824 147.514 181.944 142.109C200.709 137.056 204.244 111.94 187.512 102.099C187.394 102.041 187.276 101.952 187.129 101.894C174.668 94.7555 159.644 93.6099 145.385 95.0787C67.8497 103.039 18.7418 174.275 37.5955 249.476C44.2827 276.09 68.8808 297.034 93.9208 305.553C136.96 320.211 172.252 302.557 204.156 275.15L250.141 178.27Z" fill="#78AEFF"/>
<path d="M299.573 181.914C299.573 181.885 299.573 181.885 299.573 181.914C286.876 180.151 271.823 178.918 260.481 178.213C256.799 177.978 253.058 177.801 249.375 177.948C225.013 206.178 187.158 243.485 215.173 275.974C225.926 288.341 244.131 275.974 251.585 261.962C265.666 233.879 276.418 204.18 299.573 181.914Z" fill="#78AEFF"/>
<path d="M278.892 269.362C279.717 281.729 292.119 292.451 306.2 289.161C315.774 287.252 323.345 280.936 328.972 273.24C330.386 258.846 332.006 244.422 332.625 230.087C333.302 214.107 336.513 195.189 322.432 187.463C319.692 185.965 316.746 185.025 313.712 184.32C303.932 194.69 295.801 206.675 288.819 219.865C280.541 234.699 277.242 252.031 278.892 269.362Z" fill="#78AEFF"/>
<path d="M306.202 289.161C292.15 292.451 279.718 281.729 278.893 269.362C277.244 252.03 280.543 234.699 288.821 219.864C295.773 206.675 303.904 194.689 313.714 184.32C311.975 183.909 310.208 183.586 308.44 183.262C305.701 182.763 302.725 182.322 299.603 181.882C276.448 204.148 265.696 233.847 251.614 261.9C244.161 275.912 225.956 288.309 215.203 275.912C187.188 243.453 225.013 206.116 249.405 177.887C245.31 178.063 241.274 178.592 237.386 179.914C223.157 184.702 213.318 195.042 205.423 207.791C196.556 222.097 191.783 237.313 185.833 253.058C174.491 283.051 172.341 317.39 171.81 350.261C195.024 350.702 218.679 352.318 241.716 350.144C270.939 348.411 299.456 344.151 328.031 340.009C327.559 335.985 327.176 331.931 326.911 327.848C325.703 309.753 327.206 291.452 329.032 273.151C323.347 280.935 315.746 287.251 306.202 289.161Z" fill="#D0E4FF"/>
<path d="M241.658 350.205C218.621 352.349 194.936 350.763 171.752 350.322C171.693 353.436 171.664 356.55 171.634 359.634C224.277 360.192 277.716 357.255 328.65 345.534C328.414 343.713 328.179 341.892 327.972 340.07C299.427 344.212 270.881 348.472 241.658 350.205Z" fill="#78AEFF"/>
<path d="M345.469 413.948C342.435 406.046 340.166 397.88 337.898 389.743C333.862 375.144 330.651 360.456 328.648 345.533C277.684 357.254 224.275 360.162 171.632 359.633C171.603 363.1 171.573 366.566 171.544 369.974C171.367 396.646 169.57 423.29 166.153 449.728C229.106 448.053 291.618 442.913 353.069 431.368C350.447 425.581 347.737 419.853 345.469 413.948Z" fill="#78AEFF"/>
<path d="M356.487 439.005C355.397 436.449 354.248 433.894 353.099 431.338C291.619 442.882 229.136 448.052 166.183 449.697C165.653 453.898 165.063 458.099 164.415 462.299C229.225 461.124 295.537 459.479 357.724 442.001C357.312 441.002 356.899 440.004 356.487 439.005Z" fill="#78AEFF"/>
<path d="M357.725 442.002C295.537 459.422 229.225 461.037 164.416 462.212C160.38 489.296 154.635 516.145 147.212 542.524H378.582C379.289 508.449 369.98 471.73 357.725 442.002Z" fill="#090E1D"/>
<path d="M280.511 261.344C279.657 228.796 287.994 189.345 321.135 174.745C330.12 170.78 340.048 169.399 349.857 169.194C394.34 168.371 438.057 193.34 461.064 231.293C466.043 239.518 470.138 248.36 472.229 257.76C474.527 268.189 474.262 279.087 472.436 289.633C470.462 300.971 466.691 311.987 461.271 322.18C454.642 334.665 445.657 345.739 436.319 356.373C425.861 368.3 414.637 380.021 400.497 387.217C386.357 394.414 368.652 396.383 354.777 388.657C346.499 384.045 344.731 373.176 337.661 366.86C330.591 360.545 325.112 352.496 307.761 357.078C301.015 358.87 294.828 364.951 288.318 367.36C285.225 368.505 282.22 365.538 283.339 362.454C285.578 356.197 291.234 351.027 297.303 347.825C303.253 344.682 310.294 343.742 316.804 341.744C319.721 340.834 318.955 336.486 315.921 336.721C311.119 337.074 305.757 339.306 303.224 339.923C292.913 342.508 284.812 348.501 275.12 353.348C272.881 354.464 270.083 353.994 268.521 352.026C265.929 348.765 269.14 345.123 272.115 342.978C282.397 335.576 297.421 327.204 312.268 324.207C314.035 323.855 314.418 321.593 313.682 320.183C312.651 318.274 308.409 319.625 306.788 319.684C300.926 320.007 294.681 321.652 289.26 323.943C283.575 326.322 277.919 329.436 272.056 331.111C268.021 332.256 265.016 327.351 267.844 324.266C273.647 317.95 282.426 314.014 290.704 310.9C299.983 307.434 309.587 304.203 319.485 304.438C329.383 304.673 339.723 309.02 344.643 317.598C356.073 305.936 368.416 293.539 376.164 279.204C376.989 277.677 377.814 276.032 377.578 274.328C377.313 272.301 373.071 268.218 371.451 266.955C348.325 248.771 313.328 249.183 288.907 265.545L280.511 261.344Z" fill="#78AEFF"/>
<path d="M378.877 273.975C376.402 265.574 363.794 259.787 356.547 256.908C344.91 252.296 332.273 251.092 319.9 252.648C318.191 252.854 318.191 255.557 319.9 255.351C330.593 254.029 341.405 254.705 351.686 258.024C356.694 259.64 361.525 261.902 365.944 264.722C369.391 266.925 375.047 270.509 376.255 274.709C376.755 276.325 379.348 275.62 378.877 273.975Z" fill="#090E1D"/>
<path d="M338.634 365.919C332.831 360.631 327.616 355.226 319.338 354.492C314.006 354.022 308.203 355.05 303.372 357.341C300.838 358.546 298.481 360.102 296.095 361.601C294.711 362.482 293.326 363.363 291.912 364.186C291.323 364.509 290.734 364.861 290.115 365.155C289.408 365.449 288.701 365.772 288.024 366.066C286.904 364.979 285.814 363.892 284.695 362.805C284.194 360.22 289.261 355.491 290.911 353.992C293.768 351.349 297.126 349.263 300.72 347.794C303.843 346.531 307.083 345.709 310.324 344.886C312.769 344.269 316.451 344.034 318.484 342.389C320.487 340.773 320.517 337.483 318.278 336.015C314.802 333.694 308.144 337.013 304.697 338.1C298.658 339.98 293.149 342.007 287.582 345.004C284.665 346.59 271.939 355.726 270.024 351.584C267.461 346.09 276.358 341.596 279.716 339.481C285.814 335.662 292.207 332.284 298.894 329.67C302.134 328.406 305.434 327.29 308.792 326.409C310.707 325.91 313.388 325.88 314.713 324.206C316.275 322.267 315.391 319.418 313.24 318.448C309.293 316.656 301.133 319.036 297.185 320.005C291.647 321.356 286.61 323.648 281.454 325.998C279.186 327.026 276.947 328.054 274.59 328.876C273.972 329.082 273.058 329.581 272.41 329.611C271.409 330.14 270.554 329.758 269.877 328.436C267.844 327.819 267.52 326.908 268.905 325.645C270.348 322.149 275.238 319.682 278.391 317.89C285.254 314.012 292.914 311.251 300.426 308.931C315.037 304.407 334.333 303.408 343.465 318.272C344.378 319.741 346.706 318.389 345.792 316.921C339.429 306.551 327.086 302.409 315.361 303.202C307.79 303.702 300.514 305.905 293.415 308.461C286.934 310.781 280.394 313.307 274.561 317.009C271.144 319.183 264.957 322.766 265.37 327.496C265.694 331.168 268.964 332.989 272.351 332.401C279.451 331.197 285.961 326.291 292.737 324.03C295.771 323.001 298.923 322.208 302.075 321.65C304.108 321.298 306.2 321.033 308.262 320.886C308.733 320.857 309.97 320.593 310.412 320.798C310.884 321.474 311.384 322.179 311.856 322.854C311.09 323.001 310.324 323.178 309.558 323.354C302.429 325.058 295.565 327.79 289.025 331.08C282.927 334.105 276.328 337.572 271.085 341.978C267.373 345.092 264.103 356.049 272.234 355.549C274.502 355.402 276.652 354.022 278.597 352.964C282.279 350.996 285.873 348.852 289.555 346.884C295.977 343.447 302.753 341.243 309.705 339.246C310.736 338.952 315.214 337.337 315.862 338.012C315.715 338.482 315.538 338.952 315.391 339.422C315.391 340.744 314.713 341.332 313.388 341.243C312.71 341.567 311.797 341.655 311.09 341.831C307.26 342.8 303.431 343.682 299.748 345.15C294.21 347.383 289.055 351.084 285.431 355.843C282.927 359.133 279.363 365.331 284.4 368.21C289.29 371.001 296.596 364.274 300.426 361.953C307.113 357.87 315.833 355.402 323.551 358.017C328.883 359.809 332.654 364.068 336.69 367.74C337.986 368.974 339.901 367.094 338.634 365.919Z" fill="#090E1D"/>
<path d="M281.838 261.343C281.425 242.484 283.163 222.95 291.824 205.853C299.572 190.549 312.386 178.035 329.178 173.305C360.434 164.493 396.609 175.185 422.68 192.958C437.704 203.21 450.431 216.517 459.916 231.997C460.83 233.466 463.157 232.115 462.244 230.646C444.745 202.093 416.199 180.796 383.795 172.101C367.327 167.665 349.21 166.138 332.448 169.751C315.627 173.364 301.929 184.027 292.914 198.51C281.248 217.222 278.715 239.782 279.186 261.373C279.186 263.077 281.897 263.077 281.838 261.343Z" fill="#090E1D"/>
<path d="M273.798 125.898C262.957 130.422 245.841 140.292 242.277 158.358L257.153 159.151L242.542 184.737C237.18 194.137 241.953 206.064 252.322 209.148C252.499 209.207 252.676 209.266 252.852 209.295C263.016 212.291 273.444 205.476 274.622 194.989L281.103 138.677C277.833 134.799 275.27 130.452 273.798 125.898Z" fill="#78AEFF"/>
<path d="M273.797 125.899C275.27 130.452 277.804 134.8 281.073 138.677L282.9 122.727C282.929 122.727 279.1 123.667 273.797 125.899Z" fill="#090E1D"/>
<path d="M289.969 155.158C286.346 157.39 281.633 156.274 279.394 152.661C277.155 149.047 278.274 144.347 281.898 142.115C285.521 139.882 290.235 140.999 292.473 144.612C294.683 148.225 293.563 152.925 289.969 155.158Z" fill="#78AEFF"/>
<path d="M282.754 150.574C285.494 149.957 288.263 149.34 291.003 148.782C292.711 148.43 291.975 145.844 290.295 146.197C287.526 146.755 284.787 147.372 282.047 147.989C280.338 148.371 281.045 150.956 282.754 150.574Z" fill="#090E1D"/>
<path d="M257.183 159.153L243.426 183.27L268.201 158.977L257.183 159.153Z" fill="#090E1D"/>
<path d="M265.58 128.924C260.866 130.775 256.123 133.008 251.852 135.71C251.086 136.21 250.88 137.59 251.852 138.031C253.649 138.824 255.446 139.588 257.243 140.381C258.804 141.057 260.189 138.765 258.598 138.06C256.801 137.267 255.004 136.503 253.207 135.71C253.207 136.474 253.207 137.267 253.207 138.031C257.272 135.446 261.809 133.272 266.287 131.51C267.907 130.893 267.2 128.308 265.58 128.924Z" fill="#090E1D"/>
<path d="M269.409 139.849C271.206 138.527 274.741 140.055 275.743 141.817C276.597 143.316 278.924 141.964 278.07 140.466C276.391 137.529 271.029 135.355 268.054 137.529C266.67 138.557 267.995 140.877 269.409 139.849Z" fill="#090E1D"/>
<path d="M282.664 127.362C287.584 133.531 291.679 132.767 299.515 133.707C308.117 134.735 324.938 125.864 333.569 126.686C357.107 128.889 354.662 144.253 366.593 153.036C374.988 159.205 386.035 162.348 396.405 161.202C416.201 159.028 414.345 140.581 449.608 151.391C456.059 153.359 464.219 159.528 470.7 161.437C487.138 166.255 509.409 161.672 521.399 149.481C533.389 137.291 539.133 123.602 535.068 107.005C531.474 92.2288 513.003 74.6917 484.133 81.213C476.356 82.9756 470.199 89.4088 462.363 90.8775C442.596 94.5494 425.481 71.9892 405.508 74.4567C387.214 76.7186 380.173 97.7807 361.732 97.7807C354.809 97.7807 348.416 94.4907 341.935 92.1113C335.455 89.7319 323.259 89.6144 317.278 93.0513C311.063 96.6057 308.618 104.185 303.904 109.56C298.778 115.465 276.802 114.466 282.664 127.362Z" fill="#090E1D"/>
<path d="M226.986 409.396C225.925 411.218 224.865 413.186 225.101 415.36C225.307 417.122 226.397 418.943 228.194 419.443C229.991 419.972 231.906 419.149 232.937 417.622C234.174 415.771 233.82 413.509 232.789 411.658C231.935 410.16 229.608 411.512 230.462 413.01C230.963 413.891 231.346 415.095 230.757 416.065C230.109 417.093 228.812 417.181 228.164 416.123C227.104 414.39 228.459 412.246 229.343 410.748C230.197 409.25 227.87 407.898 226.986 409.396Z" fill="#090E1D"/>
<path d="M217.795 278.613C215.969 272.356 220.034 264.043 222.685 258.491C225.484 252.557 229.107 247.094 233.349 242.07C234.469 240.749 232.554 238.839 231.435 240.161C226.397 246.154 222.184 252.734 219.091 259.931C216.617 265.688 213.376 273.003 215.203 279.318C215.674 280.993 218.266 280.288 217.795 278.613Z" fill="#090E1D"/>
<path d="M172.105 344.739C205.482 346.326 238.947 345.856 272.265 343.329C273.974 343.212 274.003 340.509 272.265 340.627C238.947 343.153 205.482 343.623 172.105 342.037C170.367 341.978 170.397 344.651 172.105 344.739Z" fill="#090E1D"/>
<path d="M162.618 474.724C229.519 480.247 297.186 471.963 360.758 450.49C362.378 449.932 361.701 447.346 360.051 447.905C296.685 469.319 229.283 477.544 162.618 472.022C160.909 471.904 160.909 474.607 162.618 474.724Z" fill="#D0E4FF"/>
<path d="M158.701 513.002C172.369 505.57 182.061 492.41 184.978 477.135C185.302 475.431 182.709 474.726 182.385 476.43C179.587 491.059 170.484 503.543 157.345 510.681C155.814 511.504 157.169 513.825 158.701 513.002Z" fill="#D0E4FF"/>
<path d="M332.036 461.92C335.66 480.544 353.306 494.468 372.306 493.792C374.045 493.733 374.045 491.031 372.306 491.119C354.425 491.765 338.046 478.723 334.629 461.215C334.305 459.511 331.712 460.216 332.036 461.92Z" fill="#D0E4FF"/>
<path d="M141.056 92.992L148.892 79.6556C151.868 74.5737 158.466 72.8699 163.533 75.8368L232.732 116.257C241.482 121.369 244.457 132.708 239.331 141.461C234.205 150.186 222.834 153.153 214.055 148.041L144.886 107.592C139.79 104.625 138.081 98.0446 141.056 92.992Z" fill="#3DD6DB"/>
<path d="M244.504 151.188L250.4 141.15L207.542 116.12L201.646 126.157L244.504 151.188Z" fill="#3DD6DB"/>
<path d="M244.811 139.26C243.249 141.933 241.688 144.577 240.127 147.25C239.243 148.748 241.57 150.099 242.454 148.601C244.015 145.928 245.577 143.284 247.138 140.611C248.022 139.113 245.695 137.762 244.811 139.26Z" fill="#D0E4FF"/>
<path d="M158.376 79.5083C152.013 86.3528 147.977 94.6366 146.622 103.89C146.386 105.594 148.979 106.299 149.214 104.595C150.481 95.8116 154.222 87.9097 160.291 81.4177C161.469 80.1546 159.555 78.2452 158.376 79.5083Z" fill="#090E1D"/>
<path d="M202.298 141.148L220.968 109.361L185.228 88.4874L166.557 120.274L202.298 141.148Z" fill="#D0E4FF"/>
<path d="M207.162 110.646C203.892 116.228 200.622 121.809 197.323 127.361C196.439 128.859 198.767 130.21 199.65 128.712C202.92 123.131 206.19 117.55 209.49 111.998C210.373 110.5 208.046 109.148 207.162 110.646Z" fill="#090E1D"/>
<path d="M200.652 106.857C197.706 111.881 194.731 116.933 191.785 121.956C190.901 123.454 193.228 124.806 194.112 123.308C197.058 118.284 200.033 113.232 202.979 108.209C203.863 106.711 201.536 105.359 200.652 106.857Z" fill="#090E1D"/>
<path d="M247.992 147.014C250.084 149.04 253 149.775 255.799 148.982C257.448 148.512 256.741 145.897 255.092 146.397C253.206 146.925 251.321 146.485 249.907 145.104C248.64 143.929 246.725 145.809 247.992 147.014Z" fill="#090E1D"/>
<path d="M247.196 150.776C248.64 150.834 250.083 150.247 251.085 149.16C252.263 147.897 250.378 145.987 249.17 147.25C248.64 147.838 247.992 148.102 247.196 148.073C245.458 148.014 245.488 150.717 247.196 150.776Z" fill="#090E1D"/>
<path d="M181.56 140.64C185.891 139.905 190.516 139.024 193.698 135.998C196.732 133.12 197.91 128.801 198.205 124.66C198.823 115.788 195.76 106.682 189.897 99.9843C189.19 99.1617 188.365 98.3392 187.305 98.1336C185.891 97.8692 184.506 98.8386 183.829 100.072C183.151 101.306 183.004 102.775 182.945 104.214C182.709 108.885 182.975 113.585 183.711 118.226C177.878 116.17 171.81 114.408 165.653 114.819C159.496 115.23 153.192 118.226 150.305 123.661C149.303 125.511 148.743 127.744 149.391 129.742C150.01 131.768 152.102 133.384 154.164 133.002L181.56 140.64Z" fill="#78AEFF"/>
<path d="M148.539 121.489C156.935 117.729 165.979 116.612 175.052 118.228C176.761 118.522 177.468 115.937 175.759 115.643C165.92 113.881 156.287 115.085 147.184 119.168C145.593 119.873 146.978 122.194 148.539 121.489Z" fill="#090E1D"/>
<path d="M186.687 98.4288C184.596 102.013 186.746 107.095 190.87 107.917C192.579 108.27 193.286 105.655 191.577 105.332C189.162 104.833 187.718 101.983 188.985 99.8095C189.869 98.2819 187.542 96.9307 186.687 98.4288Z" fill="#090E1D"/>
<path d="M123.794 127.009C125.856 125.628 127.889 124.218 129.951 122.838C131.365 121.868 130.04 119.548 128.596 120.517C126.534 121.898 124.501 123.308 122.439 124.688C120.996 125.658 122.351 127.979 123.794 127.009Z" fill="#090E1D"/>
<path d="M128.861 129.537C130.216 128.068 131.865 127.01 133.78 126.482C135.459 126.012 134.752 123.427 133.073 123.897C130.716 124.572 128.625 125.835 126.946 127.657C125.797 128.92 127.682 130.8 128.861 129.537Z" fill="#090E1D"/>
<path d="M111.539 210.963C116.105 220.011 124 226.62 133.663 229.675C135.312 230.204 136.019 227.59 134.37 227.09C125.326 224.241 118.108 218.043 113.866 209.612C113.1 208.055 110.773 209.406 111.539 210.963Z" fill="#090E1D"/>
<path d="M309.53 395.237C309.206 395.09 307.527 402.492 306.231 407.839C305.877 409.307 305.465 410.835 305.759 412.333C306.083 413.831 307.291 415.271 309.029 415.564C311.298 415.946 313.419 414.184 313.92 412.274C314.42 410.365 313.713 408.397 313.036 406.517C311.74 402.992 309.53 395.237 309.53 395.237Z" fill="#3DD6DB"/>
<path d="M268.525 179.913C268.201 179.737 266.227 187.081 264.695 192.368C264.283 193.837 263.782 195.335 264.047 196.833C264.312 198.332 265.432 199.83 267.17 200.212C269.409 200.682 271.618 199.007 272.178 197.127C272.738 195.247 272.119 193.22 271.53 191.34C270.41 187.756 268.525 179.913 268.525 179.913Z" fill="#3DD6DB"/>
<path d="M113.747 268.804C113.423 268.628 111.45 275.971 109.918 281.259C109.505 282.728 109.004 284.226 109.27 285.724C109.535 287.222 110.654 288.72 112.392 289.102C114.631 289.572 116.841 287.898 117.4 286.018C117.96 284.138 117.341 282.111 116.752 280.231C115.603 276.647 113.747 268.804 113.747 268.804Z" fill="#3DD6DB"/>
<path d="M78.3062 176.478C77.9821 176.301 76.0084 183.645 74.4765 188.933C74.0641 190.402 73.5633 191.9 73.8285 193.398C74.0936 194.896 75.213 196.394 76.9511 196.776C79.19 197.246 81.3994 195.572 81.9591 193.692C82.5188 191.782 81.9002 189.785 81.311 187.905C80.1621 184.35 78.3062 176.478 78.3062 176.478Z" fill="#3DD6DB"/>
<path d="M283.786 122.719C291.18 121.691 295.098 115.111 297.396 108.649C300.695 99.4541 303.788 91.6697 312.92 86.8227C321.817 82.0933 330.301 83.5621 339.551 86.1177C346.562 88.0565 354.428 89.6721 360.555 84.5902C366.742 79.4495 368.509 70.8425 374.136 65.1437C380.087 59.1805 388.512 55.7436 396.937 55.7436C406.423 55.7142 413.758 61.9418 422.89 63.1168C429.607 63.9687 439.564 62.4118 442.569 55.2736C444.425 50.8379 441.832 43.3766 436 44.1403C431.139 44.7866 429.195 51.3667 433.083 54.2748C434.468 55.303 435.823 52.9823 434.438 51.9542C433.437 51.1904 433.466 49.6335 434.026 48.6641C434.762 47.401 434.939 47.5479 436.589 47.4304C439.652 47.1954 441.066 50.4266 440.448 53.2173C439.27 58.4755 432.199 60.3555 427.604 60.5905C419.326 61.0311 412.963 56.1842 405.333 54.1279C394.521 51.2198 382.473 54.3042 374.048 61.5305C369.481 65.4668 366.919 70.4313 364.032 75.6013C362.352 78.5976 360.408 81.682 357.403 83.5327C353.456 85.9415 348.86 85.589 344.53 84.6489C337.99 83.2389 331.745 80.507 324.94 80.8008C319.431 81.0358 314.04 82.7983 309.415 85.7946C304.23 89.114 300.165 93.8434 297.808 99.5423C294.597 107.209 293.183 118.724 283.138 120.134C281.341 120.369 282.077 122.954 283.786 122.719Z" fill="#090E1D"/>
<path d="M246.255 101.598C246.255 98.2495 246.255 94.9007 246.255 91.5225C246.255 89.7894 243.545 89.7894 243.545 91.5225C243.545 94.8713 243.545 98.2201 243.545 101.598C243.574 103.331 246.255 103.331 246.255 101.598Z" fill="#090E1D"/>
<path d="M254.385 102.478C254.768 98.8358 255.151 95.1638 255.534 91.5213C255.71 89.7881 253.03 89.8175 252.853 91.5213C252.47 95.1638 252.087 98.8358 251.704 102.478C251.498 104.211 254.208 104.211 254.385 102.478Z" fill="#090E1D"/>
<path d="M260.865 104.183C263.28 100.687 265.107 96.8686 266.285 92.7855C266.786 91.1111 264.164 90.4061 263.693 92.0805C262.544 95.958 260.835 99.5124 258.537 102.832C257.536 104.242 259.893 105.593 260.865 104.183Z" fill="#090E1D"/>
</g>
</svg>
