<svg width="375" height="572" viewBox="0 0 375 572" fill="none" xmlns="http://www.w3.org/2000/svg">
<path d="M-84.9635 245.421C-71.1239 226.27 -58.719 208.361 -56.1495 185.076C-53.4571 160.623 -45.6899 138.176 -32.754 119.148C9.4193 57.0446 90.4569 48.3927 147.991 76.812C179.687 92.4631 206.132 118.802 222.4 151.403C239.209 172.536 268.195 195.917 290.509 196.209C311.743 196.466 336.348 194.933 351.859 210.788C367.586 226.891 371.248 253.39 364.659 277.39C360.931 291.009 354.125 303.775 349.69 317.255C340.475 345.2 342.037 375.854 353.928 399.958C357.331 406.844 361.502 413.201 364.991 420.032C368.296 426.499 373.972 446.534 378.508 464.836C380.409 470.398 382.001 476.164 383.202 482.123C389.775 514.682 383.486 550.859 366.126 580.543C315.758 666.566 214.756 681.557 151.468 626.603C71.8058 557.432 -1.05295 606.009 -53.3308 578.492C-105.609 550.975 -116.162 497.52 -154.444 465.816C-175.53 448.358 -190.487 422.606 -190.759 392.798C-191.336 322.642 -120.717 294.889 -84.9635 245.421Z" fill="#F5EEFF"/>
<path d="M218.937 557.369L20.1161 572.877C14.3758 573.311 9.33137 569.065 8.89651 563.347L-22.4139 184.213C-22.8488 178.495 -15.9779 172.95 -10.3246 172.517L188.497 170.091C194.237 169.658 199.281 173.903 199.716 179.621L228.505 546.192C228.939 551.911 224.591 556.936 218.937 557.369Z" fill="#8A3FFC"/>
<path d="M302.608 277.612L295.302 242.004L289.301 245.902C286.17 247.982 282.082 245.729 281.647 241.744C280.429 229.614 281.821 207.954 307.217 204.489C309.218 204.229 311.218 205.268 312.262 207.174C318.437 218.524 340.267 258.725 350.269 277.092C352.356 280.991 349.573 285.843 345.486 285.496L307.13 282.031C304.869 281.684 303.043 279.952 302.608 277.612Z" fill="#BE95FF"/>
<path d="M395.41 573.659H277.3C268.603 573.659 263.645 562.915 268.864 555.291C273.647 548.273 280.17 546.8 290.868 545.501L286.346 499.842H384.713L395.41 573.659Z" fill="#BE95FF"/>
<path d="M408.63 343.022C408.63 360.177 379.32 378.198 364.621 387.122C348.879 396.652 336.007 395.612 336.007 395.612L345.661 409.908C347.313 412.074 348.096 414.673 348.096 417.272C348.096 420.911 346.531 424.463 343.574 426.802C338.964 430.355 332.528 429.662 328.788 424.983C324.179 419.351 316.873 410.081 305.392 395.092C281.04 363.209 308.958 356.105 308.958 356.105L354.793 326.647L340.53 308.453L371.753 284.107C387.06 293.031 399.324 307.673 405.673 325.954C407.673 331.586 408.63 337.304 408.63 343.022Z" fill="#BE95FF"/>
<path d="M307.044 395.093C283.213 363.21 310.523 356.105 310.523 356.105H268.08L275.124 410.948H319.046C315.741 406.616 311.74 401.331 307.044 395.093Z" fill="#BE95FF"/>
<path d="M347.226 411.033C348.357 412.939 348.879 415.105 348.879 417.271C348.879 420.91 347.313 424.462 344.443 426.802C339.92 430.354 333.571 429.661 329.918 424.982C327.309 421.69 323.743 417.185 319.047 411.033H275.125L286.605 499.839H385.146L372.274 411.033H347.226Z" fill="#090E1D"/>
<path d="M367.317 383.135C353.14 392.665 336.006 395.611 336.006 395.611L348.617 409.906C348.878 410.253 349.052 410.599 349.226 411.033H372.361L367.317 383.135Z" fill="#BE95FF"/>
<path d="M336.265 227.01C330.612 235.674 317.479 237.234 306.868 230.389C296.257 223.545 292.343 210.982 297.997 202.318C303.65 193.654 316.783 192.094 327.394 198.939C337.918 205.697 341.918 218.26 336.265 227.01Z" fill="#090E1D"/>
<path d="M323.134 204.659C331.571 191.403 343.834 181.266 355.923 171.303C358.793 168.877 361.75 166.451 365.229 165.065C368.708 163.679 372.883 163.332 376.101 165.238C379.406 167.058 381.232 171.476 379.58 174.855C378.536 176.934 376.449 178.234 374.448 179.447C355.575 190.623 336.093 200.847 316.176 210.117L323.134 204.659Z" fill="#090E1D"/>
<path d="M341.573 308.455L355.575 326.649L310.523 356.106H268.08L266.688 345.536C262.688 314.52 286.345 274.406 321.308 274.406C348.27 270.334 361.664 277.871 372.187 284.109L341.573 308.455Z" fill="#8A3FFC"/>
<path d="M315.335 231.554C318.901 228.001 318.901 222.241 315.335 218.689C311.769 215.136 305.987 215.136 302.42 218.689C298.854 222.241 298.854 228.001 302.42 231.554C305.987 235.106 311.769 235.106 315.335 231.554Z" fill="#BE95FF"/>
<mask id="mask0_40000005_8499" style="mask-type:luminance" maskUnits="userSpaceOnUse" x="-11" y="177" width="241" height="396">
<path d="M212.506 572.269L28.8178 571.922C23.0775 572.356 18.0331 568.11 17.5982 562.392L-10.4942 192.529C-10.9291 186.81 -11.103 180.746 -5.36278 180.312L189.11 177.8C194.85 177.367 199.895 181.612 200.33 187.33L228.509 546.017C232.162 572.442 218.246 571.836 212.506 572.269Z" fill="white"/>
</mask>
<g mask="url(#mask0_40000005_8499)">
<path d="M210.243 573.225L28.9038 571.925C23.1635 572.358 18.1191 568.113 17.6842 562.395L-10.4952 192.531C-10.8431 187.679 -11.7129 178.496 -5.97261 177.889L189.196 177.716C194.936 177.283 199.981 181.528 200.415 187.246L228.595 545.933C232.248 574.784 215.897 572.791 210.243 573.225Z" fill="white"/>
</g>
<mask id="mask1_40000005_8499" style="mask-type:luminance" maskUnits="userSpaceOnUse" x="-11" y="177" width="241" height="396">
<path d="M212.506 572.269L28.8178 571.922C23.0775 572.356 18.0331 568.11 17.5982 562.392L-10.4942 192.529C-10.9291 186.81 -11.103 180.746 -5.36278 180.312L189.11 177.8C194.85 177.367 199.895 181.612 200.33 187.33L228.509 546.017C232.162 572.442 218.246 571.836 212.506 572.269Z" fill="white"/>
</mask>
<g mask="url(#mask1_40000005_8499)">
<path d="M74.131 227.007C79.7843 235.671 93.0043 237.144 103.528 230.299C114.052 223.455 118.053 210.805 112.312 202.142C106.659 193.478 93.4391 192.005 82.9154 198.849C72.3916 205.694 68.4778 218.343 74.131 227.007Z" fill="#090E1D"/>
<path d="M87.1773 204.656C78.7409 191.487 66.3907 181.264 54.2144 171.387C51.3443 169.048 48.3872 166.622 44.8213 165.149C41.3423 163.763 37.1676 163.503 33.9496 165.322C30.7315 167.228 28.8181 171.56 30.4706 174.939C31.5143 177.018 33.6017 178.318 35.689 179.531C54.6493 190.621 74.1313 200.844 94.1352 210.028L87.1773 204.656Z" fill="#090E1D"/>
</g>
<mask id="mask2_40000005_8499" style="mask-type:luminance" maskUnits="userSpaceOnUse" x="-11" y="177" width="241" height="396">
<path d="M212.506 572.269L28.8178 571.922C23.0775 572.356 18.0331 568.11 17.5982 562.392L-10.4942 192.529C-10.9291 186.81 -11.103 180.746 -5.36278 180.312L189.11 177.8C194.85 177.367 199.895 181.612 200.33 187.33L228.509 546.017C232.162 572.442 218.246 571.836 212.506 572.269Z" fill="white"/>
</mask>
<g mask="url(#mask2_40000005_8499)">
<path d="M109.355 277.521L117.269 241.912L123.879 245.811C127.358 247.89 131.794 245.638 132.229 241.652C133.533 230.043 132.055 209.596 107.267 204.917C103.179 204.137 99.0916 206.044 97.0043 209.596L56.8225 277.174C54.4742 281.073 57.6053 285.925 62.1279 285.578L104.31 282.026C106.832 281.68 108.833 279.86 109.355 277.521Z" fill="#BE95FF"/>
</g>
<mask id="mask3_40000005_8499" style="mask-type:luminance" maskUnits="userSpaceOnUse" x="-11" y="177" width="241" height="396">
<path d="M212.506 572.269L28.8178 571.922C23.0775 572.356 18.0331 568.11 17.5982 562.392L-10.4942 192.529C-10.9291 186.81 -11.103 180.746 -5.36278 180.312L189.11 177.8C194.85 177.367 199.895 181.612 200.33 187.33L228.509 546.017C232.162 572.442 218.246 571.836 212.506 572.269Z" fill="white"/>
</mask>
<g mask="url(#mask3_40000005_8499)">
<path d="M7.24744 573.655H136.403C145.883 573.655 151.276 562.911 145.622 555.287C140.404 548.269 132.489 541.685 120.748 540.385L126.488 499.838H18.8149L7.24744 573.655Z" fill="#BE95FF"/>
</g>
<mask id="mask4_40000005_8499" style="mask-type:luminance" maskUnits="userSpaceOnUse" x="-11" y="177" width="241" height="396">
<path d="M212.506 572.269L28.8178 571.922C23.0775 572.356 18.0331 568.11 17.5982 562.392L-10.4942 192.529C-10.9291 186.81 -11.103 180.746 -5.36278 180.312L189.11 177.8C194.85 177.367 199.895 181.612 200.33 187.33L228.509 546.017C232.162 572.442 218.246 571.836 212.506 572.269Z" fill="white"/>
</mask>
<g mask="url(#mask4_40000005_8499)">
<path d="M66.5635 308.456L51.2562 326.65L100.396 356.107H146.753L149.971 333.061C154.32 302.044 130.228 274.406 98.8307 274.406H71.1731C57.5183 274.406 44.5592 277.872 33.0787 284.11L66.5635 308.456Z" fill="#BE95FF"/>
</g>
<mask id="mask5_40000005_8499" style="mask-type:luminance" maskUnits="userSpaceOnUse" x="-11" y="177" width="241" height="396">
<path d="M212.506 572.269L28.8178 571.922C23.0775 572.356 18.0331 568.11 17.5982 562.392L-10.4942 192.529C-10.9291 186.81 -11.103 180.746 -5.36278 180.312L189.11 177.8C194.85 177.367 199.895 181.612 200.33 187.33L228.509 546.017C232.162 572.442 218.246 571.836 212.506 572.269Z" fill="white"/>
</mask>
<g mask="url(#mask5_40000005_8499)">
<path d="M60.3022 411.037C59.0845 412.943 58.4757 415.109 58.4757 417.275C58.4757 420.914 60.1282 424.466 63.3462 426.805C68.3037 430.358 75.1746 429.665 79.1754 424.986C82.0455 421.694 85.8724 417.189 91.0908 411.037H139.013L126.489 499.842H18.8158L32.8185 411.037H60.3022Z" fill="#090E1D"/>
</g>
<mask id="mask6_40000005_8499" style="mask-type:luminance" maskUnits="userSpaceOnUse" x="-11" y="177" width="241" height="396">
<path d="M212.506 572.269L28.8178 571.922C23.0775 572.356 18.0331 568.11 17.5982 562.392L-10.4942 192.529C-10.9291 186.81 -11.103 180.746 -5.36278 180.312L189.11 177.8C194.85 177.367 199.895 181.612 200.33 187.33L228.509 546.017C232.162 572.442 218.246 571.836 212.506 572.269Z" fill="white"/>
</mask>
<g mask="url(#mask6_40000005_8499)">
<path d="M109.79 411.037C108.572 412.943 107.964 415.109 107.964 417.275C107.964 420.914 109.616 424.466 112.834 426.805C117.792 430.358 124.663 429.665 128.663 424.986C131.533 421.694 135.36 417.189 140.579 411.037H188.501L175.89 499.842H68.3037L82.3064 411.037H109.79Z" fill="#090E1D"/>
</g>
<mask id="mask7_40000005_8499" style="mask-type:luminance" maskUnits="userSpaceOnUse" x="-11" y="177" width="241" height="396">
<path d="M212.506 572.269L28.8178 571.922C23.0775 572.356 18.0331 568.11 17.5982 562.392L-10.4942 192.529C-10.9291 186.81 -11.103 180.746 -5.36278 180.312L189.11 177.8C194.85 177.367 199.895 181.612 200.33 187.33L228.509 546.017C232.162 572.442 218.246 571.836 212.506 572.269Z" fill="white"/>
</mask>
<g mask="url(#mask7_40000005_8499)">
<path d="M-6.31993 343.024C-6.31993 360.179 2.81229 376.64 18.5545 385.564L35.4273 395.094C52.3002 404.625 66.5639 403.152 66.5639 403.152L61.0845 409.91C59.345 412.076 58.4753 414.675 58.4753 417.274C58.4753 420.913 60.1278 424.465 63.3458 426.804C68.3033 430.357 75.1742 429.664 79.175 424.985C84.0455 419.353 91.0904 409.303 104.223 395.094C134.49 362.345 95.439 344.584 95.439 344.584L51.2565 326.649L66.5639 308.455L33.0791 284.109C16.6411 293.033 -3.71073 312.267 -10.4947 330.548C-12.582 336.18 -6.31993 337.306 -6.31993 343.024Z" fill="#BE95FF"/>
</g>
<mask id="mask8_40000005_8499" style="mask-type:luminance" maskUnits="userSpaceOnUse" x="-11" y="177" width="241" height="396">
<path d="M212.506 572.269L28.8178 571.922C23.0775 572.356 18.0331 568.11 17.5982 562.392L-10.4942 192.529C-10.9291 186.81 -11.103 180.746 -5.36278 180.312L189.11 177.8C194.85 177.367 199.895 181.612 200.33 187.33L228.509 546.017C232.162 572.442 218.246 571.836 212.506 572.269Z" fill="white"/>
</mask>
<g mask="url(#mask8_40000005_8499)">
<path d="M56.6484 573.655H185.804C195.284 573.655 200.677 562.911 195.023 555.287C189.805 548.269 181.89 541.685 170.149 540.385L175.889 499.838H68.3029L56.6484 573.655Z" fill="#BE95FF"/>
</g>
<mask id="mask9_40000005_8499" style="mask-type:luminance" maskUnits="userSpaceOnUse" x="-11" y="177" width="241" height="396">
<path d="M212.506 572.269L28.8178 571.922C23.0775 572.356 18.0331 568.11 17.5982 562.392L-10.4942 192.529C-10.9291 186.81 -11.103 180.746 -5.36278 180.312L189.11 177.8C194.85 177.367 199.895 181.612 200.33 187.33L228.509 546.017C232.162 572.442 218.246 571.836 212.506 572.269Z" fill="white"/>
</mask>
<g mask="url(#mask9_40000005_8499)">
<path d="M100.396 356.104C100.396 356.104 130.315 363.208 104.223 395.091C99.0918 401.329 94.7431 406.614 91.0902 411.033H188.501C210.244 401.156 210.679 370.486 189.109 360.089L181.021 356.19H100.396V356.104Z" fill="#BE95FF"/>
</g>
<mask id="mask10_40000005_8499" style="mask-type:luminance" maskUnits="userSpaceOnUse" x="-11" y="177" width="241" height="396">
<path d="M212.506 572.269L28.8178 571.922C23.0775 572.356 18.0331 568.11 17.5982 562.392L-10.4942 192.529C-10.9291 186.81 -11.103 180.746 -5.36278 180.312L189.11 177.8C194.85 177.367 199.895 181.612 200.33 187.33L228.509 546.017C232.162 572.442 218.246 571.836 212.506 572.269Z" fill="white"/>
</mask>
<g mask="url(#mask10_40000005_8499)">
<path d="M35.3389 395.092C52.2118 404.622 66.4755 403.149 66.4755 403.149L60.9961 409.907C60.7352 410.254 60.4743 410.6 60.2134 411.033H32.7297L35.3389 395.092Z" fill="#BE95FF"/>
</g>
<mask id="mask11_40000005_8499" style="mask-type:luminance" maskUnits="userSpaceOnUse" x="-11" y="177" width="241" height="396">
<path d="M212.506 572.269L28.8178 571.922C23.0775 572.356 18.0331 568.11 17.5982 562.392L-10.4942 192.529C-10.9291 186.81 -11.103 180.746 -5.36278 180.312L189.11 177.8C194.85 177.367 199.895 181.612 200.33 187.33L228.509 546.017C232.162 572.442 218.246 571.836 212.506 572.269Z" fill="white"/>
</mask>
<g mask="url(#mask11_40000005_8499)">
<path d="M66.5636 308.453L51.2563 326.648L100.396 356.105H180.934L184.5 332.366C191.371 289.479 141.622 273.278 98.7438 274.491H71.0862C57.4314 274.491 44.4723 277.956 32.9918 284.194L66.5636 308.453Z" fill="#8A3FFC"/>
</g>
<mask id="mask12_40000005_8499" style="mask-type:luminance" maskUnits="userSpaceOnUse" x="-20" y="139" width="362" height="429">
<path d="M331.047 499.499L160.281 566.096C155.109 568.591 148.856 566.477 146.342 561.312L-16.2463 227.22C-18.7605 222.055 -21.1602 216.472 -15.9876 213.978L163.742 140.79C168.914 138.295 175.167 140.41 177.681 145.575L336.225 469.23C349.37 492.5 336.22 497.005 331.047 499.499Z" fill="white"/>
</mask>
<g mask="url(#mask12_40000005_8499)">
<path d="M82.8151 234.946C88.2625 232.809 90.9324 226.67 88.7785 221.235C86.6247 215.8 80.4627 213.127 75.0153 215.264C69.5679 217.4 66.898 223.539 69.0519 228.974C71.2057 234.409 77.3677 237.083 82.8151 234.946Z" fill="#BE95FF"/>
</g>
<mask id="mask13_40000005_8499" style="mask-type:luminance" maskUnits="userSpaceOnUse" x="-11" y="177" width="241" height="396">
<path d="M212.506 572.269L28.8178 571.922C23.0775 572.356 18.0331 568.11 17.5982 562.392L-10.4942 192.529C-10.9291 186.81 -11.103 180.746 -5.36278 180.312L189.11 177.8C194.85 177.367 199.895 181.612 200.33 187.33L228.509 546.017C232.162 572.442 218.246 571.836 212.506 572.269Z" fill="white"/>
</mask>
<g mask="url(#mask13_40000005_8499)">
<path d="M59.8678 420.217C61.0855 414.932 63.1728 410.427 65.782 405.748C66.5648 404.275 64.3905 402.976 63.5207 404.449C60.8245 409.3 58.5632 414.066 57.3456 419.524C56.9977 421.17 59.5199 421.863 59.8678 420.217Z" fill="#090E1D"/>
<path d="M32.1259 396.218C42.5628 400.723 53.2605 404.102 64.3931 406.355C66.0456 406.701 66.7414 404.189 65.0889 403.842C54.2172 401.676 43.6934 398.384 33.4305 393.965C31.952 393.359 30.5604 395.525 32.1259 396.218Z" fill="#090E1D"/>
<path d="M97.5272 354.545C103.007 357.318 103.094 364.335 102.833 369.707C102.485 376.118 100.745 382.183 98.7449 388.161C94.7441 399.858 91.7 413.113 84.9161 423.51C83.9594 424.896 86.2207 426.196 87.1774 424.81C91.0912 418.918 93.1786 412.247 95.5269 405.576C98.1361 398.038 101.006 390.587 103.181 382.963C105.703 374.299 109.182 357.578 98.9188 352.293C97.3533 351.513 96.0487 353.765 97.5272 354.545Z" fill="#090E1D"/>
<path d="M58.6509 419.699C63.2605 419.18 68.1311 418.486 72.7406 419.699C77.3502 420.912 79.0027 423.425 81.7859 426.89C83.3514 428.883 87.0043 428.623 85.7867 425.504C85.6127 424.984 85.1779 424.551 84.569 424.551C84.3951 424.551 84.3081 424.551 84.1342 424.551C82.4817 424.638 82.4817 427.237 84.1342 427.15C84.3081 427.15 84.3951 427.15 84.569 427.15C84.1342 426.804 83.6993 426.544 83.3514 426.197C83.8733 425.244 83.7863 424.465 83.0905 423.771C82.8296 423.425 82.6556 423.165 82.3947 422.818C81.8729 422.125 81.1771 421.432 80.5683 420.826C79.1767 419.613 77.5242 418.66 75.8717 417.967C70.3924 415.801 64.4782 416.407 58.7379 417.1C56.9985 417.273 56.9985 419.959 58.6509 419.699Z" fill="#090E1D"/>
<path d="M67.1733 385.303C77.6971 387.642 88.4818 388.769 98.8316 391.888C100.484 392.408 101.093 389.895 99.5274 389.375C89.1776 386.256 78.3929 385.043 67.8691 382.791C66.2166 382.444 65.5208 384.957 67.1733 385.303Z" fill="#090E1D"/>
<path d="M77.2655 359.916C86.2238 361.129 94.9211 363.555 103.184 367.107C104.749 367.8 106.054 365.548 104.488 364.855C95.7908 361.043 86.7456 358.53 77.2655 357.317C75.613 357.057 75.613 359.656 77.2655 359.916Z" fill="#090E1D"/>
<path d="M54.6514 326.041C48.5632 322.316 42.3881 318.59 36.3 314.865C34.8214 313.998 33.5168 316.251 34.9954 317.117C41.0835 320.843 47.2586 324.568 53.3468 328.294C54.7384 329.16 56.043 326.908 54.6514 326.041Z" fill="#090E1D"/>
</g>
<mask id="mask14_40000005_8499" style="mask-type:luminance" maskUnits="userSpaceOnUse" x="-11" y="177" width="241" height="396">
<path d="M212.506 572.269L28.8178 571.922C23.0775 572.356 18.0331 568.11 17.5982 562.392L-10.4942 192.529C-10.9291 186.81 -11.103 180.746 -5.36278 180.312L189.11 177.8C194.85 177.367 199.895 181.612 200.33 187.33L228.509 546.017C232.162 572.442 218.246 571.836 212.506 572.269Z" fill="white"/>
</mask>
<g mask="url(#mask14_40000005_8499)">
<g opacity="0.38">
<path d="M-2.23129 180.317C-7.97154 180.75 -11.7114 179.797 -10.4938 192.533L-4.4926 276.227L90.8303 179.018L-2.23129 180.317Z" fill="#BE95FF"/>
<path d="M200.328 183.867C199.893 178.149 194.849 173.904 189.109 174.337L142.926 177.889L-1.01538 321.364L4.37697 390.329L201.198 194.264L200.328 183.867Z" fill="#BE95FF"/>
<path d="M207.376 273.453L204.506 236.111L7.68469 432.176L10.6418 469.518L207.376 273.453Z" fill="#BE95FF"/>
</g>
</g>
<path d="M-97.4702 573.914C-102.689 573.914 -107.385 571.315 -109.994 566.896C-112.517 562.651 -112.691 557.452 -110.342 553.12L-4.84345 367.799L0.461945 370.831L-104.95 556.066C-106.255 558.492 -106.168 561.351 -104.689 563.864C-103.21 566.376 -100.427 567.936 -97.4702 567.936L17.3348 566.809L17.4218 572.874L-97.4702 573.914Z" fill="#8A3FFC"/>
<path d="M322.7 414.067C317.917 408.435 313.133 402.804 308.524 397.086C305.741 393.62 303.131 390.155 300.609 386.602C297.913 382.704 294.434 377.938 294.521 373C294.695 363.989 306.349 360.004 312.698 355.585C319.656 350.647 326.005 345.015 331.659 338.691C332.789 337.478 330.963 335.572 329.832 336.871C322.787 344.669 314.699 351.513 305.654 357.145C299.566 360.87 291.825 364.769 291.912 373.087C291.999 381.491 299.044 389.201 303.914 395.439C309.394 402.457 315.134 409.215 320.874 415.973C322.005 417.186 323.831 415.367 322.7 414.067Z" fill="#090E1D"/>
<path d="M331.57 389.028C338.267 396.826 343.398 405.836 350.008 413.72C351.052 415.02 352.965 413.114 351.835 411.901C345.138 404.103 340.006 395.093 333.396 387.209C332.353 385.909 330.439 387.729 331.57 389.028Z" fill="#090E1D"/>
<path d="M335.136 426.892C335.658 419.008 343.138 413.116 350.879 414.069C352.531 414.243 352.531 411.643 350.879 411.47C341.573 410.431 333.136 417.708 332.527 426.892C332.44 428.625 335.05 428.538 335.136 426.892Z" fill="#090E1D"/>
<path d="M346.184 497.671C349.837 523.75 352.794 549.915 355.404 576.08C355.578 577.726 358.187 577.726 358.013 576.08C355.404 549.655 352.36 523.317 348.707 496.978C348.533 495.332 346.01 496.025 346.184 497.671Z" fill="#090E1D"/>
<path d="M273.385 572.094C266.688 570.362 268.08 561.264 272.951 558.232C278.256 554.94 284.344 557.366 289.302 560.225C290.78 561.091 292.085 558.838 290.606 557.972C283.735 553.987 274.255 551.561 268.515 558.752C264.427 563.864 265.819 572.787 272.777 574.52C274.342 574.953 275.038 572.527 273.385 572.094Z" fill="#090E1D"/>
<path d="M169.537 383.571C166.493 382.358 163.101 384.871 162.666 387.903C162.144 391.022 164.927 393.361 167.971 393.188C170.928 393.015 173.538 390.589 172.929 387.47C172.233 384.351 168.841 382.185 165.797 383.224C164.231 383.744 164.927 386.257 166.493 385.737C168.058 385.13 169.885 386.17 170.407 387.816C170.841 389.376 169.537 390.415 168.058 390.589C166.667 390.675 165.101 389.896 165.362 388.249C165.623 386.603 167.449 385.39 169.015 385.997C170.407 386.69 171.102 384.177 169.537 383.571Z" fill="#090E1D"/>
<path d="M272.339 379.496C272.948 382.182 273.47 384.781 274.079 387.467C274.427 389.113 276.949 388.42 276.601 386.773C275.992 384.088 275.47 381.488 274.861 378.803C274.514 377.156 271.991 377.85 272.339 379.496Z" fill="#090E1D"/>
<path d="M305.739 229.007C308.088 226.754 310.784 224.848 313.654 223.202C315.133 222.336 313.828 220.17 312.349 220.95C309.305 222.682 306.522 224.762 303.913 227.188C302.695 228.314 304.522 230.133 305.739 229.007Z" fill="#090E1D"/>
<path d="M75.6947 222.764C78.3909 224.237 81.0001 225.71 83.6963 227.183C85.1748 227.962 86.4794 225.71 85.0009 224.93C82.3047 223.457 79.6955 221.984 76.9993 220.511C75.5208 219.645 74.2162 221.898 75.6947 222.764Z" fill="#090E1D"/>
<path d="M286.953 221.207C289.562 220.86 292.084 221.12 294.607 221.986C296.172 222.506 296.868 219.994 295.302 219.474C292.606 218.521 289.823 218.261 286.953 218.608C285.3 218.781 285.3 221.467 286.953 221.207Z" fill="#090E1D"/>
<path d="M125.703 217.571C128.573 218.784 131.53 219.997 134.401 221.21C134.227 220.517 134.053 219.737 133.792 219.044C132.487 220.344 130.922 221.47 129.182 222.163C127.617 222.77 128.312 225.282 129.878 224.676C132.052 223.809 133.966 222.596 135.618 220.95C136.401 220.17 135.879 219.131 135.009 218.784C132.139 217.571 129.182 216.358 126.312 215.145C124.92 214.452 124.225 216.965 125.703 217.571Z" fill="#090E1D"/>
<path d="M281.91 221.641C280.344 223.98 278.866 226.232 277.3 228.572C276.692 229.438 277.561 230.478 278.431 230.564C280.084 230.738 281.736 230.911 283.389 231.084C285.041 231.258 285.041 228.658 283.389 228.485C281.736 228.312 280.084 228.139 278.431 227.965C278.779 228.658 279.214 229.265 279.562 229.958C281.127 227.619 282.606 225.366 284.171 223.027C285.128 221.641 282.867 220.254 281.91 221.641Z" fill="#090E1D"/>
<path d="M122.749 488.922C120.227 509.022 115.53 528.776 108.746 547.924C108.485 548.703 109.181 549.656 109.964 549.57C116.139 549.05 122.488 550.523 127.097 554.768C129.272 556.761 131.011 559.273 131.272 562.219C131.62 566.378 128.576 570.883 123.879 570.103C122.227 569.843 121.531 572.356 123.184 572.616C130.837 573.829 135.795 565.858 133.273 559.1C129.881 550.003 118.922 546.277 109.964 546.97C110.399 547.49 110.833 548.097 111.181 548.617C118.052 529.296 122.749 509.282 125.271 488.922C125.532 487.276 122.923 487.276 122.749 488.922Z" fill="#090E1D"/>
<path d="M98.3928 557.369C102.741 555.03 107.699 554.857 112.222 556.676C116.657 558.409 123.441 564.127 120.832 569.672C120.136 571.145 122.397 572.531 123.093 570.972C125.963 564.907 121.006 558.582 115.961 555.55C110.134 552.171 103.002 551.911 97.0881 555.117C95.6096 555.983 96.9142 558.236 98.3928 557.369Z" fill="#090E1D"/>
<path d="M167.713 554.248C172.148 549.05 187.542 551.562 187.89 559.36C188.325 569.67 175.54 570.71 168.234 569.67C166.582 569.41 165.886 571.923 167.539 572.182C173.366 572.962 180.063 573.309 185.107 569.67C188.673 567.157 191.108 562.479 190.326 558.06C189.369 552.949 184.585 550.523 179.802 549.743C175.192 549.05 169.104 548.617 165.799 552.515C164.755 553.728 166.582 555.548 167.713 554.248Z" fill="#090E1D"/>
<path opacity="0.38" d="M223.377 477.054L217.897 407.656L217.375 400.725L45.4288 571.924H128.054L223.377 477.054Z" fill="#BE95FF"/>
<path opacity="0.38" d="M225.203 500.445L153.363 572.009H217.462C223.202 571.576 232.161 564.039 228.508 542.639L225.203 500.445Z" fill="#BE95FF"/>
<path d="M122.746 234.636C125.443 234.636 128.139 234.636 130.835 234.636C132.487 234.636 132.487 232.037 130.835 232.037C128.139 232.037 125.443 232.037 122.746 232.037C121.094 232.037 121.094 234.636 122.746 234.636Z" fill="#090E1D"/>
<path d="M119.008 226.232C122.226 230.651 120.748 235.762 118.834 240.441C118.225 242 120.748 242.694 121.357 241.134C123.444 235.849 124.835 229.871 121.183 224.932C120.313 223.546 117.965 224.846 119.008 226.232Z" fill="#090E1D"/>
<path d="M280.865 237.32C282.604 237.32 284.431 237.32 286.17 237.32C287.822 237.32 287.822 234.721 286.17 234.721C284.431 234.721 282.604 234.721 280.865 234.721C279.212 234.721 279.212 237.32 280.865 237.32Z" fill="#090E1D"/>
<path d="M110.396 218.087C113.092 218.087 115.701 218.087 118.397 218.087C120.05 218.087 120.05 215.488 118.397 215.488C115.701 215.488 113.092 215.488 110.396 215.488C108.743 215.488 108.743 218.087 110.396 218.087Z" fill="#090E1D"/>
<path d="M342.79 402.025C351.053 398.386 358.794 393.881 366.099 388.596C367.404 387.643 366.186 385.391 364.795 386.344C357.489 391.629 349.748 396.047 341.486 399.773C339.92 400.466 341.312 402.718 342.79 402.025Z" fill="#090E1D"/>
</svg>
