<svg width="375" height="598" viewBox="0 0 375 598" fill="none" xmlns="http://www.w3.org/2000/svg">
<path d="M-176.369 266.398C-166.288 244.27 -157.471 223.679 -161.392 199.442C-165.516 173.992 -163.293 149.638 -154.201 127.806C-124.582 56.5582 -35.1722 32.5722 38.4527 50.8034C79.0108 60.8417 116.75 82.7658 144.779 112.983C170.056 131.399 209.809 149.83 235.214 145.954C259.382 142.243 286.85 136.077 309.104 149.351C331.676 162.837 343.611 189.187 343.181 214.904C342.95 229.496 338.975 243.793 337.9 258.375C335.649 288.609 346.42 319.59 366.989 341.958C372.871 348.345 379.471 354.051 385.436 360.367C391.084 366.347 403.407 385.725 413.926 403.548C417.716 408.867 421.215 414.451 424.327 420.306C441.345 452.294 444.829 490.379 433.846 523.91C401.951 621.094 291.751 655.282 203.807 611.056C93.1105 555.389 24.7027 618.577 -42.693 600.283C-110.089 581.989 -137.756 529.428 -190.501 504.244C-219.552 490.378 -244.083 466.903 -253.143 436.543C-274.394 365.078 -202.414 323.553 -176.369 266.398Z" fill="#EDF5FF"/>
<path d="M203.887 627.876C201.71 620.865 199.562 613.854 197.354 606.843C168.166 514.126 131.687 423.615 88.3432 336.368C81.6283 322.859 74.6715 309.29 64.7806 297.806C54.8898 286.323 41.702 276.954 26.5784 274.325C15.0543 272.33 3.22763 274.295 -8.20581 276.833C-17.401 278.888 -26.6566 281.366 -34.7931 286.051C-44.2 291.46 -51.7013 299.62 -57.6902 308.504C-83.2189 346.371 -82.009 395.147 -79.8614 440.478C-76.5947 509.442 -73.3583 578.435 -70.0916 647.399L203.887 627.876Z" fill="#0F67FE"/>
<path d="M40.1603 257.281C45.6955 259.246 51.1098 261.512 56.3728 264.111C80.1168 275.867 100.292 289.829 119.075 305.453C84.1699 365.32 62.5735 432.954 46.4517 499.832C37.2263 419.173 32.9312 338.514 40.1603 257.281Z" fill="white"/>
<path d="M-142.502 393.214C-140.627 344.8 -119.484 301.464 -79.8298 271.878C-45.469 246.22 0.537018 243.349 40.1608 257.311C32.9015 338.514 37.1966 419.173 46.4523 499.832C62.574 432.954 84.1705 365.32 119.076 305.453C140.672 323.404 160.454 343.531 181.657 364.988C204.615 388.227 237.161 400.044 269.616 404.214C291.908 407.085 317.195 405.665 332.954 389.708C333.77 399.439 334.617 409.17 335.434 418.901C337.249 440.116 339.064 461.603 335.797 482.637C332.56 503.7 323.728 524.613 307.455 538.454C284.709 557.796 251.074 559.911 222.461 551.328C193.847 542.746 168.984 525.006 144.756 507.569L-23.1163 601.404C-40.3874 587.23 -62.6494 579.887 -79.0433 564.746C-89.1459 555.408 -96.5262 543.562 -103.423 531.685C-128.739 487.956 -144.498 445.072 -142.502 393.214Z" fill="#0F67FE"/>
<path d="M191.133 438.079C184.023 418.339 209.706 391.03 248.498 377.082C287.289 363.135 324.5 367.83 331.61 387.57C338.72 407.31 313.037 434.619 274.245 448.567C235.454 462.514 198.243 457.819 191.133 438.079Z" fill="#090E1D"/>
<path d="M319.584 410.65C315.712 393.243 311.81 375.836 307.939 358.429C307.243 355.316 306.547 352.173 306.789 349C307.061 345.131 308.695 341.505 310.328 337.969C314.17 329.568 317.981 321.197 321.822 312.795C325.633 304.454 329.505 295.298 327.236 286.443C324.938 277.588 295.507 279.069 288.611 285.143C331.199 208.081 253.857 228.752 254.552 237.667C255.974 256.706 306.759 226.727 255.732 279.432C205.219 311.435 217.258 267.434 203.132 275.956C181.082 289.253 185.105 318.084 187.252 338.846C188.674 352.747 192.364 366.316 196.024 379.825C201.106 398.622 203.828 409.925 208.153 426.304C209.998 433.315 216.955 441.354 224.184 442.14C253.796 445.464 298.35 428.964 319.584 410.65Z" fill="#A6CBFF"/>
<path d="M192.847 433.92C198.594 450.542 203.041 467.526 206.217 484.812C206.519 486.565 203.857 487.29 203.555 485.537C200.409 468.251 195.933 451.267 190.186 434.646C189.581 432.953 192.242 432.228 192.847 433.92Z" fill="#090E1D"/>
<path d="M171.343 530.113C151.985 515.245 133.716 499.046 116.656 481.549C115.416 480.279 117.382 478.315 118.623 479.584C135.5 496.901 153.558 512.978 172.735 527.696C174.126 528.784 172.765 531.201 171.343 530.113Z" fill="#090E1D"/>
<path d="M218.679 308.443C227.511 317.842 239.368 331.653 243.481 343.862C252.162 369.55 231.201 370.879 219.949 369.217C217.953 368.915 211.813 371.574 210.421 371.03C204.977 368.854 201.377 375.019 198.504 369.912C196.931 367.132 196.447 363.868 196.024 360.695C195.6 357.643 195.177 354.621 194.753 351.568C193.937 345.675 193.09 339.722 193.816 333.829C194.511 327.936 196.961 322.012 201.589 318.265C205.703 314.971 211.117 313.702 216.38 313.43L218.679 308.443Z" fill="#A6CBFF"/>
<path d="M280.293 294.875C287.492 287.32 294.449 279.553 301.708 272.088C308.907 264.684 314.443 257.824 318.102 248.154C319.282 245.011 320.976 241.868 323.849 240.175C331.169 235.914 335.071 244.316 335.011 250.178C334.89 262.69 329.475 274.808 322.579 285.053C316.227 294.482 308.242 302.702 300.136 310.68C314.745 296.839 325.543 277.83 342.572 266.558C344.357 265.379 349.681 266.014 351.556 266.467C355.518 267.434 354.762 274.355 353.008 278.979C344.206 302.158 328.084 320.018 310.873 335.794L280.293 294.875Z" fill="#A6CBFF"/>
<path d="M346.656 285.478C346.504 280.129 347.654 274.992 349.983 270.186C350.769 268.585 353.159 269.975 352.372 271.577C350.255 275.959 349.287 280.613 349.408 285.478C349.469 287.261 346.716 287.261 346.656 285.478Z" fill="#090E1D"/>
<path d="M200.862 277.558C206.246 274.203 213.687 270.788 219.676 268.612C224.092 267.011 229.265 266.195 233.923 266.255C238.278 266.316 246.778 269.035 241.212 274.536C234.286 281.365 225.937 286.745 216.833 290.16L200.862 277.558Z" fill="#A6CBFF"/>
<path d="M200.167 276.35C207.366 271.968 215.654 267.737 223.912 265.894C229.417 264.655 237.462 263.506 242.302 267.374C252.314 275.353 222.248 289.466 217.166 291.46C215.503 292.095 214.777 289.436 216.44 288.801C222.49 286.444 228.207 283.331 233.379 279.433C235.526 277.831 238.672 275.776 240.215 273.54C242.907 269.611 239.428 268.462 236.131 267.858C224.486 265.743 211.117 272.905 201.559 278.737C200.046 279.674 198.655 277.287 200.167 276.35Z" fill="#090E1D"/>
<path d="M242.24 270.065C237.158 274.628 229.626 274.296 225.271 268.916C224.152 267.556 226.118 265.562 227.237 266.952C230.625 271.123 236.22 271.757 240.273 268.1C241.604 266.922 243.57 268.856 242.24 270.065Z" fill="#090E1D"/>
<path d="M119.892 236.851C132.898 230.988 134.41 210.922 124.52 200.647C114.629 190.372 97.8718 189.284 84.5933 194.572C77.4247 197.443 70.7099 201.946 63.0271 202.792C48.6899 204.394 36.4701 193.213 22.9193 188.317C8.4914 183.089 -8.44699 185.416 -20.9088 194.3C-28.9848 200.042 -35.3973 208.413 -44.6832 211.949C-54.937 215.848 -66.3704 213.037 -77.0779 210.62C-95.6194 206.449 -117.67 204.575 -131.039 218.024C-138.601 225.639 -141.746 236.881 -149.611 244.195C-160.984 254.742 -178.376 254.137 -193.893 253.744C-209.409 253.352 -227.376 255.074 -236.148 267.827C-248.035 285.144 -234.514 309.592 -241.199 329.508C-246.311 344.678 -261.858 353.594 -271.144 366.679C-287.356 389.465 -279.916 425.307 -255.96 439.813C-248.761 444.165 -240.594 446.703 -232.337 448.456C-219.33 451.237 -205.628 452.204 -192.804 448.668C-179.979 445.132 -168.092 436.61 -162.798 424.431C-157.535 412.343 -157.687 395.993 -146.011 389.828C-142.109 387.743 -137.512 387.35 -133.096 387.29C-121.541 387.078 -109.926 388.77 -98.4022 387.622C-86.878 386.474 -74.9303 381.91 -68.6389 372.209C-59.353 357.915 -64.7673 336.67 -53.0314 324.31C-41.7189 312.403 -21.3021 315.848 -7.63034 306.752C9.55006 295.298 10.3365 268.341 27.4564 256.797C38.3454 249.423 52.8035 250.511 65.6888 253.231C72.4945 254.681 80.5402 256.192 85.6822 251.508C88.344 249.091 89.5539 245.555 91.4292 242.502C96.8132 233.829 108.64 229.749 118.258 233.225L119.892 236.851Z" fill="#090E1D"/>
<path d="M126.124 212.552C129.179 199.678 114.569 191.368 104.043 189.131C91.5816 186.472 80.995 190.401 70.0758 196.022C62.151 200.102 54.2263 202.549 45.3639 200.071C37.6206 197.926 30.8755 193.241 24.1001 189.131C16.1753 184.326 7.73637 179.854 -1.82175 180.519C-10.8354 181.123 -18.9417 185.777 -26.3825 190.522C-40.7197 199.709 -54.3914 210.467 -72.3279 209.712C-92.1701 208.896 -114.039 195.84 -133.397 205.33C-142.985 210.044 -149.065 219.08 -150.759 229.446C-152.241 238.391 -153.3 246.309 -160.952 252.081C-176.288 263.656 -196.281 257.732 -213.764 258.065C-225.469 258.276 -236.57 262.296 -243.285 272.329C-249.244 281.214 -248.881 291.64 -248.367 301.885C-247.852 311.858 -247.278 322.858 -253.751 331.229C-258.953 337.968 -268.148 341.776 -276.617 340.084C-283.937 338.633 -291.015 331.169 -285.752 323.825C-280.792 316.904 -270.689 320.078 -269.116 327.935C-268.783 329.688 -271.445 330.413 -271.778 328.66C-272.534 324.913 -276.194 321.619 -280.217 322.918C-284.905 324.429 -285.964 330.232 -283 333.707C-279.309 338.029 -272.504 338.301 -267.422 337.031C-255.959 334.16 -251.21 323.462 -250.877 312.583C-250.605 303.366 -252.268 294.148 -250.968 284.961C-249.818 276.953 -245.947 269.579 -239.867 264.2C-224.592 250.721 -204.448 257.007 -186.178 256.644C-177.467 256.463 -167.697 254.589 -161.043 248.545C-153.027 241.232 -155.115 230.383 -151.485 221.105C-145.163 205.028 -128.981 197.926 -112.466 199.588C-93.4707 201.492 -74.7477 211.374 -55.692 204.423C-40.3567 198.832 -28.6813 186.442 -13.5274 180.458C-6.60083 177.738 0.839981 176.832 8.0993 178.615C16.0241 180.549 22.9507 185.173 29.8168 189.373C38.0743 194.45 47.3602 199.95 57.4627 197.956C68.6844 195.75 77.3956 187.5 88.9501 185.868C104.467 183.662 133.686 192.335 128.725 213.248C128.392 215 125.7 214.275 126.124 212.552Z" fill="#090E1D"/>
<path d="M54.044 295.542L112.966 202.553C112.966 202.553 146.298 246.252 127 282.909L108.701 269.794L101.623 313.765C99.0216 329.903 82.0529 339.452 66.8991 333.318C66.6269 333.227 66.3849 333.106 66.1127 333.015C51.2915 326.911 45.4841 309.02 54.044 295.542Z" fill="#A6CBFF"/>
<path d="M84.8042 241.87C78.3894 241.87 73.1893 236.674 73.1893 230.265C73.1893 223.856 78.3894 218.66 84.8042 218.66C91.2189 218.66 96.4191 223.856 96.4191 230.265C96.4191 236.674 91.2189 241.87 84.8042 241.87Z" fill="#A6CBFF"/>
<path d="M87.4038 235.342C84.742 232.017 82.0803 228.693 79.358 225.429C78.2389 224.069 80.1747 222.105 81.3241 223.465C84.0463 226.729 86.7081 230.053 89.3698 233.377C90.4587 234.767 88.4927 236.732 87.4038 235.342Z" fill="#090E1D"/>
<path d="M108.7 269.793L101.985 311.256L95.8753 259.186L108.7 269.793Z" fill="#090E1D"/>
<path d="M127.029 226.73C130.78 233.288 134.197 240.42 136.647 247.582C136.98 248.609 135.922 249.546 134.954 249.274C132.08 248.489 129.207 247.733 126.363 246.947C124.639 246.494 125.365 243.804 127.089 244.288C129.963 245.074 132.836 245.829 135.68 246.615C135.105 247.189 134.53 247.763 133.986 248.307C131.626 241.387 128.269 234.466 124.639 228.12C123.732 226.579 126.152 225.188 127.029 226.73Z" fill="#090E1D"/>
<path d="M333.832 243.288C332.35 248.124 332.985 252.989 335.677 257.281C336.614 258.792 334.225 260.182 333.287 258.671C330.232 253.775 329.506 248.063 331.17 242.563C331.654 240.841 334.346 241.566 333.832 243.288Z" fill="#090E1D"/>
<path d="M271.823 232.47C267.86 236.761 262.053 238.484 256.366 237.154C254.642 236.731 255.368 234.071 257.092 234.495C261.841 235.613 266.56 234.132 269.857 230.536C271.066 229.176 273.002 231.14 271.823 232.47Z" fill="#090E1D"/>
<path d="M326.541 281.306C317.134 294.513 304.854 305.211 290.456 312.706C288.883 313.522 287.462 311.134 289.065 310.318C303.039 303.065 315.017 292.73 324.152 279.916C325.18 278.466 327.569 279.856 326.541 281.306Z" fill="#090E1D"/>
<path d="M218.437 304.123C232.048 316.544 239.338 334.586 238.068 352.96C237.947 354.713 235.164 354.743 235.285 352.96C236.495 335.251 229.598 318.025 216.471 306.057C215.14 304.879 217.106 302.915 218.437 304.123Z" fill="#090E1D"/>
<path d="M277.238 323.041C270.039 327.362 265.049 333.98 261.328 341.384C257.426 349.181 253.555 358.278 252.163 366.921C251.891 368.674 249.199 367.918 249.501 366.196C250.984 356.827 255.248 346.915 259.695 338.544C263.536 331.291 268.769 324.914 275.847 320.653C277.359 319.746 278.781 322.134 277.238 323.041Z" fill="#090E1D"/>
<path d="M121.797 311.375C115.445 345.827 109.093 380.278 102.741 414.73C102.59 415.606 101.41 415.999 100.714 415.546C92.7592 410.559 84.8345 405.573 76.8795 400.556C75.3671 399.62 76.7585 397.202 78.2708 398.169C86.2258 403.155 94.1506 408.142 102.106 413.158C101.44 413.43 100.745 413.702 100.079 413.974C106.431 379.523 112.783 345.071 119.135 310.62C119.437 308.897 122.129 309.622 121.797 311.375Z" fill="#090E1D"/>
<path d="M36.1958 367.525C29.5112 369.006 22.8266 370.457 16.142 371.938C13.8129 372.451 7.67273 375.171 6.13012 371.817C5.49493 370.427 6.25114 368.583 6.61411 367.253C7.43078 364.05 8.3382 360.877 9.18512 357.674C10.9395 350.995 12.6938 344.316 14.3876 337.607C21.163 310.832 27.3637 283.905 32.9594 256.857C33.3224 255.105 35.9841 255.86 35.6211 257.583C30.8118 280.792 25.5791 303.941 19.8926 326.969C17.0796 338.332 14.1759 349.665 11.1512 360.998C10.879 362.025 8.21719 368.855 8.82213 369.701C10.0018 371.424 16.5049 369.006 18.0475 368.674C23.855 367.405 29.6927 366.105 35.5002 364.836C37.194 364.473 37.9199 367.133 36.1958 367.525Z" fill="#090E1D"/>
<path d="M84.4128 406.811C87.3771 416.633 90.3413 426.485 93.3055 436.307C94.6666 440.87 94.4549 440.568 91.2487 444.194C88.1635 447.73 85.1388 451.296 82.1745 454.953C70.0152 469.972 59.1564 486.02 49.5076 502.792C48.6304 504.333 46.2106 502.943 47.1181 501.402C55.92 486.11 65.7201 471.453 76.6091 457.552C79.3313 454.076 82.1141 450.661 84.9573 447.277C86.3789 445.584 87.8308 443.922 89.2826 442.26C91.2487 440.024 91.2184 439.026 90.3715 436.186C87.498 426.636 84.6246 417.086 81.7511 407.567C81.2369 405.814 83.8986 405.089 84.4128 406.811Z" fill="#090E1D"/>
<path d="M47.3597 504.577C37.1362 482.606 28.2133 460.092 20.6817 437.064C18.8064 431.322 17.0218 425.55 15.2977 419.747C14.3903 416.695 13.5434 413.643 12.6964 410.59C12.2427 408.928 11.0026 406.571 11.3353 404.849C11.7588 402.491 13.9668 399.651 14.9347 397.414C16.1749 394.483 17.2335 391.461 18.1107 388.378C19.8953 382.183 20.8329 375.807 21.1051 369.4C21.1959 367.617 23.9484 367.617 23.8879 369.4C23.404 380.007 21.1052 390.433 16.7496 400.134C15.4187 403.126 14.2088 404.849 14.9045 408.173C15.5397 411.255 16.6286 414.308 17.5058 417.33C19.1996 423.132 20.9842 428.904 22.8293 434.676C30.3911 458.037 39.4047 480.884 49.7795 503.156C50.4752 504.788 48.0856 506.178 47.3597 504.577Z" fill="#090E1D"/>
<path d="M223.821 482.547C220.079 482.547 217.046 479.516 217.046 475.777C217.046 472.039 220.079 469.008 223.821 469.008C227.563 469.008 230.597 472.039 230.597 475.777C230.597 479.516 227.563 482.547 223.821 482.547Z" fill="#090E1D"/>
<path d="M226.272 507.781C222.53 507.781 219.496 504.75 219.496 501.012C219.496 497.273 222.53 494.242 226.272 494.242C230.014 494.242 233.047 497.273 233.047 501.012C233.047 504.75 230.014 507.781 226.272 507.781Z" fill="#090E1D"/>
<path d="M236.405 367.164C244.057 327.937 242.666 287.26 237.222 247.822C236.677 243.773 242.908 242.02 243.452 246.1C250.47 297.233 251.377 353.927 233.32 403.308C231.444 402.008 229.569 400.678 227.694 399.349C231.444 388.862 234.288 378.043 236.405 367.164Z" fill="#090E1D"/>
<path d="M50.8704 369.401C51.3241 365.321 57.7971 365.291 57.3433 369.401C54.3489 395.391 53.381 423.194 62.6668 448.126C70.8033 470.006 89.9196 489.045 113.452 493.518C128.817 496.449 145 491.251 158.55 484.27C172.313 477.198 184.654 467.649 194.998 456.165C209.85 439.695 220.466 420.112 227.756 399.35C229.631 400.68 231.507 401.979 233.382 403.309C226.728 421.532 217.472 438.758 205.01 454.352C185.743 478.407 154.86 500.408 122.859 500.74C97.2999 501.012 72.9811 482.819 61.3965 460.94C46.6661 433.258 47.392 399.652 50.8704 369.401Z" fill="#090E1D"/>
<path d="M123.701 281.033C119.829 322.315 92.8789 355.074 55.7354 372.179C54.2835 372.844 52.0755 372.723 51.3193 371.03C31.0234 324.853 42.0636 268.582 76.7572 232.227C79.6306 229.205 84.198 233.768 81.3245 236.79C48.8088 270.849 37.829 324.339 56.8848 367.767C55.4027 367.374 53.9206 366.981 52.4687 366.618C87.4042 350.541 113.568 320.109 117.228 281.033C117.621 276.953 124.094 276.893 123.701 281.033Z" fill="#090E1D"/>
<path d="M88.7983 226.909C90.8249 230.052 90.6131 234.344 88.7378 237.517C86.923 240.599 83.2933 242.987 79.6031 242.715C77.3346 242.564 74.5216 241.566 73.5537 239.27C72.1926 236.036 71.1944 233.105 71.8296 229.538C72.4346 226.093 74.9753 223.162 78.363 222.225C81.0248 221.5 83.989 221.953 86.318 223.464C88.0724 224.582 89.4032 226.244 89.9779 228.269C90.6434 230.536 90.0989 232.53 89.1612 234.616C88.4958 236.096 86.5298 237.366 85.0174 237.789C83.3538 238.242 81.1458 238.03 79.6939 237.094C76.276 234.888 75.6105 231.17 77.2136 227.635C77.2438 227.574 77.2741 227.483 77.3044 227.423C77.0624 227.997 76.8204 228.571 76.5784 229.146C76.6087 229.085 76.6087 228.995 76.6389 228.934C76.5482 229.538 76.4877 230.173 76.3969 230.778C76.4272 230.082 76.5784 230.506 76.8204 231.986C76.9112 232.984 77.3044 233.83 78.0605 234.495C78.2723 234.676 79.7846 235.613 78.7562 235.099C79.3309 235.341 79.9056 235.583 80.4803 235.824C80.1778 235.703 79.8754 235.613 79.5427 235.583C80.1476 235.673 80.7828 235.734 81.3877 235.824C79.9056 235.703 82.9303 235.432 81.9624 235.703C82.8094 235.492 83.5655 235.069 84.2007 234.464C84.9569 233.407 85.1384 233.225 84.8057 233.89C85.0477 233.316 85.2896 232.742 85.5316 232.168C85.4106 232.53 85.3199 232.863 85.2896 233.225C85.3804 232.621 85.4408 231.986 85.5316 231.382C85.5013 231.684 85.6223 232.772 85.4409 231.624C85.2594 230.385 85.4711 231.684 85.5316 231.865C85.6828 232.44 86.4995 234.464 85.6526 232.47C83.626 231.321 81.6297 230.173 79.6031 229.025C80.3896 229.085 80.5711 228.753 78.9075 229.176C77.7581 229.72 77.4253 229.841 77.9093 229.599C78.3933 229.327 78.0908 229.569 77.0624 230.294C77.1229 230.234 77.2136 230.173 77.2741 230.113C77.7581 229.599 77.5766 229.871 76.6994 230.898C76.7902 230.657 77.0019 230.415 77.0926 230.173C76.8507 230.747 76.6087 231.321 76.3667 231.896C76.5179 231.533 76.6087 231.201 76.6692 230.838C76.5784 231.442 76.5179 232.077 76.4272 232.681C76.4877 231.956 76.1852 231.593 76.6087 233.377C76.3667 232.349 77.4556 234.978 76.8507 234.011C74.8846 230.959 76.1852 226.244 79.3914 224.582C82.7791 222.558 86.681 223.645 88.7983 226.909Z" fill="#090E1D"/>
<path d="M241.001 263.928C227.454 263.928 216.471 252.969 216.471 239.449C216.471 225.93 227.454 214.971 241.001 214.971C254.549 214.971 265.532 225.93 265.532 239.449C265.532 252.969 254.549 263.928 241.001 263.928Z" fill="#090E1D"/>
<path d="M217.862 239.45C218.195 252.052 228.146 262.508 241.001 262.538C253.584 262.569 264.171 251.991 264.14 239.45C264.11 226.848 253.645 216.361 241.001 216.361C228.146 216.331 218.165 226.848 217.862 239.45C217.832 241.233 215.049 241.233 215.079 239.45C215.352 228.842 221.582 219.232 231.655 215.334C241.909 211.375 253.917 214.427 260.934 222.889C276.088 241.112 259.664 269.126 236.313 264.865C223.942 262.599 215.412 251.78 215.11 239.45C215.049 237.667 217.802 237.667 217.862 239.45Z" fill="#090E1D"/>
<path d="M241.003 251.779C234.187 251.779 228.662 246.259 228.662 239.449C228.662 232.639 234.187 227.119 241.003 227.119C247.818 227.119 253.343 232.639 253.343 239.449C253.343 246.259 247.818 251.779 241.003 251.779Z" fill="white"/>
<path d="M344.808 185.266C339.515 189.739 334.252 194.211 328.959 198.684C325.813 201.343 321.215 196.81 324.391 194.121C329.685 189.648 334.948 185.175 340.241 180.703C343.417 178.013 348.014 182.576 344.808 185.266Z" fill="#090E1D"/>
<path d="M319.463 163.718C315.016 169.43 311.084 175.474 307.545 181.79C305.519 185.417 299.923 182.153 301.95 178.526C305.761 171.727 310.086 165.32 314.895 159.155C317.436 155.891 322.003 160.485 319.463 163.718Z" fill="#090E1D"/>
<path d="M291.845 149.997C289.939 156.857 288.517 163.808 287.64 170.849C287.156 174.929 280.683 174.959 281.167 170.849C282.105 163.204 283.527 155.709 285.583 148.275C286.702 144.285 292.933 145.978 291.845 149.997Z" fill="#090E1D"/>
<path d="M115.688 234.315C112.239 234.315 108.761 234.315 105.313 234.315C103.528 234.315 103.528 231.564 105.313 231.564C108.761 231.564 112.239 231.564 115.688 231.564C117.472 231.564 117.472 234.315 115.688 234.315Z" fill="#090E1D"/>
<path d="M117.262 226.759C113.481 224.644 109.851 222.256 106.403 219.627C106.857 219.627 107.341 219.627 107.794 219.627C107.734 219.657 107.643 219.718 107.583 219.748C107.825 219.355 108.036 218.962 108.278 218.539C108.036 218.267 107.794 218.025 107.583 217.784C109.307 218.237 108.581 220.896 106.857 220.443C105.254 220.02 105.072 218.056 106.433 217.24C106.827 216.998 107.462 216.968 107.825 217.24C111.273 219.869 114.903 222.226 118.683 224.372C120.226 225.248 118.835 227.636 117.262 226.759Z" fill="#090E1D"/>
<path d="M124.761 259.849C121.525 263.626 115.173 260.967 115.717 255.98C115.899 254.227 118.681 254.197 118.5 255.98C118.198 258.579 121.071 259.909 122.795 257.884C123.945 256.554 125.911 258.519 124.761 259.849Z" fill="#090E1D"/>
</svg>
