<svg width="375" height="477" viewBox="0 0 375 477" fill="none" xmlns="http://www.w3.org/2000/svg">
<path d="M-229.585 264.394C-225.653 240.399 -222.538 218.217 -232.671 195.854C-243.318 172.372 -247.552 148.286 -244.497 124.835C-234.576 48.3164 -154.572 1.74637 -78.7426 0.0540089C-36.9713 -0.882832 5.1933 10.3895 40.1591 32.2088C69.3778 43.3602 112.571 50.7341 136.073 40.3381C158.426 30.4258 183.319 17.2798 208.273 24.2608C233.59 31.3626 252.01 53.6655 258.332 78.5975C261.931 92.7408 261.841 107.579 264.623 121.934C270.37 151.701 288.882 178.779 314.592 194.977C321.942 199.601 329.806 203.379 337.217 207.912C344.234 212.203 361.203 227.676 376.024 242.121C381.075 246.262 385.915 250.734 390.452 255.57C415.254 281.983 428.593 317.824 426.779 353.062C421.455 455.207 324.059 517.069 227.601 497.426C106.188 472.7 56.7217 551.602 -13.1127 551.602C-82.9471 551.602 -123.418 508.124 -180.918 497.637C-212.586 491.865 -242.41 475.637 -259.107 448.71C-298.337 385.307 -239.748 326.377 -229.585 264.394Z" fill="#FFF1F3"/>
<path d="M226.503 224.383C227.263 225.358 227.915 226.225 228.566 227.2C229.544 228.283 230.412 229.367 231.281 230.558C229.652 228.5 228.132 226.441 226.503 224.383Z" fill="#FFB3BD"/>
<path d="M219.876 218.099C216.293 215.391 218.682 217.233 219.876 218.316C221.288 219.291 223.243 220.7 219.876 218.099Z" fill="#FFB3BD"/>
<path d="M241.162 247.785C241.596 248.869 242.03 249.952 242.465 251.035C243.116 252.444 243.768 253.852 244.311 255.261C243.333 252.769 242.247 250.277 241.162 247.785Z" fill="#FFB3BD"/>
<path d="M249.522 274.436C249.739 275.844 249.848 277.144 249.956 278.553C250.173 279.853 250.391 281.153 250.608 282.453C250.173 279.744 249.848 277.144 249.522 274.436Z" fill="#FFB3BD"/>
<path d="M249.413 312.356C249.195 313.872 249.087 315.389 248.87 316.798C249.195 314.198 249.63 311.597 249.955 309.105C249.738 310.189 249.63 311.272 249.413 312.356Z" fill="#FFB3BD"/>
<path d="M201.528 436.297C199.465 448.431 205.003 462.082 216.079 467.933C230.847 475.625 248.437 471.291 257.233 456.882C261.359 450.165 265.268 443.339 269.069 436.297H201.528Z" fill="#090E1D"/>
<path d="M304.79 342.584C306.201 336.3 307.504 329.908 308.482 323.516C287.85 325.249 267.11 326.441 246.371 327.524C242.787 343.125 237.792 358.51 232.037 373.461C231.169 375.736 230.191 378.011 229.323 380.286C232.363 371.944 229.323 380.395 228.345 382.453C227.802 383.645 227.259 384.837 226.716 386.137C224.979 389.929 223.242 393.612 221.396 397.404C216.401 407.48 210.863 417.339 204.999 426.982C203.153 429.907 202.068 433.157 201.416 436.516H269.065C285.027 406.83 297.406 374.978 304.79 342.584Z" fill="#FFB3BD"/>
<path d="M190.352 314.632C190.46 314.523 190.46 314.523 190.569 314.415C193.826 310.19 187.094 318.965 190.352 314.632Z" fill="#FFB3BD"/>
<path d="M310.118 277.47C307.621 254.719 301.648 233.484 290.898 213.116C280.148 192.856 263.752 171.512 242.252 161.978C234.651 158.62 227.702 156.778 219.34 158.945C212.174 160.895 204.464 166.312 200.989 172.921C195.886 182.563 195.994 196.431 202.401 205.857C199.361 207.265 196.646 209.107 194.691 211.707C171.563 241.068 148.434 270.428 126.065 300.439C140.181 314.74 155.601 327.632 171.237 340.2C172.649 338.358 173.952 336.516 175.363 334.674C180.358 327.957 185.462 321.24 190.565 314.523C190.565 314.523 190.565 314.523 190.565 314.415C190.457 314.523 190.457 314.523 190.348 314.631C186.982 318.965 193.714 310.189 190.565 314.415C191.868 312.79 193.063 311.056 194.366 309.431C197.08 305.964 199.686 302.497 202.401 299.03C214.02 283.971 225.856 269.02 237.583 254.069C238.994 252.335 240.297 250.493 241.383 248.76C241.709 249.518 242.143 250.277 242.469 251.035C242.143 250.168 241.818 249.41 241.492 248.543C242.469 250.818 243.338 252.985 244.315 255.26C243.772 253.852 243.121 252.443 242.469 251.035C245.835 259.919 248.333 269.128 249.853 278.554C249.744 277.145 249.636 275.845 249.419 274.437C249.744 277.145 250.07 279.745 250.505 282.454C250.287 281.154 250.07 279.854 249.853 278.554C250.939 289.821 250.613 301.089 249.31 312.356C249.527 311.273 249.636 310.189 249.853 309.106C249.527 311.706 249.093 314.306 248.767 316.798C248.984 315.281 249.201 313.765 249.31 312.356C248.441 317.448 247.464 322.54 246.378 327.524C267.118 326.44 287.749 325.249 308.489 323.515C310.878 308.239 311.856 292.638 310.118 277.47Z" fill="#FA4D5E"/>
<path d="M50.8165 470.859C65.2584 478.334 83.718 474.434 91.9705 459.808C96.5311 451.899 101.092 443.99 105.869 436.189H37.0261C33.4428 449.19 38.4377 464.467 50.8165 470.859Z" fill="#090E1D"/>
<path d="M171.235 340.201C155.599 327.633 140.179 314.74 126.063 300.439C106.518 326.55 87.6239 353.093 69.9244 380.395C59.3916 396.647 49.2931 413.114 39.7376 429.799C38.5432 431.857 37.6745 434.024 37.0229 436.299H105.866C118.571 415.39 132.144 394.913 146.152 374.762C154.404 363.169 162.765 351.577 171.235 340.201Z" fill="#FFB3BD"/>
<path d="M-7.28412 474.545C-7.50129 452.876 9.87244 435.217 31.5896 435C53.3068 434.783 71.0062 452.118 71.2234 473.786L-7.28412 474.545Z" fill="white"/>
<path d="M226.938 471.728C226.721 450.06 244.095 432.4 265.812 432.184C287.529 431.967 305.229 449.302 305.446 470.97L226.938 471.728Z" fill="white"/>
<path d="M159.182 189.064C158.639 188.306 158.096 187.547 157.553 186.789C144.414 193.506 131.601 200.982 120.526 210.407C115.096 214.958 110.101 220.05 105.649 225.792C93.5963 241.068 85.018 260.569 87.7327 280.504C90.5559 301.306 102.935 320.482 123.132 328.499C145.5 337.383 171.344 335 193.169 325.574C199.793 322.757 205.331 318.532 208.48 311.815C211.195 306.073 211.955 297.947 209.566 291.88C204.571 279.421 189.369 269.562 175.796 275.521C166.783 279.421 132.036 289.172 141.483 266.42C142.894 262.953 145.5 260.136 148.106 257.536C150.17 255.477 152.233 253.527 154.404 251.685C160.811 246.16 167.76 241.501 175.036 237.168C175.579 220.483 168.303 203.582 159.182 189.064Z" fill="#FFB3BD"/>
<path d="M195.228 129.045C196.097 120.919 192.296 114.744 184.152 112.469C176.008 110.194 167.104 112.577 159.503 116.044C151.902 119.511 145.061 124.17 137.243 127.095C119.001 133.92 94.6776 131.97 83.2761 146.38C81.5388 148.546 80.1271 151.797 81.213 154.505C82.8418 158.514 86.4251 157.322 89.7913 159.272C92.8317 161.006 92.6145 165.231 90.4428 167.723C88.2711 170.215 84.6877 171.515 81.4302 172.706C68.0741 177.798 55.261 184.191 43.6423 191.883C36.91 196.325 29.8519 202.5 31.0463 209.868C31.5893 213.551 38.5388 213.876 38.3216 217.56C37.7787 226.769 16.8216 233.919 17.5817 243.128C17.9075 247.462 22.5767 250.712 27.3544 251.471C32.1322 252.121 37.0186 250.821 41.4706 248.979C52.8721 244.428 70.5716 223.193 81.7559 218.101C99.1297 210.084 91.4201 228.394 103.799 230.236C115.418 231.969 123.779 216.585 128.665 209.542C136.592 198.058 144.844 185.491 158.2 178.449C160.589 177.148 163.521 176.065 166.236 176.823C168.407 177.365 170.036 179.099 172.099 179.857C178.723 182.24 184.261 174.765 186.324 168.698C190.559 155.48 193.599 142.371 195.228 129.045Z" fill="#FA4D5E"/>
<path d="M106.338 147.272C117.448 145.035 124.637 134.235 122.395 123.15C120.153 112.065 109.329 104.893 98.2192 107.129C87.1092 109.366 79.9202 120.166 82.1622 131.251C84.4041 142.336 95.228 149.508 106.338 147.272Z" fill="#090E1D"/>
<path d="M95.2806 56.2551C106.077 52.8115 112.031 41.2878 108.579 30.5161C105.128 19.7444 93.5783 13.8038 82.7823 17.2473C71.9863 20.6909 66.0322 32.2146 69.4835 42.9863C72.9349 53.758 84.4846 59.6986 95.2806 56.2551Z" fill="#090E1D"/>
<path d="M85.6665 43.7868L96.1865 115.613L104.89 114.344L94.3696 42.5179L85.6665 43.7868Z" fill="#090E1D"/>
<path d="M227.676 343.626C229.221 332.422 221.37 322.09 210.141 320.549C198.912 319.007 188.557 326.84 187.012 338.044C185.467 349.248 193.318 359.58 204.547 361.121C215.776 362.662 226.131 354.83 227.676 343.626Z" fill="#090E1D"/>
<path d="M199.576 229.151C210.869 228.392 220.751 236.843 221.511 248.219C222.271 259.486 213.801 269.345 202.4 270.104C191.107 270.862 181.225 262.412 180.465 251.036C179.705 239.768 188.283 230.018 199.576 229.151Z" fill="#090E1D"/>
<path d="M220.205 151.361C212.387 159.379 201.745 165.337 192.298 169.996C180.897 175.63 169.061 180.83 157.659 186.681C158.202 187.331 158.745 188.089 159.288 188.956C168.409 203.473 175.685 220.483 175.033 237.059C200.442 222.108 229.543 212.683 252.346 193.506C236.493 184.08 224.548 169.454 220.205 151.361Z" fill="white"/>
<path d="M283.294 138.252C285.792 119.509 282.208 99.8989 271.893 83.431C256.908 59.5959 229.436 44.7531 201.855 41.3946C179.052 38.5777 156.683 41.2862 134.423 46.7033C123.89 49.1951 113.249 52.337 103.259 56.779C96.6352 59.5959 91.0974 63.7129 87.8398 70.43C85.1251 76.1721 84.365 84.2977 86.7539 90.3648C91.7489 102.824 106.951 112.683 120.524 106.724C131.491 101.957 143.11 98.5988 154.729 95.9986C171.125 92.965 189.585 90.9065 205.655 96.2153C220.64 101.199 232.585 114.85 230.739 130.451C230.522 132.51 230.087 134.568 229.327 136.627C227.373 142.26 224.115 147.027 219.989 151.361C224.332 169.454 236.277 184.08 252.13 193.506C254.628 191.447 256.908 189.28 259.297 187.005C272.653 173.679 280.797 156.345 283.294 138.252Z" fill="#FFB3BD"/>
<path d="M107.496 108.35L96.8542 119.509C94.0309 122.651 87.9501 124.276 83.7153 121.134C79.589 118.101 80.5663 112.575 84.1496 108.675L90.882 101.524L87.733 101.741L71.6623 103.366C61.238 104.233 57.2204 99.6827 56.786 95.7824C56.786 88.9569 64.1698 88.8485 64.1698 88.8485H69.1648C61.9981 89.1736 55.8087 88.1985 55.7002 83.2148L55.5916 82.6731C54.9401 79.3145 57.9805 77.4727 62.1067 75.8476C58.4148 74.9809 56.0259 73.0307 55.483 70.5389C54.2885 63.9301 59.8264 60.2465 68.2961 59.3797L119.223 55.3711L121.069 106.833L107.496 108.35Z" fill="#FFB3BD"/>
<path d="M62.9744 91.0145C70.684 90.2561 78.3936 91.1228 86.1032 90.3644C87.6234 90.2561 87.6234 87.7642 86.1032 87.8726C78.3936 88.631 70.684 87.7642 62.9744 88.5226C61.4542 88.7393 61.4542 91.1228 62.9744 91.0145Z" fill="#090E1D"/>
<path d="M61.5629 77.6909C68.9467 77.0409 76.3306 77.1492 83.7144 76.4992C85.2346 76.3908 85.2346 73.899 83.7144 74.0073C76.3306 74.6574 68.9467 74.549 61.5629 75.1991C59.9341 75.4158 59.9341 77.9076 61.5629 77.6909Z" fill="#090E1D"/>
<path d="M83.2804 114.958C87.841 116.908 92.4017 118.966 96.9623 120.916C98.3739 121.566 99.6769 119.4 98.1567 118.858C93.5961 116.908 89.0355 114.849 84.4749 112.899C83.0633 112.141 81.7602 114.308 83.2804 114.958Z" fill="#090E1D"/>
<path d="M89.7968 103.258C93.3801 98.7074 92.9458 92.0986 87.1907 89.4984C85.7791 88.8483 84.4761 90.9068 85.9963 91.5569C90.1225 93.3987 90.774 98.0573 88.0594 101.524C87.1907 102.716 88.9281 104.449 89.7968 103.258Z" fill="#090E1D"/>
<path d="M86.7534 90.1479C93.7029 85.5975 91.4226 76.6052 84.0388 74.1133C84.1474 74.8717 84.2559 75.6301 84.3645 76.3885C92.2913 72.3799 92.0741 60.679 83.1701 58.1872C81.6499 57.7538 80.9984 60.1373 82.5186 60.5707C89.5766 62.5208 89.1423 71.2965 83.1701 74.33C82.1928 74.8717 82.5186 76.2802 83.4958 76.6052C88.2736 78.3387 90.9883 84.7308 85.6676 88.1977C84.1474 88.9561 85.3418 91.0146 86.7534 90.1479Z" fill="#090E1D"/>
<path d="M88.8181 102.173C86.8636 94.6973 85.5605 87.005 85.2348 79.2045C84.909 72.5956 85.1262 66.0952 84.1489 59.4863C83.9317 57.9696 81.5429 58.6196 81.76 60.1364C82.9545 67.8286 82.4115 75.5209 83.0631 83.3214C83.606 89.9302 84.8004 96.4307 86.4292 102.823C86.8636 104.34 89.2525 103.69 88.8181 102.173Z" fill="#090E1D"/>
<path d="M96.9651 99.6829C98.811 91.6657 103.154 84.9485 109.561 79.7481C110.755 78.773 109.018 77.0396 107.824 78.0147C101.091 83.4317 96.5307 90.6906 94.5762 99.0329C94.2504 100.55 96.5307 101.2 96.9651 99.6829Z" fill="#090E1D"/>
<path d="M95.2254 46.3789L99.786 89.9321L92.185 100.875L86.5386 47.2456L95.2254 46.3789Z" fill="#090E1D"/>
<path d="M206.961 263.822L213.259 324.168L204.463 339.011L196.754 264.906L206.961 263.822Z" fill="#090E1D"/>
<path d="M176.01 277.687L182.96 264.145C184.806 260.461 190.018 257.211 194.904 258.836C199.682 260.461 200.225 265.878 197.945 270.645L193.601 279.204L196.533 278.121L211.301 271.945C220.965 268.153 225.96 271.295 227.48 274.762C229.326 281.154 222.376 283.321 222.376 283.321L217.707 284.729C224.44 282.346 230.52 281.479 232.041 286.138L232.258 286.68C233.778 289.605 231.498 292.205 228.023 294.914C231.715 294.589 234.538 295.78 235.732 298.055C238.664 303.906 232.692 308.456 224.982 311.706L179.702 330.666L160.157 284.404L176.01 277.687Z" fill="#FFB3BD"/>
<path d="M195.227 276.277C190.992 278.011 186.757 279.853 182.414 281.586C180.459 282.344 181.328 285.486 183.282 284.728C187.517 282.994 191.752 281.153 196.096 279.419C197.942 278.661 197.181 275.519 195.227 276.277Z" fill="#090E1D"/>
<path d="M224.544 280.501C222.916 281.26 221.178 281.91 219.549 282.668C219.875 283.752 220.092 284.727 220.418 285.81C220.635 285.702 220.744 285.702 220.961 285.593C222.916 284.835 222.047 281.693 220.092 282.451C218.464 283.21 216.726 283.86 215.097 284.618C213.143 285.377 214.011 288.519 215.966 287.76C217.595 287.002 219.332 286.352 220.961 285.593C220.635 284.51 220.418 283.535 220.092 282.451C219.875 282.56 219.767 282.56 219.549 282.668C217.595 283.426 218.464 286.568 220.418 285.81C222.047 285.052 223.784 284.402 225.413 283.643C227.368 282.776 226.499 279.635 224.544 280.501Z" fill="#090E1D"/>
<path d="M229.653 292.424C226.504 293.724 223.247 295.132 220.098 296.432C218.143 297.191 219.012 300.333 220.967 299.574C224.116 298.274 227.373 296.866 230.522 295.566C232.368 294.807 231.499 291.665 229.653 292.424Z" fill="#090E1D"/>
<path d="M198.708 263.928C193.821 263.387 188.935 262.845 184.157 262.303C182.094 262.087 182.094 265.337 184.157 265.554C189.044 266.095 193.93 266.637 198.708 267.179C200.771 267.395 200.771 264.145 198.708 263.928Z" fill="#090E1D"/>
<path d="M97.0708 285.055C97.6137 287.764 98.6996 290.256 100.111 292.531C101.197 294.264 104.02 292.639 102.934 290.906C101.631 288.847 100.654 286.681 100.22 284.189C99.7854 282.13 96.6365 282.997 97.0708 285.055Z" fill="#090E1D"/>
<path d="M261.576 84.083C263.422 86.7915 264.725 89.7168 265.05 92.967C265.268 95.0255 268.525 95.0255 268.308 92.967C267.874 89.1751 266.571 85.5998 264.399 82.4579C263.204 80.7244 260.381 82.3495 261.576 84.083Z" fill="#090E1D"/>
<path d="M120.85 73.0308C122.37 72.4891 123.89 71.9474 125.41 71.4057C127.365 70.7557 126.496 67.6138 124.541 68.2638C123.021 68.8055 121.501 69.3472 119.981 69.8889C118.026 70.539 118.895 73.6809 120.85 73.0308Z" fill="#090E1D"/>
<path d="M120.089 66.855C121.501 66.6383 122.804 66.4216 124.216 66.0966C125.084 65.9882 125.519 64.9048 125.302 64.1464C125.084 63.2797 124.216 62.8463 123.347 63.063C121.935 63.2797 120.632 63.4964 119.221 63.8214C118.352 63.9298 117.918 65.0132 118.135 65.7716C118.352 66.6383 119.221 66.9633 120.089 66.855Z" fill="#090E1D"/>
<path d="M209.131 164.799L198.272 142.047C200.661 142.264 203.05 141.289 204.787 139.339C207.393 136.197 206.959 131.43 203.702 128.83C200.553 126.23 195.775 126.663 193.169 129.913C193.06 130.13 192.843 130.347 192.734 130.455L188.065 120.596C187.522 119.404 186.111 118.754 184.808 119.187C178.401 121.029 160.702 128.18 162.222 149.09C162.33 150.715 163.742 151.798 165.371 151.581L173.515 150.39L174.058 173.141C174.275 181.7 180.356 189.176 188.825 190.801C189.26 190.909 189.585 190.909 190.02 191.018C204.57 193.185 215.429 178.017 209.131 164.799Z" fill="#FFB3BD"/>
<path d="M177.968 130.996C179.597 129.912 181.66 129.804 183.397 130.671C185.243 131.538 186.98 128.829 185.026 127.854C182.203 126.445 179.054 126.554 176.339 128.179C174.602 129.262 176.23 132.079 177.968 130.996Z" fill="#090E1D"/>
<path d="M171.235 126.123C168.303 129.265 165.48 132.407 162.548 135.657C161.679 136.632 162.114 137.932 163.308 138.366C165.263 139.124 167.217 139.558 169.389 139.774C171.452 139.991 171.452 136.741 169.389 136.524C167.543 136.307 165.914 135.874 164.177 135.224C164.394 136.091 164.611 137.066 164.937 137.932C167.869 134.791 170.692 131.649 173.624 128.398C175.035 126.882 172.755 124.606 171.235 126.123Z" fill="#090E1D"/>
<path d="M174.167 143.24C177.099 144.215 180.247 141.073 179.27 138.148C178.944 137.281 178.184 136.739 177.316 137.064C176.556 137.281 175.904 138.256 176.23 139.014C176.23 139.123 176.338 139.231 176.338 139.339C176.338 139.123 176.338 139.123 176.338 139.339C176.338 139.556 176.338 139.556 176.338 139.448C176.338 139.339 176.338 139.339 176.338 139.556C176.23 139.773 176.23 139.773 176.338 139.556C176.338 139.664 176.23 139.664 176.23 139.773C176.23 139.881 176.121 139.881 176.121 139.989C176.23 139.881 176.23 139.881 176.121 139.989C176.013 139.989 175.795 140.206 176.013 140.098C175.904 140.206 175.795 140.206 175.795 140.206C175.904 140.098 176.013 140.098 175.795 140.206H175.687C175.904 140.206 175.904 140.206 175.687 140.206C175.47 140.206 175.47 140.206 175.687 140.206C175.578 140.206 175.47 140.206 175.361 140.098C174.492 139.773 173.624 140.423 173.407 141.181C172.755 142.156 173.298 143.023 174.167 143.24Z" fill="#090E1D"/>
<path d="M-9.45265 475.627C17.4766 475.627 44.5145 475.627 71.4438 475.627C73.5069 475.627 73.5069 472.377 71.4438 472.377C44.5145 472.377 17.4766 472.377 -9.45265 472.377C-11.5158 472.377 -11.5158 475.627 -9.45265 475.627Z" fill="#090E1D"/>
<path d="M226.938 473.457C252.89 473.457 278.733 473.457 304.685 473.457C306.748 473.457 306.748 470.207 304.685 470.207C278.733 470.207 252.89 470.207 226.938 470.207C224.875 470.207 224.766 473.457 226.938 473.457Z" fill="#090E1D"/>
<path d="M41.5831 432.943C38.4341 431.318 35.6109 429.368 33.1134 426.767C32.2447 425.901 25.9468 418.859 26.924 417.342C28.2271 415.283 30.616 419.509 30.9417 420.159C31.7018 421.675 32.3533 423.084 33.1134 424.601C34.9594 428.609 36.6968 432.835 38.3255 436.952C38.8685 438.252 41.1488 438.685 41.4745 436.952C43.2119 426.984 49.6185 418.859 59.0654 415.175C58.4139 414.633 57.6538 414.092 57.0023 413.658C57.6538 423.734 49.2927 429.909 41.8003 435.001C40.0629 436.193 41.6917 439.01 43.4291 437.818C51.8988 432.076 61.02 424.926 60.2599 413.658C60.1513 412.683 59.2826 411.708 58.1967 412.141C47.6639 416.15 40.1715 425.034 38.3255 436.193C39.4114 436.193 40.3887 436.193 41.4745 436.193C39.9543 432.401 31.2675 405.533 24.5352 413.225C21.8205 416.367 25.1867 421.675 26.924 424.276C30.2902 429.259 34.7422 433.051 40.0629 435.868C41.8003 436.735 43.4291 433.918 41.5831 432.943Z" fill="#090E1D"/>
<path d="M273.631 431.748C268.962 427.198 263.099 420.914 261.144 414.522C258.864 407.046 265.922 415.713 267.116 417.772C269.397 421.672 270.591 425.898 271.025 430.34C271.134 431.856 273.197 432.615 274.066 431.206C275.912 428.173 286.553 410.188 291.548 413.763C291.331 413.005 291.114 412.247 291.005 411.488C286.119 419.072 280.038 425.356 272.546 430.448C270.808 431.64 272.437 434.457 274.174 433.265C282.101 427.956 288.616 421.239 293.72 413.113C294.263 412.355 293.828 411.38 293.177 410.838C289.702 408.346 286.227 410.838 283.621 413.33C278.735 417.989 274.717 423.622 271.243 429.473C272.22 429.798 273.306 430.015 274.283 430.34C273.631 424.056 271.677 418.097 267.876 413.005C266.03 410.513 262.339 406.288 258.647 408.021C250.503 411.705 268.202 430.99 271.351 434.132C272.763 435.54 275.043 433.265 273.631 431.748Z" fill="#090E1D"/>
<path d="M53.6347 268.37C53.2004 285.488 58.5211 301.956 68.8367 315.716C70.0312 317.341 72.963 315.716 71.66 314.09C61.6701 300.873 56.458 285.055 56.8923 268.479C56.8923 266.312 53.6347 266.312 53.6347 268.37Z" fill="#3D4966"/>
<path d="M42.2362 302.065C46.1453 316.908 53.6377 330.126 64.4963 341.068C66.0165 342.585 68.2968 340.31 66.7766 338.793C56.3524 328.284 49.0771 315.5 45.3852 301.199C44.8423 299.248 41.6933 300.007 42.2362 302.065Z" fill="#3D4966"/>
<path d="M161.781 22.9748C195.334 11.1656 232.904 14.3075 263.96 31.6421C265.806 32.6172 267.435 29.9086 265.589 28.8252C233.773 11.0573 195.225 7.69868 160.912 19.8329C158.957 20.5913 159.826 23.7332 161.781 22.9748Z" fill="#3D4966"/>
<path d="M230.192 3.25837C253.863 2.93335 276.666 11.9257 293.714 28.3935C295.235 29.802 297.515 27.5268 295.995 26.1184C278.404 9.1088 254.732 -0.316888 230.192 0.00813565C228.02 0.00813565 228.02 3.25837 230.192 3.25837Z" fill="#3D4966"/>
</svg>
