<svg width="375" height="458" viewBox="0 0 375 458" fill="none" xmlns="http://www.w3.org/2000/svg">
<path d="M189.159 30.4193C109.309 -1.19718 16.4643 -7.6919 -67.9253 10.9021C-129.646 24.518 -192.717 51.2222 -240.159 91.4762C-306.749 147.951 -331.096 232.118 -304.315 312.528C-286.318 366.562 -249.009 413.575 -204.067 451.06C-137.576 506.545 -53.2188 542.711 34.8885 553.525C122.996 564.338 214.525 549.733 294.111 512.183C330.795 494.874 365.373 472.489 391.957 442.983C418.573 413.509 436.899 376.486 438.774 337.88C440.287 306.791 431.339 276.032 419.396 247.053C379.751 150.654 291.216 70.8382 189.159 30.4193Z" fill="#FFF1F3"/>
<path d="M298.942 63.9664C319.326 78.0795 341.354 96.0449 365.273 105.251C371.765 107.749 379.584 108.574 386.143 105.545C405.436 96.7156 400.565 76.7037 392.898 63.387C382.672 45.6215 367.031 35.5319 347.397 26.8986C337.725 22.6564 327.65 18.5801 316.783 17.9209C305.917 17.2617 293.953 20.5746 286.99 28.6741C275.72 41.7806 286.698 55.4701 297.937 63.2652C298.252 63.504 298.597 63.7352 298.942 63.9664Z" fill="#FFF1F3"/>
<path d="M195.204 415.42C200.176 449.005 214.858 482.125 225.004 514.518L-4.64587 539.467C-21.2177 496.402 -9.76276 438.421 7.91382 395.211C69.3167 412.541 131.243 414.228 195.204 415.42Z" fill="#FA4D5E"/>
<path d="M200.525 427.634C134.499 433.1 67.6885 424.9 4.94821 403.644C3.34917 403.092 4.01787 400.533 5.64598 401.085C68.1827 422.283 134.703 430.425 200.495 424.987C202.211 424.813 202.211 427.488 200.525 427.634Z" fill="#090E1D"/>
<path d="M141.767 557C141.767 557 129.15 503.759 125.835 452.756C125.835 452.756 119.206 496.664 129.12 557H141.767Z" fill="#090E1D"/>
<path d="M204.391 465.493C190.901 458.136 181.336 445.109 178.458 429.989C178.138 428.302 180.697 427.604 181.016 429.291C183.778 443.772 192.762 456.13 205.729 463.196C207.241 464.01 205.903 466.307 204.391 465.493Z" fill="#090E1D"/>
<path d="M33.2949 414.926C29.7189 433.362 12.304 447.145 -6.44833 446.476C-8.16365 446.418 -8.16365 443.743 -6.44833 443.83C11.1992 444.469 27.364 431.559 30.7365 414.228C31.0563 412.542 33.6147 413.24 33.2949 414.926Z" fill="#090E1D"/>
<path d="M137.029 87.7699C140.982 85.8217 143.25 81.1983 141.186 76.982C140.052 74.6267 137.813 72.9983 135.749 71.5154C132.406 69.1019 128.655 66.8629 126.795 63.0246C125.515 60.3785 125.341 57.3544 124.12 54.6792C122.637 51.4807 120.195 48.8055 117.142 47.0027C110.485 43.0771 103.071 45.636 95.8897 44.531C87.1387 43.2225 78.3585 33.7431 81.4694 24.4382C82.6032 21.0942 86.1792 18.2446 89.8425 19.2042C93.0696 20.0474 94.6687 23.4786 93.622 26.5027C93.0696 28.102 90.4821 27.4332 91.0636 25.8048C89.639 21.5885 87.9527 20.6581 85.9757 22.9843C84.1732 23.8857 83.3882 25.4559 83.5626 27.6658C83.4754 29.2942 83.9406 31.0098 84.5221 32.5219C85.6559 35.4587 87.6911 37.9594 90.3077 39.7041C95.6572 43.2225 101.908 41.8559 107.897 41.9722C115.921 42.1466 123.248 46.3339 126.62 53.8069C127.609 56.0168 127.841 58.3721 128.655 60.6111C129.615 63.3154 131.417 65.1182 133.627 66.8047C136.505 69.0147 139.82 70.7884 142.116 73.6671C146.477 79.1629 144.588 87.0139 138.337 90.0962C136.854 90.8231 135.517 88.526 137.029 87.7699Z" fill="#090E1D"/>
<path d="M39.5746 100.158C27.5964 102.164 21.3166 87.7127 9.62911 88.5269C1.86653 89.0794 -4.5587 94.9531 -11.3328 98.1517C-16.1008 100.391 -21.2177 101.67 -26.4509 102.077C-37.6732 102.92 -49.2444 99.6056 -58.199 92.8013C-62.2111 89.7482 -66.9791 85.4737 -68.6945 80.5886C-70.1772 76.4014 -68.0549 71.6326 -63.2578 71.6035C-61.5424 71.6035 -61.5424 74.2496 -63.2578 74.2787C-70.6715 74.3078 -63.8973 83.6709 -61.8913 85.8808C-60.0887 87.8581 -58.0536 89.6609 -55.8731 91.2311C-51.8901 94.1098 -47.4419 96.2616 -42.732 97.6574C-32.9052 100.594 -21.9736 100.245 -12.6411 95.8545C-4.2389 91.929 4.10515 84.0489 14.1064 86.2006C22.8865 88.0907 29.428 99.1985 38.9059 97.5992C40.5341 97.3084 41.2609 99.8673 39.5746 100.158Z" fill="#090E1D"/>
<path d="M299.193 145.47L306.548 149.482C311.025 152.826 310.415 153.902 311.462 159.398L314.049 175.74C314.165 176.292 314.921 176.292 315.038 175.74L317.567 159.485C318.585 154.019 318.468 152.797 322.916 149.453L329.894 145.441C330.156 145.237 330.156 144.83 329.894 144.655L322.015 140.875C317.596 137.531 317.858 135.292 316.869 129.855L315.067 114.414C314.979 113.862 314.194 113.862 314.078 114.414L311.956 130.436C310.967 135.845 310.415 138.113 306.054 141.457L299.222 144.655C298.931 144.888 298.931 145.295 299.193 145.47Z" fill="#FA4D5E"/>
<path d="M97.0528 169.769L107.17 160.872C157.729 117.022 241.053 135.69 281.087 184.367C296.438 203.035 307.427 229.234 309.521 255.055C283.035 252.147 256.636 248.687 230.238 244.849C220.789 216.789 179.04 200.33 153.659 200.33C143.686 200.33 133.714 202.075 123.8 201.115C109.467 199.749 89.5519 187.216 97.0528 169.769Z" fill="#FFB3BD"/>
<path d="M321.193 303.499L328.548 307.511C333.026 310.855 332.415 311.931 333.462 317.427L336.049 333.769C336.165 334.321 336.921 334.321 337.038 333.769L339.567 317.514C340.585 312.048 340.468 310.826 344.916 307.482L351.894 303.47C352.156 303.266 352.156 302.859 351.894 302.655L344.015 298.875C339.596 295.531 339.858 293.292 338.869 287.855L337.067 272.414C336.979 271.862 336.194 271.862 336.078 272.414L333.956 288.436C332.967 293.845 332.415 296.113 328.054 299.457L321.222 302.655C320.931 302.917 320.931 303.324 321.193 303.499Z" fill="#FA4D5E"/>
<path d="M205.132 79.6454L209.987 82.2914C212.924 84.5014 212.546 85.1992 213.215 88.8049L214.901 99.5637C214.959 99.9127 215.482 99.9127 215.54 99.5637L217.198 88.8921C217.866 85.2865 217.808 84.5014 220.716 82.2914L225.309 79.6454C225.484 79.5 225.484 79.2383 225.309 79.1219L220.134 76.6503C217.227 74.4404 217.401 72.9865 216.732 69.4099L215.54 59.2617C215.482 58.9128 214.959 58.9128 214.901 59.2617L213.505 69.7879C212.866 73.3645 212.488 74.8184 209.639 77.0283L205.132 79.1219C204.958 79.2673 204.958 79.5291 205.132 79.6454Z" fill="#FA4D5E"/>
<path d="M65.3337 137.727C77.8643 135.982 92.7207 134.761 103.914 134.063C107.548 133.83 111.24 133.656 114.875 133.801C138.918 161.745 176.277 198.674 148.629 230.834C138.017 243.076 120.05 230.834 112.694 216.964C98.8261 189.195 88.2144 159.768 65.3337 137.727Z" fill="#FFB3BD"/>
<path d="M85.7724 224.29C84.9583 236.532 72.7184 247.145 58.8214 243.889C49.3726 241.998 41.9007 235.747 36.3477 228.128C34.9522 213.88 33.3532 199.603 32.7426 185.413C32.0739 169.594 28.9049 150.868 42.802 143.221C45.4767 141.738 48.4131 140.807 51.4077 140.109C61.06 150.374 69.0843 162.238 75.9747 175.294C84.1152 190.007 87.4005 207.134 85.7724 224.29Z" fill="#FFB3BD"/>
<path d="M58.8212 243.889C72.6892 247.146 84.9581 236.533 85.7722 224.291C87.4003 207.135 84.1441 189.979 75.9745 175.295C69.1132 162.239 61.0889 150.346 51.4075 140.11C53.1228 139.703 54.8672 139.383 56.6116 139.063C59.3155 138.569 62.2519 138.133 65.3336 137.697C88.1853 159.738 98.8261 189.136 112.694 216.905C120.05 230.775 138.017 243.046 148.629 230.775C176.277 198.615 138.947 161.686 114.875 133.742C118.916 133.917 122.899 134.44 126.737 135.749C140.779 140.488 150.489 150.724 158.281 163.344C167.032 177.504 189.302 215.858 195.175 231.415C206.368 261.133 190.96 271.833 191.483 304.372C168.573 304.808 145.227 306.407 122.463 304.255C93.622 302.54 65.4499 298.323 37.2779 294.223C37.743 290.24 38.121 286.227 38.3826 282.185C39.5746 264.244 38.0919 246.158 36.2894 228.042C41.9005 235.748 49.3724 241.999 58.8212 243.889Z" fill="#FA4D5E"/>
<path d="M9.16408 392.245C10.2398 389.715 11.3736 387.185 12.5075 384.656C15.095 378.956 17.7698 373.286 20.0375 367.442C23.0321 359.62 29.7771 351.914 31.9866 343.859C35.9697 329.408 36.2895 320.277 36.6093 299.719C36.6384 297.916 37.0745 296.113 37.278 294.311C65.4791 298.381 93.6221 302.598 122.463 304.342C145.198 306.465 168.573 304.895 191.483 304.459C191.541 307.541 187.413 321.091 185.988 346.215C184.302 375.7 183.575 371.251 191.134 402.364C192.123 406.435 194.565 411.262 195.175 415.42C131.214 414.257 69.2878 412.541 7.91394 395.24C8.35004 394.222 8.75705 393.234 9.16408 392.245Z" fill="#FFB3BD"/>
<path d="M84.1733 216.382C85.0164 184.163 76.7887 145.112 44.0521 130.66C35.1847 126.734 25.387 125.368 15.7056 125.164C-28.1951 124.35 -71.369 149.066 -94.0753 186.664C-98.9887 194.806 -103.059 203.587 -105.094 212.863C-107.362 223.186 -107.1 233.974 -105.298 244.413C-103.35 255.637 -99.6283 266.57 -94.2788 276.631C-87.7373 288.989 -78.8409 299.952 -69.6537 310.478C-59.3327 322.283 -48.2557 333.886 -34.3005 341.01C-20.3453 348.134 -2.87224 350.082 10.8213 342.434C18.9909 337.869 20.7353 327.11 27.7129 320.859C34.6905 314.607 40.0981 306.639 57.2223 311.176C63.8801 312.949 69.9855 318.969 76.4107 321.353C79.4634 322.487 82.4289 319.55 81.3241 316.497C79.1146 310.303 73.5325 305.186 67.5434 302.016C61.6706 298.905 54.722 297.974 48.2968 295.997C45.4186 295.096 46.1745 290.792 49.1981 291.025C53.937 291.374 59.2284 293.583 61.7287 294.194C71.9044 296.753 79.8995 302.685 89.4647 307.483C91.6742 308.588 94.4362 308.122 95.9771 306.174C98.5356 302.947 95.3665 299.341 92.4301 297.218C82.2835 289.891 67.4562 281.603 52.8032 278.637C51.0588 278.288 50.6808 276.049 51.4077 274.654C52.4252 272.764 56.6118 274.101 58.2108 274.159C63.9964 274.479 70.16 276.108 75.5095 278.376C81.1206 280.731 86.7027 283.813 92.4883 285.471C96.4713 286.605 99.4368 281.749 96.6458 278.696C90.9183 272.444 82.2545 268.547 74.0849 265.465C64.9268 262.005 55.4489 258.835 45.6802 259.068C35.9116 259.301 25.7068 263.604 20.8516 272.095C9.57114 260.551 -2.61058 248.28 -10.2569 234.09C-11.0709 232.578 -11.885 230.95 -11.6524 229.263C-11.3907 227.257 -7.20417 223.215 -5.60513 221.965C17.2174 203.965 51.7565 204.372 75.8583 220.569L84.1733 216.382Z" fill="#FFB3BD"/>
<path d="M-12.9026 228.856C-10.4604 220.54 1.98293 214.811 9.13497 211.962C20.6189 207.397 33.0914 206.204 45.3022 207.745C46.9885 207.949 46.9885 210.624 45.3022 210.421C34.7486 209.112 24.0787 209.781 13.9321 213.067C8.9896 214.666 4.22157 216.905 -0.139431 219.696C-3.54101 221.877 -9.12309 225.425 -10.3442 229.583C-10.8384 231.211 -13.3968 230.513 -12.9026 228.856Z" fill="#090E1D"/>
<path d="M26.8115 319.898C32.5389 314.664 37.6849 309.314 45.8545 308.587C51.1168 308.122 56.8733 309.139 61.6123 311.407C64.1126 312.6 66.4385 314.141 68.7934 315.624C70.1599 316.496 71.5263 317.368 72.9218 318.183C73.5033 318.503 74.0847 318.851 74.6953 319.142C75.393 319.433 76.0908 319.753 76.7886 320.044C77.8934 318.968 78.9691 317.892 80.0738 316.816C80.5681 314.257 75.5675 309.576 73.9394 308.093C71.1193 305.476 67.8049 303.411 64.2579 301.957C61.1762 300.707 57.9781 299.893 54.751 299.078C52.3379 298.468 48.7037 298.235 46.6977 296.607C44.7207 295.008 44.6916 291.751 46.9012 290.297C50.3318 288 56.9024 291.286 60.304 292.361C66.264 294.222 71.7007 296.229 77.1956 299.195C80.0738 300.765 92.6335 309.808 94.5233 305.708C97.0527 300.271 88.2725 295.822 84.9582 293.728C78.94 289.948 72.6311 286.604 66.0314 284.016C62.8334 282.766 59.5771 281.661 56.2628 280.788C54.373 280.294 51.7273 280.265 50.419 278.608C48.8781 276.688 49.7503 273.868 51.8727 272.908C55.7685 271.135 63.8218 273.49 67.7177 274.449C73.1835 275.787 78.155 278.055 83.2428 280.41C85.4815 281.428 87.6911 282.446 90.0169 283.26C90.6275 283.464 91.5287 283.958 92.1683 283.987C93.1568 284.51 94 284.132 94.6687 282.824C96.6747 282.213 96.9945 281.312 95.6281 280.061C94.2035 276.601 89.3773 274.159 86.2665 272.385C79.4924 268.547 71.9333 265.813 64.4905 263.516C50.0702 259.038 31.0271 258.049 22.0144 272.763C21.1131 274.217 18.8163 272.879 19.7176 271.425C25.9974 261.161 38.1792 257.061 49.7504 257.846C57.2222 258.34 64.4033 260.521 71.41 263.051C77.8061 265.348 84.2604 267.849 90.0169 271.513C93.3894 273.664 99.4948 277.212 99.0878 281.893C98.768 285.528 95.5409 287.331 92.1974 286.749C85.1908 285.557 78.7655 280.701 72.0496 278.462C69.055 277.444 65.9442 276.659 62.8334 276.107C60.8273 275.758 58.7631 275.496 56.728 275.351C56.2628 275.322 55.0417 275.06 54.6056 275.264C54.1404 275.932 53.6462 276.63 53.181 277.299C53.9369 277.444 54.6928 277.619 55.4487 277.793C62.4845 279.48 69.2586 282.213 75.7128 285.441C81.731 288.436 88.2435 291.867 93.4185 296.229C97.0817 299.311 100.309 310.157 92.2846 309.663C90.046 309.517 87.9236 308.151 86.0048 307.104C82.3706 305.156 78.8237 303.033 75.1895 301.085C68.8516 297.683 62.1647 295.502 55.3034 293.525C54.2858 293.234 49.8666 291.634 49.227 292.303C49.4015 292.769 49.5468 293.234 49.6922 293.699C49.6922 295.008 50.3609 295.589 51.6692 295.502C52.3379 295.822 53.2391 295.909 53.9369 296.083C57.7164 297.043 61.496 297.915 65.1301 299.369C70.5959 301.579 75.6838 305.243 79.2598 309.954C81.731 313.21 85.2489 319.346 80.2774 322.195C75.4512 324.958 68.241 318.299 64.4615 316.002C57.8618 311.96 49.2561 309.517 41.6389 312.105C36.3766 313.879 32.6552 318.095 28.6722 321.73C27.422 322.922 25.5323 321.061 26.8115 319.898Z" fill="#090E1D"/>
<path d="M137 362.935C138.046 364.738 139.093 366.686 138.86 368.838C138.657 370.582 137.581 372.385 135.808 372.879C134.034 373.403 132.144 372.589 131.127 371.077C129.906 369.245 130.255 367.006 131.272 365.174C132.115 363.691 134.412 365.028 133.569 366.511C133.075 367.384 132.697 368.576 133.278 369.535C133.918 370.553 135.197 370.64 135.866 369.594C136.912 367.878 135.575 365.755 134.703 364.272C133.831 362.789 136.127 361.452 137 362.935Z" fill="#090E1D"/>
<path d="M146.07 233.479C147.873 227.286 143.861 219.057 141.244 213.561C138.482 207.687 134.906 202.279 130.72 197.306C129.615 195.998 131.505 194.108 132.609 195.416C137.581 201.348 141.738 207.862 144.791 214.986C147.233 220.685 150.431 227.925 148.629 234.177C148.164 235.806 145.605 235.108 146.07 233.479Z" fill="#090E1D"/>
<path d="M191.163 298.934C158.223 300.504 125.196 300.039 92.3138 297.539C90.6275 297.422 90.5984 294.747 92.3138 294.892C125.196 297.393 158.223 297.858 191.163 296.288C192.878 296.201 192.849 298.847 191.163 298.934Z" fill="#090E1D"/>
<path d="M306.962 287.507C298.705 318.737 274.662 343.657 247.362 358.923C240.588 362.703 233.058 366.25 225.353 365.087C219.074 364.157 225.702 344.355 221.487 339.499C204.101 319.493 197.676 308.909 213.579 290.851C222.039 281.226 231.924 271.107 232.186 257.382C232.273 252.992 231.575 248.804 230.238 244.879C256.636 248.717 283.035 252.177 309.521 255.085C310.422 266.164 309.695 277.185 306.962 287.507Z" fill="#FFB3BD"/>
<path d="M198.199 344.441C197.966 343.918 197.763 343.424 197.53 342.9C195.844 338.917 201.688 335.485 203.374 339.469C217.823 373.403 235.762 405.738 256.898 435.95C254.485 436.415 252.101 436.909 249.717 437.491C231.72 411.524 216.079 384.017 202.967 355.258C207.357 386.081 213.055 416.7 220.062 447.028C217.94 447.843 215.788 448.657 213.666 449.471C205.961 416.148 199.798 382.475 195.233 348.571C194.943 346.39 196.513 344.849 198.199 344.441Z" fill="white"/>
<mask id="mask0_1666_11719" style="mask-type:luminance" maskUnits="userSpaceOnUse" x="195" y="337" width="62" height="113">
<path d="M198.199 344.441C197.966 343.918 197.763 343.424 197.53 342.9C195.844 338.917 201.688 335.485 203.374 339.469C217.823 373.403 235.762 405.738 256.898 435.95C254.485 436.415 252.101 436.909 249.717 437.491C231.72 411.524 216.079 384.017 202.967 355.258C207.357 386.081 213.055 416.7 220.062 447.028C217.94 447.843 215.788 448.657 213.666 449.471C205.961 416.148 199.798 382.475 195.233 348.571C194.943 346.39 196.513 344.849 198.199 344.441Z" fill="white"/>
</mask>
<g mask="url(#mask0_1666_11719)">
<path d="M254.456 430.803C253.38 431.152 252.304 431.472 251.258 431.821C249.63 432.344 248.932 429.756 250.56 429.262C251.636 428.942 252.712 428.593 253.758 428.244C255.386 427.721 256.084 430.279 254.456 430.803Z" fill="#090E1D"/>
</g>
<mask id="mask1_1666_11719" style="mask-type:luminance" maskUnits="userSpaceOnUse" x="195" y="337" width="62" height="113">
<path d="M198.199 344.441C197.966 343.918 197.763 343.424 197.53 342.9C195.844 338.917 201.688 335.485 203.374 339.469C217.823 373.403 235.762 405.738 256.898 435.95C254.485 436.415 252.101 436.909 249.717 437.491C231.72 411.524 216.079 384.017 202.967 355.258C207.357 386.081 213.055 416.7 220.062 447.028C217.94 447.843 215.788 448.657 213.666 449.471C205.961 416.148 199.798 382.475 195.233 348.571C194.943 346.39 196.513 344.849 198.199 344.441Z" fill="white"/>
</mask>
<g mask="url(#mask1_1666_11719)">
<path d="M248.292 420.19C247.478 420.714 246.693 421.266 245.937 421.848C245.385 422.284 244.6 422.4 244.048 421.848C243.582 421.382 243.495 420.423 244.048 419.958C244.978 419.202 245.937 418.504 246.955 417.864C248.379 416.963 249.717 419.26 248.292 420.19Z" fill="#090E1D"/>
</g>
<mask id="mask2_1666_11719" style="mask-type:luminance" maskUnits="userSpaceOnUse" x="195" y="337" width="62" height="113">
<path d="M198.199 344.441C197.966 343.918 197.763 343.424 197.53 342.9C195.844 338.917 201.688 335.485 203.374 339.469C217.823 373.403 235.762 405.738 256.898 435.95C254.485 436.415 252.101 436.909 249.717 437.491C231.72 411.524 216.079 384.017 202.967 355.258C207.357 386.081 213.055 416.7 220.062 447.028C217.94 447.843 215.788 448.657 213.666 449.471C205.961 416.148 199.798 382.475 195.233 348.571C194.943 346.39 196.513 344.849 198.199 344.441Z" fill="white"/>
</mask>
<g mask="url(#mask2_1666_11719)">
<path d="M240.849 408.763C239.716 409.111 238.553 409.46 237.39 409.809C235.762 410.304 235.035 407.745 236.692 407.25C237.855 406.902 238.989 406.553 240.152 406.204C241.78 405.709 242.478 408.268 240.849 408.763Z" fill="#090E1D"/>
</g>
<mask id="mask3_1666_11719" style="mask-type:luminance" maskUnits="userSpaceOnUse" x="195" y="337" width="62" height="113">
<path d="M198.199 344.441C197.966 343.918 197.763 343.424 197.53 342.9C195.844 338.917 201.688 335.485 203.374 339.469C217.823 373.403 235.762 405.738 256.898 435.95C254.485 436.415 252.101 436.909 249.717 437.491C231.72 411.524 216.079 384.017 202.967 355.258C207.357 386.081 213.055 416.7 220.062 447.028C217.94 447.843 215.788 448.657 213.666 449.471C205.961 416.148 199.798 382.475 195.233 348.571C194.943 346.39 196.513 344.849 198.199 344.441Z" fill="white"/>
</mask>
<g mask="url(#mask3_1666_11719)">
<path d="M232.534 395.822C231.72 396.23 230.877 396.637 230.063 397.073C229.424 397.393 228.61 397.247 228.232 396.608C227.883 396.026 228.057 395.096 228.697 394.776C229.511 394.369 230.354 393.961 231.168 393.554C231.808 393.235 232.622 393.38 233 394.02C233.348 394.601 233.174 395.503 232.534 395.822Z" fill="#090E1D"/>
</g>
<mask id="mask4_1666_11719" style="mask-type:luminance" maskUnits="userSpaceOnUse" x="195" y="337" width="62" height="113">
<path d="M198.199 344.441C197.966 343.918 197.763 343.424 197.53 342.9C195.844 338.917 201.688 335.485 203.374 339.469C217.823 373.403 235.762 405.738 256.898 435.95C254.485 436.415 252.101 436.909 249.717 437.491C231.72 411.524 216.079 384.017 202.967 355.258C207.357 386.081 213.055 416.7 220.062 447.028C217.94 447.843 215.788 448.657 213.666 449.471C205.961 416.148 199.798 382.475 195.233 348.571C194.943 346.39 196.513 344.849 198.199 344.441Z" fill="white"/>
</mask>
<g mask="url(#mask4_1666_11719)">
<path d="M225.266 381.021C224.19 381.312 223.144 381.573 222.068 381.864C220.411 382.3 219.713 379.741 221.37 379.305C222.446 379.014 223.493 378.753 224.568 378.462C226.196 378.026 226.923 380.585 225.266 381.021Z" fill="#090E1D"/>
</g>
<mask id="mask5_1666_11719" style="mask-type:luminance" maskUnits="userSpaceOnUse" x="195" y="337" width="62" height="113">
<path d="M198.199 344.441C197.966 343.918 197.763 343.424 197.53 342.9C195.844 338.917 201.688 335.485 203.374 339.469C217.823 373.403 235.762 405.738 256.898 435.95C254.485 436.415 252.101 436.909 249.717 437.491C231.72 411.524 216.079 384.017 202.967 355.258C207.357 386.081 213.055 416.7 220.062 447.028C217.94 447.843 215.788 448.657 213.666 449.471C205.961 416.148 199.798 382.475 195.233 348.571C194.943 346.39 196.513 344.849 198.199 344.441Z" fill="white"/>
</mask>
<g mask="url(#mask5_1666_11719)">
<path d="M220.091 439.963C219.015 440.283 217.94 440.574 216.864 440.894C215.207 441.359 214.509 438.8 216.166 438.335C217.242 438.015 218.318 437.724 219.393 437.404C221.022 436.91 221.719 439.498 220.091 439.963Z" fill="#090E1D"/>
</g>
<mask id="mask6_1666_11719" style="mask-type:luminance" maskUnits="userSpaceOnUse" x="195" y="337" width="62" height="113">
<path d="M198.199 344.441C197.966 343.918 197.763 343.424 197.53 342.9C195.844 338.917 201.688 335.485 203.374 339.469C217.823 373.403 235.762 405.738 256.898 435.95C254.485 436.415 252.101 436.909 249.717 437.491C231.72 411.524 216.079 384.017 202.967 355.258C207.357 386.081 213.055 416.7 220.062 447.028C217.94 447.843 215.788 448.657 213.666 449.471C205.961 416.148 199.798 382.475 195.233 348.571C194.943 346.39 196.513 344.849 198.199 344.441Z" fill="white"/>
</mask>
<g mask="url(#mask6_1666_11719)">
<path d="M216.864 423.853C215.701 424.086 214.538 424.289 213.375 424.522C212.677 424.667 211.95 424.318 211.747 423.591C211.572 422.952 211.98 422.079 212.677 421.963C213.84 421.73 215.003 421.527 216.166 421.294C216.864 421.149 217.591 421.498 217.794 422.225C217.969 422.864 217.562 423.708 216.864 423.853Z" fill="#090E1D"/>
</g>
<mask id="mask7_1666_11719" style="mask-type:luminance" maskUnits="userSpaceOnUse" x="195" y="337" width="62" height="113">
<path d="M198.199 344.441C197.966 343.918 197.763 343.424 197.53 342.9C195.844 338.917 201.688 335.485 203.374 339.469C217.823 373.403 235.762 405.738 256.898 435.95C254.485 436.415 252.101 436.909 249.717 437.491C231.72 411.524 216.079 384.017 202.967 355.258C207.357 386.081 213.055 416.7 220.062 447.028C217.94 447.843 215.788 448.657 213.666 449.471C205.961 416.148 199.798 382.475 195.233 348.571C194.943 346.39 196.513 344.849 198.199 344.441Z" fill="white"/>
</mask>
<g mask="url(#mask7_1666_11719)">
<path d="M212.677 404.371C211.602 404.545 210.526 404.72 209.479 404.894C208.781 405.01 208.055 404.72 207.851 403.964C207.677 403.324 208.055 402.452 208.781 402.335C209.857 402.161 210.933 401.986 211.98 401.812C212.677 401.696 213.404 401.986 213.608 402.742C213.782 403.382 213.375 404.254 212.677 404.371Z" fill="#090E1D"/>
</g>
<mask id="mask8_1666_11719" style="mask-type:luminance" maskUnits="userSpaceOnUse" x="195" y="337" width="62" height="113">
<path d="M198.199 344.441C197.966 343.918 197.763 343.424 197.53 342.9C195.844 338.917 201.688 335.485 203.374 339.469C217.823 373.403 235.762 405.738 256.898 435.95C254.485 436.415 252.101 436.909 249.717 437.491C231.72 411.524 216.079 384.017 202.967 355.258C207.357 386.081 213.055 416.7 220.062 447.028C217.94 447.843 215.788 448.657 213.666 449.471C205.961 416.148 199.798 382.475 195.233 348.571C194.943 346.39 196.513 344.849 198.199 344.441Z" fill="white"/>
</mask>
<g mask="url(#mask8_1666_11719)">
<path d="M209.218 384.366C208.142 384.686 207.066 385.006 205.991 385.297C204.333 385.791 203.636 383.203 205.293 382.738C206.369 382.418 207.444 382.098 208.52 381.807C210.148 381.313 210.875 383.872 209.218 384.366Z" fill="#090E1D"/>
</g>
<path d="M217.533 286.984C214.974 288.177 212.997 290.474 211.136 292.713C204.333 300.825 197.53 308.909 190.727 317.022C188.081 320.162 185.407 323.39 183.866 327.315C182.412 331.037 182.063 335.167 181.772 339.208C181.307 345.373 181.016 352.235 184.651 356.975C186.482 359.33 189.768 360.871 192.152 359.214C194.943 357.295 194.594 352.904 194.943 349.327C195.699 341.389 202.124 334.556 209.421 333.916C210.7 333.8 212.038 333.887 213.113 334.614C214.945 335.835 215.468 338.627 214.8 340.866C214.131 343.076 212.532 344.82 210.875 346.332C206.427 350.345 201.106 353.224 195.466 354.678C192.21 355.521 187.761 357.876 189.186 361.191C189.68 362.354 190.843 363.023 191.919 363.518C195.786 365.262 199.972 366.105 204.159 365.96C202.153 367.239 202.182 370.671 203.723 372.59C205.235 374.509 207.677 375.178 209.974 375.498C225.179 377.562 239.425 367.734 251.49 357.469L217.533 286.984Z" fill="#FFB3BD"/>
<path d="M218.201 288.118C214.218 290.328 211.544 294.282 208.665 297.685C205.642 301.29 202.618 304.896 199.594 308.472C194.041 315.073 186.453 321.877 184.215 330.484C182.47 337.26 181.046 348.949 185.058 355.201C186.482 357.934 188.954 358.486 192.442 356.887C192.995 355.666 193.315 354.357 193.344 353.02C193.489 351.653 193.489 350.286 193.634 348.949C194.012 345.925 195.001 343.104 196.687 340.574C199.478 336.358 204.217 332.84 209.421 332.549C214.451 332.258 217.445 336.3 216.079 341.156C214.422 347.117 206.863 351.508 201.659 353.834C199.187 354.939 193.925 355.404 192.123 357.44C186.773 363.546 201.484 364.535 204.188 364.506C205.293 364.506 205.991 365.989 205.118 366.774C203.229 368.489 204.479 371.63 206.194 372.822C207.008 373.403 208.229 373.665 209.189 373.869C211.253 374.334 213.55 374.363 215.643 374.247C220.178 374.014 224.627 372.764 228.784 370.932C236.837 367.413 243.902 362.005 250.56 356.335C251.868 355.23 253.758 357.12 252.45 358.225C242.71 366.483 231.633 374.857 218.608 376.602C214.102 377.213 207.502 377.503 203.752 374.305C200.903 371.862 200.35 367.442 203.229 364.855C203.548 365.611 203.868 366.367 204.159 367.123C199.478 367.152 191.25 366.599 188.372 362.208C186.104 358.777 189.244 355.724 192.239 354.299C194.855 353.049 197.792 352.555 200.438 351.362C204.246 349.676 207.997 347.321 210.904 344.296C211.747 343.424 212.445 342.523 212.968 341.418C214.393 338.394 214.015 337.754 211.107 336.387C208.316 335.079 207.299 335.137 204.595 336.62C201.63 338.248 199.246 340.865 197.763 343.918C195.495 348.6 197.588 355.986 193.489 359.65C190.262 362.528 185.814 360.493 183.488 357.498C180.086 353.107 179.97 347.001 180.232 341.738C180.551 335.457 181.017 328.943 184.244 323.389C188.227 316.498 194.332 310.537 199.42 304.46C202.444 300.854 205.467 297.248 208.491 293.672C211.02 290.648 213.375 287.624 216.864 285.704C218.347 285.007 219.684 287.304 218.201 288.118Z" fill="#090E1D"/>
<path d="M204.072 365.116C215.468 365.697 226.138 361.103 233.552 352.408C234.657 351.1 236.546 352.99 235.442 354.299C227.621 363.458 216.108 368.401 204.101 367.791C202.385 367.703 202.356 365.028 204.072 365.116Z" fill="#090E1D"/>
<path d="M187.616 356.973C188.605 353.076 186.308 348.918 182.441 347.726C180.813 347.232 181.511 344.644 183.139 345.167C188.401 346.796 191.512 352.349 190.145 357.671C189.768 359.328 187.209 358.63 187.616 356.973Z" fill="#090E1D"/>
<path d="M212.968 375.235C211.195 371.716 206.834 370.059 203.258 371.862C203.403 371.251 203.577 370.64 203.723 370.03C203.665 370.059 203.607 370.059 203.519 370.088C205.206 370.291 205.206 372.937 203.519 372.734C202.531 372.618 201.833 372.327 201.426 371.367C201.164 370.728 201.193 369.884 201.891 369.535C206.717 367.151 212.823 368.983 215.265 373.868C216.021 375.409 213.724 376.776 212.968 375.235Z" fill="#090E1D"/>
<path d="M94.9304 281.662C89.6972 282.215 85.7433 277.271 87.1679 272.27C87.633 270.613 90.1915 271.31 89.7263 272.968C88.7378 276.428 91.4416 279.365 94.9304 278.987C96.6458 278.842 96.6167 281.488 94.9304 281.662Z" fill="#090E1D"/>
<path d="M94.9304 305.303C92.5173 305.215 90.2787 304.227 88.6215 302.453C87.8365 301.61 87.1969 300.621 86.7608 299.516C86.2665 298.295 86.3828 297.161 86.1503 295.94C86.3538 296.201 86.5573 296.463 86.7608 296.725C86.6736 296.667 86.5573 296.579 86.4701 296.521C86.9934 296.463 87.5458 296.376 88.0691 296.318C88.0109 296.376 87.9528 296.405 87.9237 296.463C88.04 296.143 88.1854 295.823 88.3017 295.533C88.3017 295.62 88.3308 295.678 88.3308 295.765C88.011 295.329 87.6911 294.922 87.3423 294.486C87.4004 294.486 87.4586 294.515 87.4876 294.515C89.1739 294.806 88.447 297.364 86.7899 297.074C86.7317 297.074 86.6736 297.045 86.6445 297.045C86.034 296.928 85.7432 296.318 85.656 295.765C85.5979 295.242 85.7723 294.806 86.1793 294.457C86.5864 294.079 87.2841 293.904 87.7784 294.253C88.5924 294.806 88.7378 295.271 88.7959 296.23C88.8541 297.364 88.9994 298.324 89.5518 299.342C90.6566 301.29 92.6336 302.569 94.8723 302.657C96.6457 302.686 96.6457 305.332 94.9304 305.303Z" fill="#090E1D"/>
<path d="M79.754 319.754C75.5093 316.643 71.0902 312.543 72.5438 306.756C72.9799 305.099 75.5384 305.797 75.1023 307.454C73.9684 311.932 77.8933 315.102 81.0623 317.428C82.4578 318.446 81.1495 320.772 79.754 319.754Z" fill="#090E1D"/>
<path d="M230.499 252.932C232.883 242.639 228.988 232.694 225.121 223.302C224.481 221.731 227.04 221.034 227.679 222.604C231.75 232.519 235.558 242.842 233.058 253.659C232.68 255.287 230.121 254.59 230.499 252.932Z" fill="#090E1D"/>
<path d="M145.082 97.5098C149.007 108.443 153.222 127.489 142.407 142.144L131.883 131.851L122.957 159.591C119.672 169.768 107.781 174.276 98.5936 168.809C98.4482 168.722 98.2737 168.634 98.1284 168.518C89.1738 163.11 87.1968 150.984 94.0581 143.104L130.865 100.766C135.895 100.534 140.779 99.4871 145.082 97.5098Z" fill="#FFB3BD"/>
<path d="M145.082 97.5103C140.779 99.4876 135.895 100.534 130.894 100.738L141.331 88.7578C141.302 88.7578 143.163 92.1599 145.082 97.5103Z" fill="#090E1D"/>
<path d="M112.956 105.332C113.741 109.462 117.724 112.166 121.823 111.381C125.951 110.596 128.655 106.612 127.87 102.512C127.085 98.3829 123.102 95.6786 119.003 96.4637C114.875 97.2197 112.171 101.203 112.956 105.332Z" fill="#FFB3BD"/>
<path d="M121.155 107.572C119.759 105.158 118.393 102.745 116.939 100.36C116.067 98.8773 118.363 97.5397 119.236 99.0227C120.66 101.407 122.056 103.821 123.451 106.234C124.294 107.717 121.998 109.055 121.155 107.572Z" fill="#090E1D"/>
<path d="M131.883 131.822L123.451 157.992L124.672 123.709L131.883 131.822Z" fill="#090E1D"/>
<path d="M148.425 105.769C150.17 110.306 151.652 115.191 152.525 119.988C152.728 121.181 151.652 121.966 150.577 121.501C148.803 120.715 147.03 119.93 145.256 119.145C143.686 118.447 145.053 116.15 146.594 116.848C148.367 117.633 150.141 118.418 151.914 119.203C151.274 119.698 150.606 120.192 149.966 120.715C149.123 115.918 147.611 111.062 145.867 106.496C145.256 104.868 147.815 104.17 148.425 105.769Z" fill="#090E1D"/>
<path d="M137.784 109.782C137.581 107.805 133.918 106.38 132.231 106.758C130.574 107.136 129.847 104.577 131.534 104.199C135.051 103.385 140.052 105.973 140.459 109.782C140.634 111.468 137.959 111.468 137.784 109.782Z" fill="#090E1D"/>
<path d="M140.256 91.5205C135.226 95.9113 131.941 94.6609 125.283 94.2829C117.986 93.8468 105.339 83.9021 98.0703 83.2915C78.1841 81.5759 77.8934 94.7482 66.6711 100.273C58.7631 104.169 49.1108 105.1 40.6504 102.599C24.5147 97.8014 28.8757 82.7099 -2.0583 86.4028C-7.7276 87.0716 -15.432 90.968 -21.1013 91.5787C-35.4926 93.1198 -53.3146 85.9376 -61.426 73.9574C-69.5375 61.9773 -72.2413 49.7064 -66.3685 36.476C-61.1353 24.6994 -43.1389 12.8938 -20.1419 22.664C-13.9493 25.3101 -9.82089 31.5909 -3.51198 34.0044C12.3621 40.0526 30.0096 23.8271 46.2034 28.9157C61.0599 33.5682 63.7347 52.1781 79.0272 54.9696C84.7838 56.0164 90.5984 54.2426 96.3259 53.2249C102.082 52.2071 112.229 53.9518 116.677 57.732C121.3 61.6284 122.201 68.3163 125.283 73.5213C128.684 79.1915 147.088 81.6631 140.256 91.5205Z" fill="#090E1D"/>
<path d="M145.547 122.983C140.314 121.674 135.517 118.65 132.057 114.492C131.563 121.209 135.342 128.072 141.273 131.241L145.547 122.983Z" fill="white"/>
<path d="M27.6256 341.126C27.9745 340.952 30.3585 340.225 31.5215 341.01C31.5215 341.01 30.3585 344.499 29.7189 347.698C28.556 349.472 27.8291 352.321 28.7886 354.386C30.3876 357.759 34.1671 359.533 37.3361 360.986C44.1974 364.127 51.4076 366.569 58.6469 368.663C73.7941 372.996 89.4065 375.235 105.106 375.903C132.58 377.037 163.921 375.671 187.645 359.823C188.837 361.481 193.983 364.883 195.204 366.569C173.777 381.167 142.611 385.615 117.491 385.848C89.2321 386.11 60.2168 381.777 34.2834 369.913C28.9049 367.442 23.4972 363.749 22.2762 357.468C21.2586 352.408 23.0611 343.54 27.6256 341.126Z" fill="white"/>
<mask id="mask9_1666_11719" style="mask-type:luminance" maskUnits="userSpaceOnUse" x="22" y="340" width="174" height="46">
<path d="M27.6256 341.126C27.9745 340.952 30.3585 340.225 31.5215 341.01C31.5215 341.01 30.3585 344.499 29.7189 347.698C28.556 349.472 27.8291 352.321 28.7886 354.386C30.3876 357.759 34.1671 359.533 37.3361 360.986C44.1974 364.127 51.4076 366.569 58.6469 368.663C73.7941 372.996 89.4065 375.235 105.106 375.903C132.58 377.037 163.921 375.671 187.645 359.823C188.837 361.481 193.983 364.883 195.204 366.569C173.777 381.167 142.611 385.615 117.491 385.848C89.2321 386.11 60.2168 381.777 34.2834 369.913C28.9049 367.442 23.4972 363.749 22.2762 357.468C21.2586 352.408 23.0611 343.54 27.6256 341.126Z" fill="white"/>
</mask>
<g mask="url(#mask9_1666_11719)">
<path d="M180.203 366.163C179.737 364.273 179.069 362.499 178.167 360.783C177.382 359.271 179.679 357.934 180.464 359.446C181.453 361.365 182.238 363.371 182.761 365.465C183.197 367.122 180.639 367.82 180.203 366.163Z" fill="#090E1D"/>
</g>
<mask id="mask10_1666_11719" style="mask-type:luminance" maskUnits="userSpaceOnUse" x="22" y="340" width="174" height="46">
<path d="M27.6256 341.126C27.9745 340.952 30.3585 340.225 31.5215 341.01C31.5215 341.01 30.3585 344.499 29.7189 347.698C28.556 349.472 27.8291 352.321 28.7886 354.386C30.3876 357.759 34.1671 359.533 37.3361 360.986C44.1974 364.127 51.4076 366.569 58.6469 368.663C73.7941 372.996 89.4065 375.235 105.106 375.903C132.58 377.037 163.921 375.671 187.645 359.823C188.837 361.481 193.983 364.883 195.204 366.569C173.777 381.167 142.611 385.615 117.491 385.848C89.2321 386.11 60.2168 381.777 34.2834 369.913C28.9049 367.442 23.4972 363.749 22.2762 357.468C21.2586 352.408 23.0611 343.54 27.6256 341.126Z" fill="white"/>
</mask>
<g mask="url(#mask10_1666_11719)">
<path d="M171.888 370.175C170.986 368.634 170.289 366.976 169.765 365.29C169.271 363.661 171.829 362.934 172.324 364.592C172.789 366.104 173.399 367.5 174.184 368.866C175.057 370.32 172.76 371.658 171.888 370.175Z" fill="#090E1D"/>
</g>
<mask id="mask11_1666_11719" style="mask-type:luminance" maskUnits="userSpaceOnUse" x="22" y="340" width="174" height="46">
<path d="M27.6256 341.126C27.9745 340.952 30.3585 340.225 31.5215 341.01C31.5215 341.01 30.3585 344.499 29.7189 347.698C28.556 349.472 27.8291 352.321 28.7886 354.386C30.3876 357.759 34.1671 359.533 37.3361 360.986C44.1974 364.127 51.4076 366.569 58.6469 368.663C73.7941 372.996 89.4065 375.235 105.106 375.903C132.58 377.037 163.921 375.671 187.645 359.823C188.837 361.481 193.983 364.883 195.204 366.569C173.777 381.167 142.611 385.615 117.491 385.848C89.2321 386.11 60.2168 381.777 34.2834 369.913C28.9049 367.442 23.4972 363.749 22.2762 357.468C21.2586 352.408 23.0611 343.54 27.6256 341.126Z" fill="white"/>
</mask>
<g mask="url(#mask11_1666_11719)">
<path d="M162.642 373.141C162.177 371.629 161.712 370.117 161.218 368.605C160.694 366.977 163.282 366.279 163.776 367.907C164.241 369.419 164.706 370.931 165.201 372.443C165.695 374.072 163.136 374.77 162.642 373.141Z" fill="#090E1D"/>
</g>
<mask id="mask12_1666_11719" style="mask-type:luminance" maskUnits="userSpaceOnUse" x="22" y="340" width="174" height="46">
<path d="M27.6256 341.126C27.9745 340.952 30.3585 340.225 31.5215 341.01C31.5215 341.01 30.3585 344.499 29.7189 347.698C28.556 349.472 27.8291 352.321 28.7886 354.386C30.3876 357.759 34.1671 359.533 37.3361 360.986C44.1974 364.127 51.4076 366.569 58.6469 368.663C73.7941 372.996 89.4065 375.235 105.106 375.903C132.58 377.037 163.921 375.671 187.645 359.823C188.837 361.481 193.983 364.883 195.204 366.569C173.777 381.167 142.611 385.615 117.491 385.848C89.2321 386.11 60.2168 381.777 34.2834 369.913C28.9049 367.442 23.4972 363.749 22.2762 357.468C21.2586 352.408 23.0611 343.54 27.6256 341.126Z" fill="white"/>
</mask>
<g mask="url(#mask12_1666_11719)">
<path d="M150.926 375.525C150.373 373.635 149.821 371.745 149.269 369.855C148.774 368.197 151.362 367.499 151.827 369.157C152.379 371.047 152.932 372.937 153.484 374.827C153.978 376.455 151.391 377.153 150.926 375.525Z" fill="#090E1D"/>
</g>
<mask id="mask13_1666_11719" style="mask-type:luminance" maskUnits="userSpaceOnUse" x="22" y="340" width="174" height="46">
<path d="M27.6256 341.126C27.9745 340.952 30.3585 340.225 31.5215 341.01C31.5215 341.01 30.3585 344.499 29.7189 347.698C28.556 349.472 27.8291 352.321 28.7886 354.386C30.3876 357.759 34.1671 359.533 37.3361 360.986C44.1974 364.127 51.4076 366.569 58.6469 368.663C73.7941 372.996 89.4065 375.235 105.106 375.903C132.58 377.037 163.921 375.671 187.645 359.823C188.837 361.481 193.983 364.883 195.204 366.569C173.777 381.167 142.611 385.615 117.491 385.848C89.2321 386.11 60.2168 381.777 34.2834 369.913C28.9049 367.442 23.4972 363.749 22.2762 357.468C21.2586 352.408 23.0611 343.54 27.6256 341.126Z" fill="white"/>
</mask>
<g mask="url(#mask13_1666_11719)">
<path d="M140.43 377.008C140.546 375.787 140.488 374.624 140.227 373.432C139.849 371.774 142.407 371.047 142.785 372.734C143.105 374.159 143.221 375.583 143.105 377.008C142.93 378.695 140.285 378.724 140.43 377.008Z" fill="#090E1D"/>
</g>
<mask id="mask14_1666_11719" style="mask-type:luminance" maskUnits="userSpaceOnUse" x="22" y="340" width="174" height="46">
<path d="M27.6256 341.126C27.9745 340.952 30.3585 340.225 31.5215 341.01C31.5215 341.01 30.3585 344.499 29.7189 347.698C28.556 349.472 27.8291 352.321 28.7886 354.386C30.3876 357.759 34.1671 359.533 37.3361 360.986C44.1974 364.127 51.4076 366.569 58.6469 368.663C73.7941 372.996 89.4065 375.235 105.106 375.903C132.58 377.037 163.921 375.671 187.645 359.823C188.837 361.481 193.983 364.883 195.204 366.569C173.777 381.167 142.611 385.615 117.491 385.848C89.2321 386.11 60.2168 381.777 34.2834 369.913C28.9049 367.442 23.4972 363.749 22.2762 357.468C21.2586 352.408 23.0611 343.54 27.6256 341.126Z" fill="white"/>
</mask>
<g mask="url(#mask14_1666_11719)">
<path d="M130.138 374.886C130.051 375.788 129.935 376.689 129.848 377.591C129.76 378.318 129.295 378.928 128.51 378.928C127.842 378.928 127.115 378.318 127.173 377.591C127.26 376.689 127.376 375.788 127.464 374.886C127.551 374.159 128.016 373.549 128.801 373.549C129.47 373.578 130.196 374.189 130.138 374.886Z" fill="#090E1D"/>
</g>
<mask id="mask15_1666_11719" style="mask-type:luminance" maskUnits="userSpaceOnUse" x="22" y="340" width="174" height="46">
<path d="M27.6256 341.126C27.9745 340.952 30.3585 340.225 31.5215 341.01C31.5215 341.01 30.3585 344.499 29.7189 347.698C28.556 349.472 27.8291 352.321 28.7886 354.386C30.3876 357.759 34.1671 359.533 37.3361 360.986C44.1974 364.127 51.4076 366.569 58.6469 368.663C73.7941 372.996 89.4065 375.235 105.106 375.903C132.58 377.037 163.921 375.671 187.645 359.823C188.837 361.481 193.983 364.883 195.204 366.569C173.777 381.167 142.611 385.615 117.491 385.848C89.2321 386.11 60.2168 381.777 34.2834 369.913C28.9049 367.442 23.4972 363.749 22.2762 357.468C21.2586 352.408 23.0611 343.54 27.6256 341.126Z" fill="white"/>
</mask>
<g mask="url(#mask15_1666_11719)">
<path d="M117.346 375.844C117.23 376.659 117.113 377.444 116.968 378.258C116.852 378.956 115.979 379.363 115.34 379.188C114.584 378.985 114.293 378.258 114.409 377.56C114.526 376.746 114.642 375.961 114.787 375.147C114.904 374.449 115.776 374.042 116.415 374.216C117.171 374.42 117.462 375.147 117.346 375.844Z" fill="#090E1D"/>
</g>
<mask id="mask16_1666_11719" style="mask-type:luminance" maskUnits="userSpaceOnUse" x="22" y="340" width="174" height="46">
<path d="M27.6256 341.126C27.9745 340.952 30.3585 340.225 31.5215 341.01C31.5215 341.01 30.3585 344.499 29.7189 347.698C28.556 349.472 27.8291 352.321 28.7886 354.386C30.3876 357.759 34.1671 359.533 37.3361 360.986C44.1974 364.127 51.4076 366.569 58.6469 368.663C73.7941 372.996 89.4065 375.235 105.106 375.903C132.58 377.037 163.921 375.671 187.645 359.823C188.837 361.481 193.983 364.883 195.204 366.569C173.777 381.167 142.611 385.615 117.491 385.848C89.2321 386.11 60.2168 381.777 34.2834 369.913C28.9049 367.442 23.4972 363.749 22.2762 357.468C21.2586 352.408 23.0611 343.54 27.6256 341.126Z" fill="white"/>
</mask>
<g mask="url(#mask16_1666_11719)">
<path d="M103.972 376.135C103.798 376.833 103.594 377.56 103.42 378.258C103.245 378.956 102.46 379.363 101.792 379.189C101.094 378.985 100.687 378.258 100.861 377.56C101.036 376.862 101.239 376.135 101.414 375.438C101.588 374.74 102.373 374.333 103.042 374.507C103.74 374.711 104.147 375.438 103.972 376.135Z" fill="#090E1D"/>
</g>
<mask id="mask17_1666_11719" style="mask-type:luminance" maskUnits="userSpaceOnUse" x="22" y="340" width="174" height="46">
<path d="M27.6256 341.126C27.9745 340.952 30.3585 340.225 31.5215 341.01C31.5215 341.01 30.3585 344.499 29.7189 347.698C28.556 349.472 27.8291 352.321 28.7886 354.386C30.3876 357.759 34.1671 359.533 37.3361 360.986C44.1974 364.127 51.4076 366.569 58.6469 368.663C73.7941 372.996 89.4065 375.235 105.106 375.903C132.58 377.037 163.921 375.671 187.645 359.823C188.837 361.481 193.983 364.883 195.204 366.569C173.777 381.167 142.611 385.615 117.491 385.848C89.2321 386.11 60.2168 381.777 34.2834 369.913C28.9049 367.442 23.4972 363.749 22.2762 357.468C21.2586 352.408 23.0611 343.54 27.6256 341.126Z" fill="white"/>
</mask>
<g mask="url(#mask17_1666_11719)">
<path d="M93.6803 373.984C93.7675 375.176 93.4768 376.339 92.8953 377.357C92.0522 378.84 89.7554 377.503 90.5986 376.02C90.9765 375.38 91.0928 374.711 91.0056 373.984C90.9474 373.257 91.6452 372.646 92.343 372.646C93.1279 372.646 93.6222 373.257 93.6803 373.984Z" fill="#090E1D"/>
</g>
<mask id="mask18_1666_11719" style="mask-type:luminance" maskUnits="userSpaceOnUse" x="22" y="340" width="174" height="46">
<path d="M27.6256 341.126C27.9745 340.952 30.3585 340.225 31.5215 341.01C31.5215 341.01 30.3585 344.499 29.7189 347.698C28.556 349.472 27.8291 352.321 28.7886 354.386C30.3876 357.759 34.1671 359.533 37.3361 360.986C44.1974 364.127 51.4076 366.569 58.6469 368.663C73.7941 372.996 89.4065 375.235 105.106 375.903C132.58 377.037 163.921 375.671 187.645 359.823C188.837 361.481 193.983 364.883 195.204 366.569C173.777 381.167 142.611 385.615 117.491 385.848C89.2321 386.11 60.2168 381.777 34.2834 369.913C28.9049 367.442 23.4972 363.749 22.2762 357.468C21.2586 352.408 23.0611 343.54 27.6256 341.126Z" fill="white"/>
</mask>
<g mask="url(#mask18_1666_11719)">
<path d="M80.6845 373.374C80.5972 374.479 80.2484 375.555 79.5797 376.457C79.1436 377.038 78.4168 377.329 77.7481 376.922C77.1666 376.602 76.8468 375.672 77.2829 375.09C77.6899 374.538 77.9516 373.956 78.0097 373.345C78.0679 372.618 78.5912 372.008 79.3471 372.008C80.0158 372.066 80.7426 372.677 80.6845 373.374Z" fill="#090E1D"/>
</g>
<mask id="mask19_1666_11719" style="mask-type:luminance" maskUnits="userSpaceOnUse" x="22" y="340" width="174" height="46">
<path d="M27.6256 341.126C27.9745 340.952 30.3585 340.225 31.5215 341.01C31.5215 341.01 30.3585 344.499 29.7189 347.698C28.556 349.472 27.8291 352.321 28.7886 354.386C30.3876 357.759 34.1671 359.533 37.3361 360.986C44.1974 364.127 51.4076 366.569 58.6469 368.663C73.7941 372.996 89.4065 375.235 105.106 375.903C132.58 377.037 163.921 375.671 187.645 359.823C188.837 361.481 193.983 364.883 195.204 366.569C173.777 381.167 142.611 385.615 117.491 385.848C89.2321 386.11 60.2168 381.777 34.2834 369.913C28.9049 367.442 23.4972 363.749 22.2762 357.468C21.2586 352.408 23.0611 343.54 27.6256 341.126Z" fill="white"/>
</mask>
<g mask="url(#mask19_1666_11719)">
<path d="M66.5257 369.798C66.0605 370.728 65.5954 371.659 65.1593 372.56C64.8395 373.2 63.9382 373.374 63.3276 373.025C62.659 372.647 62.5427 371.862 62.8625 371.193C63.3277 370.263 63.7928 369.361 64.2289 368.431C64.5487 367.791 65.45 367.617 66.0605 367.966C66.7002 368.373 66.8455 369.158 66.5257 369.798Z" fill="#090E1D"/>
</g>
<mask id="mask20_1666_11719" style="mask-type:luminance" maskUnits="userSpaceOnUse" x="22" y="340" width="174" height="46">
<path d="M27.6256 341.126C27.9745 340.952 30.3585 340.225 31.5215 341.01C31.5215 341.01 30.3585 344.499 29.7189 347.698C28.556 349.472 27.8291 352.321 28.7886 354.386C30.3876 357.759 34.1671 359.533 37.3361 360.986C44.1974 364.127 51.4076 366.569 58.6469 368.663C73.7941 372.996 89.4065 375.235 105.106 375.903C132.58 377.037 163.921 375.671 187.645 359.823C188.837 361.481 193.983 364.883 195.204 366.569C173.777 381.167 142.611 385.615 117.491 385.848C89.2321 386.11 60.2168 381.777 34.2834 369.913C28.9049 367.442 23.4972 363.749 22.2762 357.468C21.2586 352.408 23.0611 343.54 27.6256 341.126Z" fill="white"/>
</mask>
<g mask="url(#mask20_1666_11719)">
<path d="M54.3151 366.423C53.879 367.179 53.4719 367.906 53.0358 368.662C52.6869 369.273 51.8438 369.505 51.2042 369.127C50.5646 368.749 50.3611 367.935 50.739 367.296C51.1751 366.54 51.5822 365.813 52.0183 365.057C52.3671 364.446 53.2103 364.213 53.8499 364.591C54.4895 364.998 54.693 365.813 54.3151 366.423Z" fill="#090E1D"/>
</g>
<mask id="mask21_1666_11719" style="mask-type:luminance" maskUnits="userSpaceOnUse" x="22" y="340" width="174" height="46">
<path d="M27.6256 341.126C27.9745 340.952 30.3585 340.225 31.5215 341.01C31.5215 341.01 30.3585 344.499 29.7189 347.698C28.556 349.472 27.8291 352.321 28.7886 354.386C30.3876 357.759 34.1671 359.533 37.3361 360.986C44.1974 364.127 51.4076 366.569 58.6469 368.663C73.7941 372.996 89.4065 375.235 105.106 375.903C132.58 377.037 163.921 375.671 187.645 359.823C188.837 361.481 193.983 364.883 195.204 366.569C173.777 381.167 142.611 385.615 117.491 385.848C89.2321 386.11 60.2168 381.777 34.2834 369.913C28.9049 367.442 23.4972 363.749 22.2762 357.468C21.2586 352.408 23.0611 343.54 27.6256 341.126Z" fill="white"/>
</mask>
<g mask="url(#mask21_1666_11719)">
<path d="M41.4646 361.569C40.7959 362.092 40.5051 362.616 40.3888 363.459C40.2725 364.157 39.4003 364.564 38.7607 364.39C38.0048 364.186 37.7141 363.459 37.8304 362.761C38.0048 361.569 38.6735 360.435 39.6039 359.708C40.1563 359.272 40.9412 359.155 41.4936 359.708C41.9297 360.173 42.017 361.133 41.4646 361.569Z" fill="#090E1D"/>
</g>
<mask id="mask22_1666_11719" style="mask-type:luminance" maskUnits="userSpaceOnUse" x="22" y="340" width="174" height="46">
<path d="M27.6256 341.126C27.9745 340.952 30.3585 340.225 31.5215 341.01C31.5215 341.01 30.3585 344.499 29.7189 347.698C28.556 349.472 27.8291 352.321 28.7886 354.386C30.3876 357.759 34.1671 359.533 37.3361 360.986C44.1974 364.127 51.4076 366.569 58.6469 368.663C73.7941 372.996 89.4065 375.235 105.106 375.903C132.58 377.037 163.921 375.671 187.645 359.823C188.837 361.481 193.983 364.883 195.204 366.569C173.777 381.167 142.611 385.615 117.491 385.848C89.2321 386.11 60.2168 381.777 34.2834 369.913C28.9049 367.442 23.4972 363.749 22.2762 357.468C21.2586 352.408 23.0611 343.54 27.6256 341.126Z" fill="white"/>
</mask>
<g mask="url(#mask22_1666_11719)">
<path d="M32.3645 354.619C31.1725 355.433 30.0096 356.218 28.8176 357.032C27.393 357.992 26.0556 355.695 27.4802 354.735C28.6722 353.921 29.8351 353.136 31.0271 352.322C32.4517 351.333 33.7891 353.659 32.3645 354.619Z" fill="#090E1D"/>
</g>
<path d="M248.409 349.152C246.897 348.251 245.385 347.321 243.902 346.419C242.449 345.547 243.786 343.221 245.24 344.122C246.751 345.023 248.263 345.954 249.746 346.855C251.2 347.728 249.862 350.025 248.409 349.152Z" fill="white"/>
<path d="M234.657 340.661C232.854 339.149 231.052 337.608 229.249 336.096C227.941 334.991 229.831 333.101 231.139 334.206C232.941 335.718 234.744 337.259 236.547 338.771C237.826 339.876 235.936 341.737 234.657 340.661Z" fill="white"/>
<path d="M201.891 318.649C201.252 317.166 200.583 315.683 199.943 314.171C199.653 313.502 199.74 312.746 200.409 312.339C200.961 311.99 201.949 312.164 202.24 312.804C202.88 314.287 203.548 315.77 204.188 317.282C204.479 317.951 204.392 318.707 203.723 319.114C203.17 319.463 202.182 319.317 201.891 318.649Z" fill="white"/>
<path d="M36.7837 267.385C35.3882 268.46 34.8358 270.147 35.0102 271.863C35.1847 273.578 32.5099 273.549 32.3646 271.863C32.1029 269.158 33.3531 266.716 35.4754 265.087C36.8128 264.041 38.1211 266.338 36.7837 267.385Z" fill="white"/>
<path d="M30.3875 281.313C29.4572 283.726 28.5559 286.14 27.6256 288.553C27.015 290.152 24.4566 289.455 25.0671 287.855C25.9975 285.442 26.8987 283.028 27.8291 280.615C28.4396 279.016 30.9981 279.713 30.3875 281.313Z" fill="white"/>
<path d="M23.6426 299.631C22.1017 302.946 20.5899 306.261 19.049 309.576C18.3222 311.117 16.0254 309.779 16.7522 308.238C18.2931 304.923 19.8049 301.609 21.3458 298.294C22.0726 296.723 24.3694 298.061 23.6426 299.631Z" fill="white"/>
</svg>
