<svg width="49" height="48" viewBox="0 0 49 48" fill="none" xmlns="http://www.w3.org/2000/svg">
<rect x="2.5" y="2" width="44" height="44" rx="10" fill="#090E1D"/>
<rect x="2.5" y="2" width="44" height="44" rx="10" stroke="#F2F5F9" stroke-width="4"/>
<path d="M25.0333 16H19.5C17.8431 16 16.5 17.3431 16.5 19V29C16.5 30.6569 17.8431 32 19.5 32H29.5C31.1569 32 32.5 30.6569 32.5 29V23.4667" stroke="white" stroke-width="2"/>
<path d="M28.5 17L30.4393 15.0607C31.0251 14.4749 31.9749 14.4749 32.5607 15.0607L33.4393 15.9393C34.0251 16.5251 34.0251 17.4749 33.4393 18.0607L31.5 20" stroke="white" stroke-width="2"/>
<path d="M22.9393 22.5607L28.5 17L31.5 20L25.9393 25.5607C25.658 25.842 25.2765 26 24.8787 26H22.5V23.6213C22.5 23.2235 22.658 22.842 22.9393 22.5607Z" stroke="white" stroke-width="2"/>
</svg>
