<svg width="24" height="16" viewBox="0 0 24 16" fill="none" xmlns="http://www.w3.org/2000/svg">
<path fill-rule="evenodd" clip-rule="evenodd" d="M8.473 1.89886C10.6525 0.627462 13.3477 0.627464 15.5272 1.89886L22.2828 5.83964C23.9366 6.80434 23.9366 9.19384 22.2828 10.1585L15.5272 14.0993C13.3477 15.3707 10.6525 15.3707 8.473 14.0993L1.71737 10.1585C0.0636065 9.19384 0.0636134 6.80434 1.71737 5.83964L8.473 1.89886ZM8.00009 9.49908C8.00009 10.8798 9.11938 11.9991 10.5001 11.9991H13.5001C14.8808 11.9991 16.0001 10.8798 16.0001 9.49908V6.49908C16.0001 5.11837 14.8808 3.99908 13.5001 3.99908L10.5001 3.99908C9.11937 3.99908 8.00009 5.11837 8.00009 6.49908V9.49908ZM10.5001 9.99908C10.2239 9.99908 10.0001 9.77523 10.0001 9.49908V6.49908C10.0001 6.22294 10.2239 5.99908 10.5001 5.99908H13.5001C13.7762 5.99908 14.0001 6.22294 14.0001 6.49908V9.49908C14.0001 9.77523 13.7762 9.99908 13.5001 9.99908H10.5001Z" fill="#818BA0"/>
</svg>
